<?xml version="1.0" encoding="utf-8" standalone="no"?>
<!DOCTYPE svg PUBLIC "-//W3C//DTD SVG 1.1//EN"
  "http://www.w3.org/Graphics/SVG/1.1/DTD/svg11.dtd">
<!-- Created with matplotlib (https://matplotlib.org/) -->
<svg height="288pt" version="1.1" viewBox="0 0 468 288" width="468pt" xmlns="http://www.w3.org/2000/svg" xmlns:xlink="http://www.w3.org/1999/xlink">
 <defs>
  <style type="text/css">
*{stroke-linecap:butt;stroke-linejoin:round;}
  </style>
 </defs>
 <g id="figure_1">
  <g id="patch_1">
   <path d="M 0 288 
L 468 288 
L 468 0 
L 0 0 
z
" style="fill:#ffffff;"/>
  </g>
  <g id="axes_1">
   <g id="patch_2">
    <path d="M 50.675 124.6 
L 235.6 124.6 
L 235.6 26.8 
L 50.675 26.8 
z
" style="fill:#ffffff;"/>
   </g>
   <g id="patch_3">
    <path clip-path="url(#p6b5eb836e8)" d="M 59.080682 124.6 
L 64.503702 124.6 
L 64.503702 124.551838 
L 59.080682 124.551838 
z
" style="fill:#1f77b4;"/>
   </g>
   <g id="patch_4">
    <path clip-path="url(#p6b5eb836e8)" d="M 65.859457 124.6 
L 71.282478 124.6 
L 71.282478 124.339878 
L 65.859457 124.339878 
z
" style="fill:#1f77b4;"/>
   </g>
   <g id="patch_5">
    <path clip-path="url(#p6b5eb836e8)" d="M 72.638233 124.6 
L 78.061254 124.6 
L 78.061254 124.539322 
L 72.638233 124.539322 
z
" style="fill:#1f77b4;"/>
   </g>
   <g id="patch_6">
    <path clip-path="url(#p6b5eb836e8)" d="M 79.417009 124.6 
L 84.840029 124.6 
L 84.840029 124.55448 
L 79.417009 124.55448 
z
" style="fill:#1f77b4;"/>
   </g>
   <g id="patch_7">
    <path clip-path="url(#p6b5eb836e8)" d="M 86.195784 124.6 
L 91.618805 124.6 
L 91.618805 124.553026 
L 86.195784 124.553026 
z
" style="fill:#1f77b4;"/>
   </g>
   <g id="patch_8">
    <path clip-path="url(#p6b5eb836e8)" d="M 92.97456 124.6 
L 98.397581 124.6 
L 98.397581 110.615835 
L 92.97456 110.615835 
z
" style="fill:#1f77b4;"/>
   </g>
   <g id="patch_9">
    <path clip-path="url(#p6b5eb836e8)" d="M 99.753336 124.6 
L 105.176356 124.6 
L 105.176356 116.503972 
L 99.753336 116.503972 
z
" style="fill:#1f77b4;"/>
   </g>
   <g id="patch_10">
    <path clip-path="url(#p6b5eb836e8)" d="M 106.532111 124.6 
L 111.955132 124.6 
L 111.955132 124.077042 
L 106.532111 124.077042 
z
" style="fill:#1f77b4;"/>
   </g>
   <g id="patch_11">
    <path clip-path="url(#p6b5eb836e8)" d="M 113.310887 124.6 
L 118.733908 124.6 
L 118.733908 124.570933 
L 113.310887 124.570933 
z
" style="fill:#1f77b4;"/>
   </g>
   <g id="patch_12">
    <path clip-path="url(#p6b5eb836e8)" d="M 120.089663 124.6 
L 125.512683 124.6 
L 125.512683 124.544375 
L 120.089663 124.544375 
z
" style="fill:#1f77b4;"/>
   </g>
   <g id="patch_13">
    <path clip-path="url(#p6b5eb836e8)" d="M 126.868438 124.6 
L 132.291459 124.6 
L 132.291459 124.545768 
L 126.868438 124.545768 
z
" style="fill:#1f77b4;"/>
   </g>
   <g id="patch_14">
    <path clip-path="url(#p6b5eb836e8)" d="M 133.647214 124.6 
L 139.070235 124.6 
L 139.070235 124.546265 
L 133.647214 124.546265 
z
" style="fill:#1f77b4;"/>
   </g>
   <g id="patch_15">
    <path clip-path="url(#p6b5eb836e8)" d="M 140.42599 124.6 
L 145.84901 124.6 
L 145.84901 119.166764 
L 140.42599 119.166764 
z
" style="fill:#1f77b4;"/>
   </g>
   <g id="patch_16">
    <path clip-path="url(#p6b5eb836e8)" d="M 147.204765 124.6 
L 152.627786 124.6 
L 152.627786 117.697656 
L 147.204765 117.697656 
z
" style="fill:#1f77b4;"/>
   </g>
   <g id="patch_17">
    <path clip-path="url(#p6b5eb836e8)" d="M 153.983541 124.6 
L 159.406562 124.6 
L 159.406562 124.549148 
L 153.983541 124.549148 
z
" style="fill:#1f77b4;"/>
   </g>
   <g id="patch_18">
    <path clip-path="url(#p6b5eb836e8)" d="M 160.762317 124.6 
L 166.185337 124.6 
L 166.185337 119.2327 
L 160.762317 119.2327 
z
" style="fill:#1f77b4;"/>
   </g>
   <g id="patch_19">
    <path clip-path="url(#p6b5eb836e8)" d="M 167.541092 124.6 
L 172.964113 124.6 
L 172.964113 119.079503 
L 167.541092 119.079503 
z
" style="fill:#1f77b4;"/>
   </g>
   <g id="patch_20">
    <path clip-path="url(#p6b5eb836e8)" d="M 174.319868 124.6 
L 179.742889 124.6 
L 179.742889 124.409655 
L 174.319868 124.409655 
z
" style="fill:#1f77b4;"/>
   </g>
   <g id="patch_21">
    <path clip-path="url(#p6b5eb836e8)" d="M 181.098644 124.6 
L 186.521664 124.6 
L 186.521664 124.549354 
L 181.098644 124.549354 
z
" style="fill:#1f77b4;"/>
   </g>
   <g id="patch_22">
    <path clip-path="url(#p6b5eb836e8)" d="M 187.877419 124.6 
L 193.30044 124.6 
L 193.30044 124.54309 
L 187.877419 124.54309 
z
" style="fill:#1f77b4;"/>
   </g>
   <g id="patch_23">
    <path clip-path="url(#p6b5eb836e8)" d="M 194.656195 124.6 
L 200.079216 124.6 
L 200.079216 124.428932 
L 194.656195 124.428932 
z
" style="fill:#1f77b4;"/>
   </g>
   <g id="patch_24">
    <path clip-path="url(#p6b5eb836e8)" d="M 201.434971 124.6 
L 206.857991 124.6 
L 206.857991 111.047715 
L 201.434971 111.047715 
z
" style="fill:#1f77b4;"/>
   </g>
   <g id="patch_25">
    <path clip-path="url(#p6b5eb836e8)" d="M 208.213746 124.6 
L 213.636767 124.6 
L 213.636767 109.463855 
L 208.213746 109.463855 
z
" style="fill:#1f77b4;"/>
   </g>
   <g id="patch_26">
    <path clip-path="url(#p6b5eb836e8)" d="M 214.992522 124.6 
L 220.415543 124.6 
L 220.415543 124.553971 
L 214.992522 124.553971 
z
" style="fill:#1f77b4;"/>
   </g>
   <g id="patch_27">
    <path clip-path="url(#p6b5eb836e8)" d="M 221.771298 124.6 
L 227.194318 124.6 
L 227.194318 124.568656 
L 221.771298 124.568656 
z
" style="fill:#1f77b4;"/>
   </g>
   <g id="patch_28">
    <path clip-path="url(#p6b5eb836e8)" d="M 59.080682 124.551838 
L 64.503702 124.551838 
L 64.503702 95.246296 
L 59.080682 95.246296 
z
" style="fill:#ff7f0e;"/>
   </g>
   <g id="patch_29">
    <path clip-path="url(#p6b5eb836e8)" d="M 65.859457 124.339878 
L 71.282478 124.339878 
L 71.282478 101.194432 
L 65.859457 101.194432 
z
" style="fill:#ff7f0e;"/>
   </g>
   <g id="patch_30">
    <path clip-path="url(#p6b5eb836e8)" d="M 72.638233 124.539322 
L 78.061254 124.539322 
L 78.061254 48.966102 
L 72.638233 48.966102 
z
" style="fill:#ff7f0e;"/>
   </g>
   <g id="patch_31">
    <path clip-path="url(#p6b5eb836e8)" d="M 79.417009 124.55448 
L 84.840029 124.55448 
L 84.840029 46.585616 
L 79.417009 46.585616 
z
" style="fill:#ff7f0e;"/>
   </g>
   <g id="patch_32">
    <path clip-path="url(#p6b5eb836e8)" d="M 86.195784 124.553026 
L 91.618805 124.553026 
L 91.618805 68.831983 
L 86.195784 68.831983 
z
" style="fill:#ff7f0e;"/>
   </g>
   <g id="patch_33">
    <path clip-path="url(#p6b5eb836e8)" d="M 92.97456 110.615835 
L 98.397581 110.615835 
L 98.397581 65.365211 
L 92.97456 65.365211 
z
" style="fill:#ff7f0e;"/>
   </g>
   <g id="patch_34">
    <path clip-path="url(#p6b5eb836e8)" d="M 99.753336 116.503972 
L 105.176356 116.503972 
L 105.176356 67.68256 
L 99.753336 67.68256 
z
" style="fill:#ff7f0e;"/>
   </g>
   <g id="patch_35">
    <path clip-path="url(#p6b5eb836e8)" d="M 106.532111 124.077042 
L 111.955132 124.077042 
L 111.955132 63.914738 
L 106.532111 63.914738 
z
" style="fill:#ff7f0e;"/>
   </g>
   <g id="patch_36">
    <path clip-path="url(#p6b5eb836e8)" d="M 113.310887 124.570933 
L 118.733908 124.570933 
L 118.733908 88.056738 
L 113.310887 88.056738 
z
" style="fill:#ff7f0e;"/>
   </g>
   <g id="patch_37">
    <path clip-path="url(#p6b5eb836e8)" d="M 120.089663 124.544375 
L 125.512683 124.544375 
L 125.512683 99.855924 
L 120.089663 99.855924 
z
" style="fill:#ff7f0e;"/>
   </g>
   <g id="patch_38">
    <path clip-path="url(#p6b5eb836e8)" d="M 126.868438 124.545768 
L 132.291459 124.545768 
L 132.291459 71.121852 
L 126.868438 71.121852 
z
" style="fill:#ff7f0e;"/>
   </g>
   <g id="patch_39">
    <path clip-path="url(#p6b5eb836e8)" d="M 133.647214 124.546265 
L 139.070235 124.546265 
L 139.070235 100.779005 
L 133.647214 100.779005 
z
" style="fill:#ff7f0e;"/>
   </g>
   <g id="patch_40">
    <path clip-path="url(#p6b5eb836e8)" d="M 140.42599 119.166764 
L 145.84901 119.166764 
L 145.84901 103.282216 
L 140.42599 103.282216 
z
" style="fill:#ff7f0e;"/>
   </g>
   <g id="patch_41">
    <path clip-path="url(#p6b5eb836e8)" d="M 147.204765 117.697656 
L 152.627786 117.697656 
L 152.627786 106.382086 
L 147.204765 106.382086 
z
" style="fill:#ff7f0e;"/>
   </g>
   <g id="patch_42">
    <path clip-path="url(#p6b5eb836e8)" d="M 153.983541 124.549148 
L 159.406562 124.549148 
L 159.406562 41.3739 
L 153.983541 41.3739 
z
" style="fill:#ff7f0e;"/>
   </g>
   <g id="patch_43">
    <path clip-path="url(#p6b5eb836e8)" d="M 160.762317 119.2327 
L 166.185337 119.2327 
L 166.185337 97.127365 
L 160.762317 97.127365 
z
" style="fill:#ff7f0e;"/>
   </g>
   <g id="patch_44">
    <path clip-path="url(#p6b5eb836e8)" d="M 167.541092 119.079503 
L 172.964113 119.079503 
L 172.964113 84.463437 
L 167.541092 84.463437 
z
" style="fill:#ff7f0e;"/>
   </g>
   <g id="patch_45">
    <path clip-path="url(#p6b5eb836e8)" d="M 174.319868 124.409655 
L 179.742889 124.409655 
L 179.742889 56.172853 
L 174.319868 56.172853 
z
" style="fill:#ff7f0e;"/>
   </g>
   <g id="patch_46">
    <path clip-path="url(#p6b5eb836e8)" d="M 181.098644 124.549354 
L 186.521664 124.549354 
L 186.521664 79.540885 
L 181.098644 79.540885 
z
" style="fill:#ff7f0e;"/>
   </g>
   <g id="patch_47">
    <path clip-path="url(#p6b5eb836e8)" d="M 187.877419 124.54309 
L 193.30044 124.54309 
L 193.30044 113.292209 
L 187.877419 113.292209 
z
" style="fill:#ff7f0e;"/>
   </g>
   <g id="patch_48">
    <path clip-path="url(#p6b5eb836e8)" d="M 194.656195 124.428932 
L 200.079216 124.428932 
L 200.079216 115.560693 
L 194.656195 115.560693 
z
" style="fill:#ff7f0e;"/>
   </g>
   <g id="patch_49">
    <path clip-path="url(#p6b5eb836e8)" d="M 201.434971 111.047715 
L 206.857991 111.047715 
L 206.857991 101.421961 
L 201.434971 101.421961 
z
" style="fill:#ff7f0e;"/>
   </g>
   <g id="patch_50">
    <path clip-path="url(#p6b5eb836e8)" d="M 208.213746 109.463855 
L 213.636767 109.463855 
L 213.636767 106.886627 
L 208.213746 106.886627 
z
" style="fill:#ff7f0e;"/>
   </g>
   <g id="patch_51">
    <path clip-path="url(#p6b5eb836e8)" d="M 214.992522 124.553971 
L 220.415543 124.553971 
L 220.415543 121.993209 
L 214.992522 121.993209 
z
" style="fill:#ff7f0e;"/>
   </g>
   <g id="patch_52">
    <path clip-path="url(#p6b5eb836e8)" d="M 221.771298 124.568656 
L 227.194318 124.568656 
L 227.194318 122.060441 
L 221.771298 122.060441 
z
" style="fill:#ff7f0e;"/>
   </g>
   <g id="patch_53">
    <path clip-path="url(#p6b5eb836e8)" d="M 59.080682 95.246296 
L 64.503702 95.246296 
L 64.503702 84.112396 
L 59.080682 84.112396 
z
" style="fill:#2ca02c;"/>
   </g>
   <g id="patch_54">
    <path clip-path="url(#p6b5eb836e8)" d="M 65.859457 101.194432 
L 71.282478 101.194432 
L 71.282478 92.296266 
L 65.859457 92.296266 
z
" style="fill:#2ca02c;"/>
   </g>
   <g id="patch_55">
    <path clip-path="url(#p6b5eb836e8)" d="M 72.638233 48.966102 
L 78.061254 48.966102 
L 78.061254 40.628623 
L 72.638233 40.628623 
z
" style="fill:#2ca02c;"/>
   </g>
   <g id="patch_56">
    <path clip-path="url(#p6b5eb836e8)" d="M 79.417009 46.585616 
L 84.840029 46.585616 
L 84.840029 37.947972 
L 79.417009 37.947972 
z
" style="fill:#2ca02c;"/>
   </g>
   <g id="patch_57">
    <path clip-path="url(#p6b5eb836e8)" d="M 86.195784 68.831983 
L 91.618805 68.831983 
L 91.618805 60.850465 
L 86.195784 60.850465 
z
" style="fill:#2ca02c;"/>
   </g>
   <g id="patch_58">
    <path clip-path="url(#p6b5eb836e8)" d="M 92.97456 65.365211 
L 98.397581 65.365211 
L 98.397581 56.650932 
L 92.97456 56.650932 
z
" style="fill:#2ca02c;"/>
   </g>
   <g id="patch_59">
    <path clip-path="url(#p6b5eb836e8)" d="M 99.753336 67.68256 
L 105.176356 67.68256 
L 105.176356 58.767116 
L 99.753336 58.767116 
z
" style="fill:#2ca02c;"/>
   </g>
   <g id="patch_60">
    <path clip-path="url(#p6b5eb836e8)" d="M 106.532111 63.914738 
L 111.955132 63.914738 
L 111.955132 54.859946 
L 106.532111 54.859946 
z
" style="fill:#2ca02c;"/>
   </g>
   <g id="patch_61">
    <path clip-path="url(#p6b5eb836e8)" d="M 113.310887 88.056738 
L 118.733908 88.056738 
L 118.733908 79.304329 
L 113.310887 79.304329 
z
" style="fill:#2ca02c;"/>
   </g>
   <g id="patch_62">
    <path clip-path="url(#p6b5eb836e8)" d="M 120.089663 99.855924 
L 125.512683 99.855924 
L 125.512683 89.253438 
L 120.089663 89.253438 
z
" style="fill:#2ca02c;"/>
   </g>
   <g id="patch_63">
    <path clip-path="url(#p6b5eb836e8)" d="M 126.868438 71.121852 
L 132.291459 71.121852 
L 132.291459 61.986039 
L 126.868438 61.986039 
z
" style="fill:#2ca02c;"/>
   </g>
   <g id="patch_64">
    <path clip-path="url(#p6b5eb836e8)" d="M 133.647214 100.779005 
L 139.070235 100.779005 
L 139.070235 91.81288 
L 133.647214 91.81288 
z
" style="fill:#2ca02c;"/>
   </g>
   <g id="patch_65">
    <path clip-path="url(#p6b5eb836e8)" d="M 140.42599 103.282216 
L 145.84901 103.282216 
L 145.84901 94.702789 
L 140.42599 94.702789 
z
" style="fill:#2ca02c;"/>
   </g>
   <g id="patch_66">
    <path clip-path="url(#p6b5eb836e8)" d="M 147.204765 106.382086 
L 152.627786 106.382086 
L 152.627786 97.730217 
L 147.204765 97.730217 
z
" style="fill:#2ca02c;"/>
   </g>
   <g id="patch_67">
    <path clip-path="url(#p6b5eb836e8)" d="M 153.983541 41.3739 
L 159.406562 41.3739 
L 159.406562 32.199982 
L 153.983541 32.199982 
z
" style="fill:#2ca02c;"/>
   </g>
   <g id="patch_68">
    <path clip-path="url(#p6b5eb836e8)" d="M 160.762317 97.127365 
L 166.185337 97.127365 
L 166.185337 88.380724 
L 160.762317 88.380724 
z
" style="fill:#2ca02c;"/>
   </g>
   <g id="patch_69">
    <path clip-path="url(#p6b5eb836e8)" d="M 167.541092 84.463437 
L 172.964113 84.463437 
L 172.964113 71.432692 
L 167.541092 71.432692 
z
" style="fill:#2ca02c;"/>
   </g>
   <g id="patch_70">
    <path clip-path="url(#p6b5eb836e8)" d="M 174.319868 56.172853 
L 179.742889 56.172853 
L 179.742889 46.340967 
L 174.319868 46.340967 
z
" style="fill:#2ca02c;"/>
   </g>
   <g id="patch_71">
    <path clip-path="url(#p6b5eb836e8)" d="M 181.098644 79.540885 
L 186.521664 79.540885 
L 186.521664 69.723175 
L 181.098644 69.723175 
z
" style="fill:#2ca02c;"/>
   </g>
   <g id="patch_72">
    <path clip-path="url(#p6b5eb836e8)" d="M 187.877419 113.292209 
L 193.30044 113.292209 
L 193.30044 105.313053 
L 187.877419 105.313053 
z
" style="fill:#2ca02c;"/>
   </g>
   <g id="patch_73">
    <path clip-path="url(#p6b5eb836e8)" d="M 194.656195 115.560693 
L 200.079216 115.560693 
L 200.079216 107.221493 
L 194.656195 107.221493 
z
" style="fill:#2ca02c;"/>
   </g>
   <g id="patch_74">
    <path clip-path="url(#p6b5eb836e8)" d="M 201.434971 101.421961 
L 206.857991 101.421961 
L 206.857991 92.722415 
L 201.434971 92.722415 
z
" style="fill:#2ca02c;"/>
   </g>
   <g id="patch_75">
    <path clip-path="url(#p6b5eb836e8)" d="M 208.213746 106.886627 
L 213.636767 106.886627 
L 213.636767 98.301033 
L 208.213746 98.301033 
z
" style="fill:#2ca02c;"/>
   </g>
   <g id="patch_76">
    <path clip-path="url(#p6b5eb836e8)" d="M 214.992522 121.993209 
L 220.415543 121.993209 
L 220.415543 113.660807 
L 214.992522 113.660807 
z
" style="fill:#2ca02c;"/>
   </g>
   <g id="patch_77">
    <path clip-path="url(#p6b5eb836e8)" d="M 221.771298 122.060441 
L 227.194318 122.060441 
L 227.194318 113.764703 
L 221.771298 113.764703 
z
" style="fill:#2ca02c;"/>
   </g>
   <g id="patch_78">
    <path clip-path="url(#p6b5eb836e8)" d="M 59.080682 84.112396 
L 64.503702 84.112396 
L 64.503702 82.810817 
L 59.080682 82.810817 
z
" style="fill:#d62728;"/>
   </g>
   <g id="patch_79">
    <path clip-path="url(#p6b5eb836e8)" d="M 65.859457 92.296266 
L 71.282478 92.296266 
L 71.282478 91.860436 
L 65.859457 91.860436 
z
" style="fill:#d62728;"/>
   </g>
   <g id="patch_80">
    <path clip-path="url(#p6b5eb836e8)" d="M 72.638233 40.628623 
L 78.061254 40.628623 
L 78.061254 40.361074 
L 72.638233 40.361074 
z
" style="fill:#d62728;"/>
   </g>
   <g id="patch_81">
    <path clip-path="url(#p6b5eb836e8)" d="M 79.417009 37.947972 
L 84.840029 37.947972 
L 84.840029 37.584027 
L 79.417009 37.584027 
z
" style="fill:#d62728;"/>
   </g>
   <g id="patch_82">
    <path clip-path="url(#p6b5eb836e8)" d="M 86.195784 60.850465 
L 91.618805 60.850465 
L 91.618805 60.446548 
L 86.195784 60.446548 
z
" style="fill:#d62728;"/>
   </g>
   <g id="patch_83">
    <path clip-path="url(#p6b5eb836e8)" d="M 92.97456 56.650932 
L 98.397581 56.650932 
L 98.397581 56.140551 
L 92.97456 56.140551 
z
" style="fill:#d62728;"/>
   </g>
   <g id="patch_84">
    <path clip-path="url(#p6b5eb836e8)" d="M 99.753336 58.767116 
L 105.176356 58.767116 
L 105.176356 58.134931 
L 99.753336 58.134931 
z
" style="fill:#d62728;"/>
   </g>
   <g id="patch_85">
    <path clip-path="url(#p6b5eb836e8)" d="M 106.532111 54.859946 
L 111.955132 54.859946 
L 111.955132 54.50802 
L 106.532111 54.50802 
z
" style="fill:#d62728;"/>
   </g>
   <g id="patch_86">
    <path clip-path="url(#p6b5eb836e8)" d="M 113.310887 79.304329 
L 118.733908 79.304329 
L 118.733908 79.026421 
L 113.310887 79.026421 
z
" style="fill:#d62728;"/>
   </g>
   <g id="patch_87">
    <path clip-path="url(#p6b5eb836e8)" d="M 120.089663 89.253438 
L 125.512683 89.253438 
L 125.512683 88.918948 
L 120.089663 88.918948 
z
" style="fill:#d62728;"/>
   </g>
   <g id="patch_88">
    <path clip-path="url(#p6b5eb836e8)" d="M 126.868438 61.986039 
L 132.291459 61.986039 
L 132.291459 61.660599 
L 126.868438 61.660599 
z
" style="fill:#d62728;"/>
   </g>
   <g id="patch_89">
    <path clip-path="url(#p6b5eb836e8)" d="M 133.647214 91.81288 
L 139.070235 91.81288 
L 139.070235 91.530743 
L 133.647214 91.530743 
z
" style="fill:#d62728;"/>
   </g>
   <g id="patch_90">
    <path clip-path="url(#p6b5eb836e8)" d="M 140.42599 94.702789 
L 145.84901 94.702789 
L 145.84901 94.292742 
L 140.42599 94.292742 
z
" style="fill:#d62728;"/>
   </g>
   <g id="patch_91">
    <path clip-path="url(#p6b5eb836e8)" d="M 147.204765 97.730217 
L 152.627786 97.730217 
L 152.627786 97.319394 
L 147.204765 97.319394 
z
" style="fill:#d62728;"/>
   </g>
   <g id="patch_92">
    <path clip-path="url(#p6b5eb836e8)" d="M 153.983541 32.199982 
L 159.406562 32.199982 
L 159.406562 31.93568 
L 153.983541 31.93568 
z
" style="fill:#d62728;"/>
   </g>
   <g id="patch_93">
    <path clip-path="url(#p6b5eb836e8)" d="M 160.762317 88.380724 
L 166.185337 88.380724 
L 166.185337 88.153776 
L 160.762317 88.153776 
z
" style="fill:#d62728;"/>
   </g>
   <g id="patch_94">
    <path clip-path="url(#p6b5eb836e8)" d="M 167.541092 71.432692 
L 172.964113 71.432692 
L 172.964113 71.067184 
L 167.541092 71.067184 
z
" style="fill:#d62728;"/>
   </g>
   <g id="patch_95">
    <path clip-path="url(#p6b5eb836e8)" d="M 174.319868 46.340967 
L 179.742889 46.340967 
L 179.742889 46.012789 
L 174.319868 46.012789 
z
" style="fill:#d62728;"/>
   </g>
   <g id="patch_96">
    <path clip-path="url(#p6b5eb836e8)" d="M 181.098644 69.723175 
L 186.521664 69.723175 
L 186.521664 69.371952 
L 181.098644 69.371952 
z
" style="fill:#d62728;"/>
   </g>
   <g id="patch_97">
    <path clip-path="url(#p6b5eb836e8)" d="M 187.877419 105.313053 
L 193.30044 105.313053 
L 193.30044 105.043008 
L 187.877419 105.043008 
z
" style="fill:#d62728;"/>
   </g>
   <g id="patch_98">
    <path clip-path="url(#p6b5eb836e8)" d="M 194.656195 107.221493 
L 200.079216 107.221493 
L 200.079216 106.787262 
L 194.656195 106.787262 
z
" style="fill:#d62728;"/>
   </g>
   <g id="patch_99">
    <path clip-path="url(#p6b5eb836e8)" d="M 201.434971 92.722415 
L 206.857991 92.722415 
L 206.857991 92.448493 
L 201.434971 92.448493 
z
" style="fill:#d62728;"/>
   </g>
   <g id="patch_100">
    <path clip-path="url(#p6b5eb836e8)" d="M 208.213746 98.301033 
L 213.636767 98.301033 
L 213.636767 97.937706 
L 208.213746 97.937706 
z
" style="fill:#d62728;"/>
   </g>
   <g id="patch_101">
    <path clip-path="url(#p6b5eb836e8)" d="M 214.992522 113.660807 
L 220.415543 113.660807 
L 220.415543 113.402296 
L 214.992522 113.402296 
z
" style="fill:#d62728;"/>
   </g>
   <g id="patch_102">
    <path clip-path="url(#p6b5eb836e8)" d="M 221.771298 113.764703 
L 227.194318 113.764703 
L 227.194318 113.538433 
L 221.771298 113.538433 
z
" style="fill:#d62728;"/>
   </g>
   <g id="patch_103">
    <path clip-path="url(#p6b5eb836e8)" d="M 59.080682 82.810817 
L 64.503702 82.810817 
L 64.503702 82.386498 
L 59.080682 82.386498 
z
" style="fill:#9467bd;"/>
   </g>
   <g id="patch_104">
    <path clip-path="url(#p6b5eb836e8)" d="M 65.859457 91.860436 
L 71.282478 91.860436 
L 71.282478 90.686004 
L 65.859457 90.686004 
z
" style="fill:#9467bd;"/>
   </g>
   <g id="patch_105">
    <path clip-path="url(#p6b5eb836e8)" d="M 72.638233 40.361074 
L 78.061254 40.361074 
L 78.061254 39.555684 
L 72.638233 39.555684 
z
" style="fill:#9467bd;"/>
   </g>
   <g id="patch_106">
    <path clip-path="url(#p6b5eb836e8)" d="M 79.417009 37.584027 
L 84.840029 37.584027 
L 84.840029 36.546985 
L 79.417009 36.546985 
z
" style="fill:#9467bd;"/>
   </g>
   <g id="patch_107">
    <path clip-path="url(#p6b5eb836e8)" d="M 86.195784 60.446548 
L 91.618805 60.446548 
L 91.618805 59.485755 
L 86.195784 59.485755 
z
" style="fill:#9467bd;"/>
   </g>
   <g id="patch_108">
    <path clip-path="url(#p6b5eb836e8)" d="M 92.97456 56.140551 
L 98.397581 56.140551 
L 98.397581 54.543457 
L 92.97456 54.543457 
z
" style="fill:#9467bd;"/>
   </g>
   <g id="patch_109">
    <path clip-path="url(#p6b5eb836e8)" d="M 99.753336 58.134931 
L 105.176356 58.134931 
L 105.176356 57.030436 
L 99.753336 57.030436 
z
" style="fill:#9467bd;"/>
   </g>
   <g id="patch_110">
    <path clip-path="url(#p6b5eb836e8)" d="M 106.532111 54.50802 
L 111.955132 54.50802 
L 111.955132 53.552146 
L 106.532111 53.552146 
z
" style="fill:#9467bd;"/>
   </g>
   <g id="patch_111">
    <path clip-path="url(#p6b5eb836e8)" d="M 113.310887 79.026421 
L 118.733908 79.026421 
L 118.733908 78.132422 
L 113.310887 78.132422 
z
" style="fill:#9467bd;"/>
   </g>
   <g id="patch_112">
    <path clip-path="url(#p6b5eb836e8)" d="M 120.089663 88.918948 
L 125.512683 88.918948 
L 125.512683 88.056589 
L 120.089663 88.056589 
z
" style="fill:#9467bd;"/>
   </g>
   <g id="patch_113">
    <path clip-path="url(#p6b5eb836e8)" d="M 126.868438 61.660599 
L 132.291459 61.660599 
L 132.291459 61.138285 
L 126.868438 61.138285 
z
" style="fill:#9467bd;"/>
   </g>
   <g id="patch_114">
    <path clip-path="url(#p6b5eb836e8)" d="M 133.647214 91.530743 
L 139.070235 91.530743 
L 139.070235 90.92941 
L 133.647214 90.92941 
z
" style="fill:#9467bd;"/>
   </g>
   <g id="patch_115">
    <path clip-path="url(#p6b5eb836e8)" d="M 140.42599 94.292742 
L 145.84901 94.292742 
L 145.84901 93.126924 
L 140.42599 93.126924 
z
" style="fill:#9467bd;"/>
   </g>
   <g id="patch_116">
    <path clip-path="url(#p6b5eb836e8)" d="M 147.204765 97.319394 
L 152.627786 97.319394 
L 152.627786 96.11176 
L 147.204765 96.11176 
z
" style="fill:#9467bd;"/>
   </g>
   <g id="patch_117">
    <path clip-path="url(#p6b5eb836e8)" d="M 153.983541 31.93568 
L 159.406562 31.93568 
L 159.406562 31.457143 
L 153.983541 31.457143 
z
" style="fill:#9467bd;"/>
   </g>
   <g id="patch_118">
    <path clip-path="url(#p6b5eb836e8)" d="M 160.762317 88.153776 
L 166.185337 88.153776 
L 166.185337 87.664818 
L 160.762317 87.664818 
z
" style="fill:#9467bd;"/>
   </g>
   <g id="patch_119">
    <path clip-path="url(#p6b5eb836e8)" d="M 167.541092 71.067184 
L 172.964113 71.067184 
L 172.964113 70.019209 
L 167.541092 70.019209 
z
" style="fill:#9467bd;"/>
   </g>
   <g id="patch_120">
    <path clip-path="url(#p6b5eb836e8)" d="M 174.319868 46.012789 
L 179.742889 46.012789 
L 179.742889 45.130111 
L 174.319868 45.130111 
z
" style="fill:#9467bd;"/>
   </g>
   <g id="patch_121">
    <path clip-path="url(#p6b5eb836e8)" d="M 181.098644 69.371952 
L 186.521664 69.371952 
L 186.521664 68.147729 
L 181.098644 68.147729 
z
" style="fill:#9467bd;"/>
   </g>
   <g id="patch_122">
    <path clip-path="url(#p6b5eb836e8)" d="M 187.877419 105.043008 
L 193.30044 105.043008 
L 193.30044 104.322728 
L 187.877419 104.322728 
z
" style="fill:#9467bd;"/>
   </g>
   <g id="patch_123">
    <path clip-path="url(#p6b5eb836e8)" d="M 194.656195 106.787262 
L 200.079216 106.787262 
L 200.079216 105.461237 
L 194.656195 105.461237 
z
" style="fill:#9467bd;"/>
   </g>
   <g id="patch_124">
    <path clip-path="url(#p6b5eb836e8)" d="M 201.434971 92.448493 
L 206.857991 92.448493 
L 206.857991 91.704186 
L 201.434971 91.704186 
z
" style="fill:#9467bd;"/>
   </g>
   <g id="patch_125">
    <path clip-path="url(#p6b5eb836e8)" d="M 208.213746 97.937706 
L 213.636767 97.937706 
L 213.636767 96.946215 
L 208.213746 96.946215 
z
" style="fill:#9467bd;"/>
   </g>
   <g id="patch_126">
    <path clip-path="url(#p6b5eb836e8)" d="M 214.992522 113.402296 
L 220.415543 113.402296 
L 220.415543 112.596215 
L 214.992522 112.596215 
z
" style="fill:#9467bd;"/>
   </g>
   <g id="patch_127">
    <path clip-path="url(#p6b5eb836e8)" d="M 221.771298 113.538433 
L 227.194318 113.538433 
L 227.194318 113.038865 
L 221.771298 113.038865 
z
" style="fill:#9467bd;"/>
   </g>
   <g id="patch_128">
    <path clip-path="url(#p6b5eb836e8)" d="M 59.080682 124.6 
L 64.503702 124.6 
L 64.503702 82.386491 
L 59.080682 82.386491 
z
" style="fill:none;stroke:#000000;stroke-linejoin:miter;"/>
   </g>
   <g id="patch_129">
    <path clip-path="url(#p6b5eb836e8)" d="M 65.859457 124.6 
L 71.282478 124.6 
L 71.282478 90.686006 
L 65.859457 90.686006 
z
" style="fill:none;stroke:#000000;stroke-linejoin:miter;"/>
   </g>
   <g id="patch_130">
    <path clip-path="url(#p6b5eb836e8)" d="M 72.638233 124.6 
L 78.061254 124.6 
L 78.061254 39.555695 
L 72.638233 39.555695 
z
" style="fill:none;stroke:#000000;stroke-linejoin:miter;"/>
   </g>
   <g id="patch_131">
    <path clip-path="url(#p6b5eb836e8)" d="M 79.417009 124.6 
L 84.840029 124.6 
L 84.840029 36.546993 
L 79.417009 36.546993 
z
" style="fill:none;stroke:#000000;stroke-linejoin:miter;"/>
   </g>
   <g id="patch_132">
    <path clip-path="url(#p6b5eb836e8)" d="M 86.195784 124.6 
L 91.618805 124.6 
L 91.618805 59.485757 
L 86.195784 59.485757 
z
" style="fill:none;stroke:#000000;stroke-linejoin:miter;"/>
   </g>
   <g id="patch_133">
    <path clip-path="url(#p6b5eb836e8)" d="M 92.97456 124.6 
L 98.397581 124.6 
L 98.397581 54.543448 
L 92.97456 54.543448 
z
" style="fill:none;stroke:#000000;stroke-linejoin:miter;"/>
   </g>
   <g id="patch_134">
    <path clip-path="url(#p6b5eb836e8)" d="M 99.753336 124.6 
L 105.176356 124.6 
L 105.176356 57.030436 
L 99.753336 57.030436 
z
" style="fill:none;stroke:#000000;stroke-linejoin:miter;"/>
   </g>
   <g id="patch_135">
    <path clip-path="url(#p6b5eb836e8)" d="M 106.532111 124.6 
L 111.955132 124.6 
L 111.955132 53.552143 
L 106.532111 53.552143 
z
" style="fill:none;stroke:#000000;stroke-linejoin:miter;"/>
   </g>
   <g id="patch_136">
    <path clip-path="url(#p6b5eb836e8)" d="M 113.310887 124.6 
L 118.733908 124.6 
L 118.733908 78.132417 
L 113.310887 78.132417 
z
" style="fill:none;stroke:#000000;stroke-linejoin:miter;"/>
   </g>
   <g id="patch_137">
    <path clip-path="url(#p6b5eb836e8)" d="M 120.089663 124.6 
L 125.512683 124.6 
L 125.512683 88.056591 
L 120.089663 88.056591 
z
" style="fill:none;stroke:#000000;stroke-linejoin:miter;"/>
   </g>
   <g id="patch_138">
    <path clip-path="url(#p6b5eb836e8)" d="M 126.868438 124.6 
L 132.291459 124.6 
L 132.291459 61.138283 
L 126.868438 61.138283 
z
" style="fill:none;stroke:#000000;stroke-linejoin:miter;"/>
   </g>
   <g id="patch_139">
    <path clip-path="url(#p6b5eb836e8)" d="M 133.647214 124.6 
L 139.070235 124.6 
L 139.070235 90.929405 
L 133.647214 90.929405 
z
" style="fill:none;stroke:#000000;stroke-linejoin:miter;"/>
   </g>
   <g id="patch_140">
    <path clip-path="url(#p6b5eb836e8)" d="M 140.42599 124.6 
L 145.84901 124.6 
L 145.84901 93.12692 
L 140.42599 93.12692 
z
" style="fill:none;stroke:#000000;stroke-linejoin:miter;"/>
   </g>
   <g id="patch_141">
    <path clip-path="url(#p6b5eb836e8)" d="M 147.204765 124.6 
L 152.627786 124.6 
L 152.627786 96.111761 
L 147.204765 96.111761 
z
" style="fill:none;stroke:#000000;stroke-linejoin:miter;"/>
   </g>
   <g id="patch_142">
    <path clip-path="url(#p6b5eb836e8)" d="M 153.983541 124.6 
L 159.406562 124.6 
L 159.406562 31.457154 
L 153.983541 31.457154 
z
" style="fill:none;stroke:#000000;stroke-linejoin:miter;"/>
   </g>
   <g id="patch_143">
    <path clip-path="url(#p6b5eb836e8)" d="M 160.762317 124.6 
L 166.185337 124.6 
L 166.185337 87.664821 
L 160.762317 87.664821 
z
" style="fill:none;stroke:#000000;stroke-linejoin:miter;"/>
   </g>
   <g id="patch_144">
    <path clip-path="url(#p6b5eb836e8)" d="M 167.541092 124.6 
L 172.964113 124.6 
L 172.964113 70.019221 
L 167.541092 70.019221 
z
" style="fill:none;stroke:#000000;stroke-linejoin:miter;"/>
   </g>
   <g id="patch_145">
    <path clip-path="url(#p6b5eb836e8)" d="M 174.319868 124.6 
L 179.742889 124.6 
L 179.742889 45.130112 
L 174.319868 45.130112 
z
" style="fill:none;stroke:#000000;stroke-linejoin:miter;"/>
   </g>
   <g id="patch_146">
    <path clip-path="url(#p6b5eb836e8)" d="M 181.098644 124.6 
L 186.521664 124.6 
L 186.521664 68.147732 
L 181.098644 68.147732 
z
" style="fill:none;stroke:#000000;stroke-linejoin:miter;"/>
   </g>
   <g id="patch_147">
    <path clip-path="url(#p6b5eb836e8)" d="M 187.877419 124.6 
L 193.30044 124.6 
L 193.30044 104.322723 
L 187.877419 104.322723 
z
" style="fill:none;stroke:#000000;stroke-linejoin:miter;"/>
   </g>
   <g id="patch_148">
    <path clip-path="url(#p6b5eb836e8)" d="M 194.656195 124.6 
L 200.079216 124.6 
L 200.079216 105.461241 
L 194.656195 105.461241 
z
" style="fill:none;stroke:#000000;stroke-linejoin:miter;"/>
   </g>
   <g id="patch_149">
    <path clip-path="url(#p6b5eb836e8)" d="M 201.434971 124.6 
L 206.857991 124.6 
L 206.857991 91.704186 
L 201.434971 91.704186 
z
" style="fill:none;stroke:#000000;stroke-linejoin:miter;"/>
   </g>
   <g id="patch_150">
    <path clip-path="url(#p6b5eb836e8)" d="M 208.213746 124.6 
L 213.636767 124.6 
L 213.636767 96.946215 
L 208.213746 96.946215 
z
" style="fill:none;stroke:#000000;stroke-linejoin:miter;"/>
   </g>
   <g id="patch_151">
    <path clip-path="url(#p6b5eb836e8)" d="M 214.992522 124.6 
L 220.415543 124.6 
L 220.415543 112.596223 
L 214.992522 112.596223 
z
" style="fill:none;stroke:#000000;stroke-linejoin:miter;"/>
   </g>
   <g id="patch_152">
    <path clip-path="url(#p6b5eb836e8)" d="M 221.771298 124.6 
L 227.194318 124.6 
L 227.194318 113.038855 
L 221.771298 113.038855 
z
" style="fill:none;stroke:#000000;stroke-linejoin:miter;"/>
   </g>
   <g id="matplotlib.axis_1">
    <g id="text_1">
     <!-- Task -->
     <defs>
      <path d="M -0.296875 72.90625 
L 61.375 72.90625 
L 61.375 64.59375 
L 35.5 64.59375 
L 35.5 0 
L 25.59375 0 
L 25.59375 64.59375 
L -0.296875 64.59375 
z
" id="DejaVuSans-84"/>
      <path d="M 34.28125 27.484375 
Q 23.390625 27.484375 19.1875 25 
Q 14.984375 22.515625 14.984375 16.5 
Q 14.984375 11.71875 18.140625 8.90625 
Q 21.296875 6.109375 26.703125 6.109375 
Q 34.1875 6.109375 38.703125 11.40625 
Q 43.21875 16.703125 43.21875 25.484375 
L 43.21875 27.484375 
z
M 52.203125 31.203125 
L 52.203125 0 
L 43.21875 0 
L 43.21875 8.296875 
Q 40.140625 3.328125 35.546875 0.953125 
Q 30.953125 -1.421875 24.3125 -1.421875 
Q 15.921875 -1.421875 10.953125 3.296875 
Q 6 8.015625 6 15.921875 
Q 6 25.140625 12.171875 29.828125 
Q 18.359375 34.515625 30.609375 34.515625 
L 43.21875 34.515625 
L 43.21875 35.40625 
Q 43.21875 41.609375 39.140625 45 
Q 35.0625 48.390625 27.6875 48.390625 
Q 23 48.390625 18.546875 47.265625 
Q 14.109375 46.140625 10.015625 43.890625 
L 10.015625 52.203125 
Q 14.9375 54.109375 19.578125 55.046875 
Q 24.21875 56 28.609375 56 
Q 40.484375 56 46.34375 49.84375 
Q 52.203125 43.703125 52.203125 31.203125 
z
" id="DejaVuSans-97"/>
      <path d="M 44.28125 53.078125 
L 44.28125 44.578125 
Q 40.484375 46.53125 36.375 47.5 
Q 32.28125 48.484375 27.875 48.484375 
Q 21.1875 48.484375 17.84375 46.4375 
Q 14.5 44.390625 14.5 40.28125 
Q 14.5 37.15625 16.890625 35.375 
Q 19.28125 33.59375 26.515625 31.984375 
L 29.59375 31.296875 
Q 39.15625 29.25 43.1875 25.515625 
Q 47.21875 21.78125 47.21875 15.09375 
Q 47.21875 7.46875 41.1875 3.015625 
Q 35.15625 -1.421875 24.609375 -1.421875 
Q 20.21875 -1.421875 15.453125 -0.5625 
Q 10.6875 0.296875 5.421875 2 
L 5.421875 11.28125 
Q 10.40625 8.6875 15.234375 7.390625 
Q 20.0625 6.109375 24.8125 6.109375 
Q 31.15625 6.109375 34.5625 8.28125 
Q 37.984375 10.453125 37.984375 14.40625 
Q 37.984375 18.0625 35.515625 20.015625 
Q 33.0625 21.96875 24.703125 23.78125 
L 21.578125 24.515625 
Q 13.234375 26.265625 9.515625 29.90625 
Q 5.8125 33.546875 5.8125 39.890625 
Q 5.8125 47.609375 11.28125 51.796875 
Q 16.75 56 26.8125 56 
Q 31.78125 56 36.171875 55.265625 
Q 40.578125 54.546875 44.28125 53.078125 
z
" id="DejaVuSans-115"/>
      <path d="M 9.078125 75.984375 
L 18.109375 75.984375 
L 18.109375 31.109375 
L 44.921875 54.6875 
L 56.390625 54.6875 
L 27.390625 29.109375 
L 57.625 0 
L 45.90625 0 
L 18.109375 26.703125 
L 18.109375 0 
L 9.078125 0 
z
" id="DejaVuSans-107"/>
     </defs>
     <g transform="translate(131.532031 136.198437)scale(0.1 -0.1)">
      <use xlink:href="#DejaVuSans-84"/>
      <use x="60.833984" xlink:href="#DejaVuSans-97"/>
      <use x="122.113281" xlink:href="#DejaVuSans-115"/>
      <use x="174.212891" xlink:href="#DejaVuSans-107"/>
     </g>
    </g>
   </g>
   <g id="matplotlib.axis_2">
    <g id="ytick_1">
     <g id="line2d_1">
      <defs>
       <path d="M 0 0 
L -3.5 0 
" id="m5d391fe24c" style="stroke:#000000;stroke-width:0.8;"/>
      </defs>
      <g>
       <use style="stroke:#000000;stroke-width:0.8;" x="50.675" xlink:href="#m5d391fe24c" y="124.6"/>
      </g>
     </g>
     <g id="text_2">
      <!-- 0.0 -->
      <defs>
       <path d="M 31.78125 66.40625 
Q 24.171875 66.40625 20.328125 58.90625 
Q 16.5 51.421875 16.5 36.375 
Q 16.5 21.390625 20.328125 13.890625 
Q 24.171875 6.390625 31.78125 6.390625 
Q 39.453125 6.390625 43.28125 13.890625 
Q 47.125 21.390625 47.125 36.375 
Q 47.125 51.421875 43.28125 58.90625 
Q 39.453125 66.40625 31.78125 66.40625 
z
M 31.78125 74.21875 
Q 44.046875 74.21875 50.515625 64.515625 
Q 56.984375 54.828125 56.984375 36.375 
Q 56.984375 17.96875 50.515625 8.265625 
Q 44.046875 -1.421875 31.78125 -1.421875 
Q 19.53125 -1.421875 13.0625 8.265625 
Q 6.59375 17.96875 6.59375 36.375 
Q 6.59375 54.828125 13.0625 64.515625 
Q 19.53125 74.21875 31.78125 74.21875 
z
" id="DejaVuSans-48"/>
       <path d="M 10.6875 12.40625 
L 21 12.40625 
L 21 0 
L 10.6875 0 
z
" id="DejaVuSans-46"/>
      </defs>
      <g transform="translate(27.771875 128.399219)scale(0.1 -0.1)">
       <use xlink:href="#DejaVuSans-48"/>
       <use x="63.623047" xlink:href="#DejaVuSans-46"/>
       <use x="95.410156" xlink:href="#DejaVuSans-48"/>
      </g>
     </g>
    </g>
    <g id="ytick_2">
     <g id="line2d_2">
      <g>
       <use style="stroke:#000000;stroke-width:0.8;" x="50.675" xlink:href="#m5d391fe24c" y="99.190577"/>
      </g>
     </g>
     <g id="text_3">
      <!-- 0.5 -->
      <defs>
       <path d="M 10.796875 72.90625 
L 49.515625 72.90625 
L 49.515625 64.59375 
L 19.828125 64.59375 
L 19.828125 46.734375 
Q 21.96875 47.46875 24.109375 47.828125 
Q 26.265625 48.1875 28.421875 48.1875 
Q 40.625 48.1875 47.75 41.5 
Q 54.890625 34.8125 54.890625 23.390625 
Q 54.890625 11.625 47.5625 5.09375 
Q 40.234375 -1.421875 26.90625 -1.421875 
Q 22.3125 -1.421875 17.546875 -0.640625 
Q 12.796875 0.140625 7.71875 1.703125 
L 7.71875 11.625 
Q 12.109375 9.234375 16.796875 8.0625 
Q 21.484375 6.890625 26.703125 6.890625 
Q 35.15625 6.890625 40.078125 11.328125 
Q 45.015625 15.765625 45.015625 23.390625 
Q 45.015625 31 40.078125 35.4375 
Q 35.15625 39.890625 26.703125 39.890625 
Q 22.75 39.890625 18.8125 39.015625 
Q 14.890625 38.140625 10.796875 36.28125 
z
" id="DejaVuSans-53"/>
      </defs>
      <g transform="translate(27.771875 102.989796)scale(0.1 -0.1)">
       <use xlink:href="#DejaVuSans-48"/>
       <use x="63.623047" xlink:href="#DejaVuSans-46"/>
       <use x="95.410156" xlink:href="#DejaVuSans-53"/>
      </g>
     </g>
    </g>
    <g id="ytick_3">
     <g id="line2d_3">
      <g>
       <use style="stroke:#000000;stroke-width:0.8;" x="50.675" xlink:href="#m5d391fe24c" y="73.781154"/>
      </g>
     </g>
     <g id="text_4">
      <!-- 1.0 -->
      <defs>
       <path d="M 12.40625 8.296875 
L 28.515625 8.296875 
L 28.515625 63.921875 
L 10.984375 60.40625 
L 10.984375 69.390625 
L 28.421875 72.90625 
L 38.28125 72.90625 
L 38.28125 8.296875 
L 54.390625 8.296875 
L 54.390625 0 
L 12.40625 0 
z
" id="DejaVuSans-49"/>
      </defs>
      <g transform="translate(27.771875 77.580373)scale(0.1 -0.1)">
       <use xlink:href="#DejaVuSans-49"/>
       <use x="63.623047" xlink:href="#DejaVuSans-46"/>
       <use x="95.410156" xlink:href="#DejaVuSans-48"/>
      </g>
     </g>
    </g>
    <g id="ytick_4">
     <g id="line2d_4">
      <g>
       <use style="stroke:#000000;stroke-width:0.8;" x="50.675" xlink:href="#m5d391fe24c" y="48.371732"/>
      </g>
     </g>
     <g id="text_5">
      <!-- 1.5 -->
      <g transform="translate(27.771875 52.17095)scale(0.1 -0.1)">
       <use xlink:href="#DejaVuSans-49"/>
       <use x="63.623047" xlink:href="#DejaVuSans-46"/>
       <use x="95.410156" xlink:href="#DejaVuSans-53"/>
      </g>
     </g>
    </g>
    <g id="text_6">
     <!-- Communication Time (s) -->
     <defs>
      <path d="M 64.40625 67.28125 
L 64.40625 56.890625 
Q 59.421875 61.53125 53.78125 63.8125 
Q 48.140625 66.109375 41.796875 66.109375 
Q 29.296875 66.109375 22.65625 58.46875 
Q 16.015625 50.828125 16.015625 36.375 
Q 16.015625 21.96875 22.65625 14.328125 
Q 29.296875 6.6875 41.796875 6.6875 
Q 48.140625 6.6875 53.78125 8.984375 
Q 59.421875 11.28125 64.40625 15.921875 
L 64.40625 5.609375 
Q 59.234375 2.09375 53.4375 0.328125 
Q 47.65625 -1.421875 41.21875 -1.421875 
Q 24.65625 -1.421875 15.125 8.703125 
Q 5.609375 18.84375 5.609375 36.375 
Q 5.609375 53.953125 15.125 64.078125 
Q 24.65625 74.21875 41.21875 74.21875 
Q 47.75 74.21875 53.53125 72.484375 
Q 59.328125 70.75 64.40625 67.28125 
z
" id="DejaVuSans-67"/>
      <path d="M 30.609375 48.390625 
Q 23.390625 48.390625 19.1875 42.75 
Q 14.984375 37.109375 14.984375 27.296875 
Q 14.984375 17.484375 19.15625 11.84375 
Q 23.34375 6.203125 30.609375 6.203125 
Q 37.796875 6.203125 41.984375 11.859375 
Q 46.1875 17.53125 46.1875 27.296875 
Q 46.1875 37.015625 41.984375 42.703125 
Q 37.796875 48.390625 30.609375 48.390625 
z
M 30.609375 56 
Q 42.328125 56 49.015625 48.375 
Q 55.71875 40.765625 55.71875 27.296875 
Q 55.71875 13.875 49.015625 6.21875 
Q 42.328125 -1.421875 30.609375 -1.421875 
Q 18.84375 -1.421875 12.171875 6.21875 
Q 5.515625 13.875 5.515625 27.296875 
Q 5.515625 40.765625 12.171875 48.375 
Q 18.84375 56 30.609375 56 
z
" id="DejaVuSans-111"/>
      <path d="M 52 44.1875 
Q 55.375 50.25 60.0625 53.125 
Q 64.75 56 71.09375 56 
Q 79.640625 56 84.28125 50.015625 
Q 88.921875 44.046875 88.921875 33.015625 
L 88.921875 0 
L 79.890625 0 
L 79.890625 32.71875 
Q 79.890625 40.578125 77.09375 44.375 
Q 74.3125 48.1875 68.609375 48.1875 
Q 61.625 48.1875 57.5625 43.546875 
Q 53.515625 38.921875 53.515625 30.90625 
L 53.515625 0 
L 44.484375 0 
L 44.484375 32.71875 
Q 44.484375 40.625 41.703125 44.40625 
Q 38.921875 48.1875 33.109375 48.1875 
Q 26.21875 48.1875 22.15625 43.53125 
Q 18.109375 38.875 18.109375 30.90625 
L 18.109375 0 
L 9.078125 0 
L 9.078125 54.6875 
L 18.109375 54.6875 
L 18.109375 46.1875 
Q 21.1875 51.21875 25.484375 53.609375 
Q 29.78125 56 35.6875 56 
Q 41.65625 56 45.828125 52.96875 
Q 50 49.953125 52 44.1875 
z
" id="DejaVuSans-109"/>
      <path d="M 8.5 21.578125 
L 8.5 54.6875 
L 17.484375 54.6875 
L 17.484375 21.921875 
Q 17.484375 14.15625 20.5 10.265625 
Q 23.53125 6.390625 29.59375 6.390625 
Q 36.859375 6.390625 41.078125 11.03125 
Q 45.3125 15.671875 45.3125 23.6875 
L 45.3125 54.6875 
L 54.296875 54.6875 
L 54.296875 0 
L 45.3125 0 
L 45.3125 8.40625 
Q 42.046875 3.421875 37.71875 1 
Q 33.40625 -1.421875 27.6875 -1.421875 
Q 18.265625 -1.421875 13.375 4.4375 
Q 8.5 10.296875 8.5 21.578125 
z
M 31.109375 56 
z
" id="DejaVuSans-117"/>
      <path d="M 54.890625 33.015625 
L 54.890625 0 
L 45.90625 0 
L 45.90625 32.71875 
Q 45.90625 40.484375 42.875 44.328125 
Q 39.84375 48.1875 33.796875 48.1875 
Q 26.515625 48.1875 22.3125 43.546875 
Q 18.109375 38.921875 18.109375 30.90625 
L 18.109375 0 
L 9.078125 0 
L 9.078125 54.6875 
L 18.109375 54.6875 
L 18.109375 46.1875 
Q 21.34375 51.125 25.703125 53.5625 
Q 30.078125 56 35.796875 56 
Q 45.21875 56 50.046875 50.171875 
Q 54.890625 44.34375 54.890625 33.015625 
z
" id="DejaVuSans-110"/>
      <path d="M 9.421875 54.6875 
L 18.40625 54.6875 
L 18.40625 0 
L 9.421875 0 
z
M 9.421875 75.984375 
L 18.40625 75.984375 
L 18.40625 64.59375 
L 9.421875 64.59375 
z
" id="DejaVuSans-105"/>
      <path d="M 48.78125 52.59375 
L 48.78125 44.1875 
Q 44.96875 46.296875 41.140625 47.34375 
Q 37.3125 48.390625 33.40625 48.390625 
Q 24.65625 48.390625 19.8125 42.84375 
Q 14.984375 37.3125 14.984375 27.296875 
Q 14.984375 17.28125 19.8125 11.734375 
Q 24.65625 6.203125 33.40625 6.203125 
Q 37.3125 6.203125 41.140625 7.25 
Q 44.96875 8.296875 48.78125 10.40625 
L 48.78125 2.09375 
Q 45.015625 0.34375 40.984375 -0.53125 
Q 36.96875 -1.421875 32.421875 -1.421875 
Q 20.0625 -1.421875 12.78125 6.34375 
Q 5.515625 14.109375 5.515625 27.296875 
Q 5.515625 40.671875 12.859375 48.328125 
Q 20.21875 56 33.015625 56 
Q 37.15625 56 41.109375 55.140625 
Q 45.0625 54.296875 48.78125 52.59375 
z
" id="DejaVuSans-99"/>
      <path d="M 18.3125 70.21875 
L 18.3125 54.6875 
L 36.8125 54.6875 
L 36.8125 47.703125 
L 18.3125 47.703125 
L 18.3125 18.015625 
Q 18.3125 11.328125 20.140625 9.421875 
Q 21.96875 7.515625 27.59375 7.515625 
L 36.8125 7.515625 
L 36.8125 0 
L 27.59375 0 
Q 17.1875 0 13.234375 3.875 
Q 9.28125 7.765625 9.28125 18.015625 
L 9.28125 47.703125 
L 2.6875 47.703125 
L 2.6875 54.6875 
L 9.28125 54.6875 
L 9.28125 70.21875 
z
" id="DejaVuSans-116"/>
      <path id="DejaVuSans-32"/>
      <path d="M 56.203125 29.59375 
L 56.203125 25.203125 
L 14.890625 25.203125 
Q 15.484375 15.921875 20.484375 11.0625 
Q 25.484375 6.203125 34.421875 6.203125 
Q 39.59375 6.203125 44.453125 7.46875 
Q 49.3125 8.734375 54.109375 11.28125 
L 54.109375 2.78125 
Q 49.265625 0.734375 44.1875 -0.34375 
Q 39.109375 -1.421875 33.890625 -1.421875 
Q 20.796875 -1.421875 13.15625 6.1875 
Q 5.515625 13.8125 5.515625 26.8125 
Q 5.515625 40.234375 12.765625 48.109375 
Q 20.015625 56 32.328125 56 
Q 43.359375 56 49.78125 48.890625 
Q 56.203125 41.796875 56.203125 29.59375 
z
M 47.21875 32.234375 
Q 47.125 39.59375 43.09375 43.984375 
Q 39.0625 48.390625 32.421875 48.390625 
Q 24.90625 48.390625 20.390625 44.140625 
Q 15.875 39.890625 15.1875 32.171875 
z
" id="DejaVuSans-101"/>
      <path d="M 31 75.875 
Q 24.46875 64.65625 21.28125 53.65625 
Q 18.109375 42.671875 18.109375 31.390625 
Q 18.109375 20.125 21.3125 9.0625 
Q 24.515625 -2 31 -13.1875 
L 23.1875 -13.1875 
Q 15.875 -1.703125 12.234375 9.375 
Q 8.59375 20.453125 8.59375 31.390625 
Q 8.59375 42.28125 12.203125 53.3125 
Q 15.828125 64.359375 23.1875 75.875 
z
" id="DejaVuSans-40"/>
      <path d="M 8.015625 75.875 
L 15.828125 75.875 
Q 23.140625 64.359375 26.78125 53.3125 
Q 30.421875 42.28125 30.421875 31.390625 
Q 30.421875 20.453125 26.78125 9.375 
Q 23.140625 -1.703125 15.828125 -13.1875 
L 8.015625 -13.1875 
Q 14.5 -2 17.703125 9.0625 
Q 20.90625 20.125 20.90625 31.390625 
Q 20.90625 42.671875 17.703125 53.65625 
Q 14.5 64.65625 8.015625 75.875 
z
" id="DejaVuSans-41"/>
     </defs>
     <g transform="translate(21.692187 137.180469)rotate(-90)scale(0.1 -0.1)">
      <use xlink:href="#DejaVuSans-67"/>
      <use x="69.824219" xlink:href="#DejaVuSans-111"/>
      <use x="131.005859" xlink:href="#DejaVuSans-109"/>
      <use x="228.417969" xlink:href="#DejaVuSans-109"/>
      <use x="325.830078" xlink:href="#DejaVuSans-117"/>
      <use x="389.208984" xlink:href="#DejaVuSans-110"/>
      <use x="452.587891" xlink:href="#DejaVuSans-105"/>
      <use x="480.371094" xlink:href="#DejaVuSans-99"/>
      <use x="535.351562" xlink:href="#DejaVuSans-97"/>
      <use x="596.630859" xlink:href="#DejaVuSans-116"/>
      <use x="635.839844" xlink:href="#DejaVuSans-105"/>
      <use x="663.623047" xlink:href="#DejaVuSans-111"/>
      <use x="724.804688" xlink:href="#DejaVuSans-110"/>
      <use x="788.183594" xlink:href="#DejaVuSans-32"/>
      <use x="819.970703" xlink:href="#DejaVuSans-84"/>
      <use x="881.007812" xlink:href="#DejaVuSans-105"/>
      <use x="908.791016" xlink:href="#DejaVuSans-109"/>
      <use x="1006.203125" xlink:href="#DejaVuSans-101"/>
      <use x="1067.726562" xlink:href="#DejaVuSans-32"/>
      <use x="1099.513672" xlink:href="#DejaVuSans-40"/>
      <use x="1138.527344" xlink:href="#DejaVuSans-115"/>
      <use x="1190.626953" xlink:href="#DejaVuSans-41"/>
     </g>
    </g>
   </g>
   <g id="patch_153">
    <path d="M 50.675 124.6 
L 50.675 26.8 
" style="fill:none;stroke:#000000;stroke-linecap:square;stroke-linejoin:miter;stroke-width:0.8;"/>
   </g>
   <g id="patch_154">
    <path d="M 235.6 124.6 
L 235.6 26.8 
" style="fill:none;stroke:#000000;stroke-linecap:square;stroke-linejoin:miter;stroke-width:0.8;"/>
   </g>
   <g id="patch_155">
    <path d="M 50.675 124.6 
L 235.6 124.6 
" style="fill:none;stroke:#000000;stroke-linecap:square;stroke-linejoin:miter;stroke-width:0.8;"/>
   </g>
   <g id="patch_156">
    <path d="M 50.675 26.8 
L 235.6 26.8 
" style="fill:none;stroke:#000000;stroke-linecap:square;stroke-linejoin:miter;stroke-width:0.8;"/>
   </g>
   <g id="text_7">
    <!-- Simulate -->
    <defs>
     <path d="M 53.515625 70.515625 
L 53.515625 60.890625 
Q 47.90625 63.578125 42.921875 64.890625 
Q 37.9375 66.21875 33.296875 66.21875 
Q 25.25 66.21875 20.875 63.09375 
Q 16.5 59.96875 16.5 54.203125 
Q 16.5 49.359375 19.40625 46.890625 
Q 22.3125 44.4375 30.421875 42.921875 
L 36.375 41.703125 
Q 47.40625 39.59375 52.65625 34.296875 
Q 57.90625 29 57.90625 20.125 
Q 57.90625 9.515625 50.796875 4.046875 
Q 43.703125 -1.421875 29.984375 -1.421875 
Q 24.8125 -1.421875 18.96875 -0.25 
Q 13.140625 0.921875 6.890625 3.21875 
L 6.890625 13.375 
Q 12.890625 10.015625 18.65625 8.296875 
Q 24.421875 6.59375 29.984375 6.59375 
Q 38.421875 6.59375 43.015625 9.90625 
Q 47.609375 13.234375 47.609375 19.390625 
Q 47.609375 24.75 44.3125 27.78125 
Q 41.015625 30.8125 33.5 32.328125 
L 27.484375 33.5 
Q 16.453125 35.6875 11.515625 40.375 
Q 6.59375 45.0625 6.59375 53.421875 
Q 6.59375 63.09375 13.40625 68.65625 
Q 20.21875 74.21875 32.171875 74.21875 
Q 37.3125 74.21875 42.625 73.28125 
Q 47.953125 72.359375 53.515625 70.515625 
z
" id="DejaVuSans-83"/>
     <path d="M 9.421875 75.984375 
L 18.40625 75.984375 
L 18.40625 0 
L 9.421875 0 
z
" id="DejaVuSans-108"/>
    </defs>
    <g transform="translate(116.626875 20.8)scale(0.12 -0.12)">
     <use xlink:href="#DejaVuSans-83"/>
     <use x="63.476562" xlink:href="#DejaVuSans-105"/>
     <use x="91.259766" xlink:href="#DejaVuSans-109"/>
     <use x="188.671875" xlink:href="#DejaVuSans-117"/>
     <use x="252.050781" xlink:href="#DejaVuSans-108"/>
     <use x="279.833984" xlink:href="#DejaVuSans-97"/>
     <use x="341.113281" xlink:href="#DejaVuSans-116"/>
     <use x="380.322266" xlink:href="#DejaVuSans-101"/>
    </g>
   </g>
   <g id="legend_1">
    <g id="patch_157">
     <path d="M 118.507812 108.190625 
L 228.6 108.190625 
Q 230.6 108.190625 230.6 106.190625 
L 230.6 33.8 
Q 230.6 31.8 228.6 31.8 
L 118.507812 31.8 
Q 116.507812 31.8 116.507812 33.8 
L 116.507812 106.190625 
Q 116.507812 108.190625 118.507812 108.190625 
z
" style="fill:#ffffff;opacity:0.8;stroke:#cccccc;stroke-linejoin:miter;"/>
    </g>
    <g id="patch_158">
     <path d="M 120.507812 43.398437 
L 140.507812 43.398437 
L 140.507812 36.398437 
L 120.507812 36.398437 
z
" style="fill:#1f77b4;"/>
    </g>
    <g id="text_8">
     <!-- client-&gt;server -->
     <defs>
      <path d="M 4.890625 31.390625 
L 31.203125 31.390625 
L 31.203125 23.390625 
L 4.890625 23.390625 
z
" id="DejaVuSans-45"/>
      <path d="M 10.59375 49.21875 
L 10.59375 58.109375 
L 73.1875 35.40625 
L 73.1875 27.296875 
L 10.59375 4.59375 
L 10.59375 13.484375 
L 60.890625 31.296875 
z
" id="DejaVuSans-62"/>
      <path d="M 41.109375 46.296875 
Q 39.59375 47.171875 37.8125 47.578125 
Q 36.03125 48 33.890625 48 
Q 26.265625 48 22.1875 43.046875 
Q 18.109375 38.09375 18.109375 28.8125 
L 18.109375 0 
L 9.078125 0 
L 9.078125 54.6875 
L 18.109375 54.6875 
L 18.109375 46.1875 
Q 20.953125 51.171875 25.484375 53.578125 
Q 30.03125 56 36.53125 56 
Q 37.453125 56 38.578125 55.875 
Q 39.703125 55.765625 41.0625 55.515625 
z
" id="DejaVuSans-114"/>
      <path d="M 2.984375 54.6875 
L 12.5 54.6875 
L 29.59375 8.796875 
L 46.6875 54.6875 
L 56.203125 54.6875 
L 35.6875 0 
L 23.484375 0 
z
" id="DejaVuSans-118"/>
     </defs>
     <g transform="translate(148.507812 43.398437)scale(0.1 -0.1)">
      <use xlink:href="#DejaVuSans-99"/>
      <use x="54.980469" xlink:href="#DejaVuSans-108"/>
      <use x="82.763672" xlink:href="#DejaVuSans-105"/>
      <use x="110.546875" xlink:href="#DejaVuSans-101"/>
      <use x="172.070312" xlink:href="#DejaVuSans-110"/>
      <use x="235.449219" xlink:href="#DejaVuSans-116"/>
      <use x="274.658203" xlink:href="#DejaVuSans-45"/>
      <use x="310.742188" xlink:href="#DejaVuSans-62"/>
      <use x="394.53125" xlink:href="#DejaVuSans-115"/>
      <use x="446.630859" xlink:href="#DejaVuSans-101"/>
      <use x="508.154297" xlink:href="#DejaVuSans-114"/>
      <use x="549.267578" xlink:href="#DejaVuSans-118"/>
      <use x="608.447266" xlink:href="#DejaVuSans-101"/>
      <use x="669.970703" xlink:href="#DejaVuSans-114"/>
     </g>
    </g>
    <g id="patch_159">
     <path d="M 120.507812 58.076562 
L 140.507812 58.076562 
L 140.507812 51.076562 
L 120.507812 51.076562 
z
" style="fill:#ff7f0e;"/>
    </g>
    <g id="text_9">
     <!-- server-&gt;worker -->
     <defs>
      <path d="M 4.203125 54.6875 
L 13.1875 54.6875 
L 24.421875 12.015625 
L 35.59375 54.6875 
L 46.1875 54.6875 
L 57.421875 12.015625 
L 68.609375 54.6875 
L 77.59375 54.6875 
L 63.28125 0 
L 52.6875 0 
L 40.921875 44.828125 
L 29.109375 0 
L 18.5 0 
z
" id="DejaVuSans-119"/>
     </defs>
     <g transform="translate(148.507812 58.076562)scale(0.1 -0.1)">
      <use xlink:href="#DejaVuSans-115"/>
      <use x="52.099609" xlink:href="#DejaVuSans-101"/>
      <use x="113.623047" xlink:href="#DejaVuSans-114"/>
      <use x="154.736328" xlink:href="#DejaVuSans-118"/>
      <use x="213.916016" xlink:href="#DejaVuSans-101"/>
      <use x="275.439453" xlink:href="#DejaVuSans-114"/>
      <use x="316.458984" xlink:href="#DejaVuSans-45"/>
      <use x="352.542969" xlink:href="#DejaVuSans-62"/>
      <use x="436.332031" xlink:href="#DejaVuSans-119"/>
      <use x="518.119141" xlink:href="#DejaVuSans-111"/>
      <use x="579.300781" xlink:href="#DejaVuSans-114"/>
      <use x="620.414062" xlink:href="#DejaVuSans-107"/>
      <use x="678.277344" xlink:href="#DejaVuSans-101"/>
      <use x="739.800781" xlink:href="#DejaVuSans-114"/>
     </g>
    </g>
    <g id="patch_160">
     <path d="M 120.507812 72.754687 
L 140.507812 72.754687 
L 140.507812 65.754687 
L 120.507812 65.754687 
z
" style="fill:#2ca02c;"/>
    </g>
    <g id="text_10">
     <!-- worker-&gt;server -->
     <g transform="translate(148.507812 72.754687)scale(0.1 -0.1)">
      <use xlink:href="#DejaVuSans-119"/>
      <use x="81.787109" xlink:href="#DejaVuSans-111"/>
      <use x="142.96875" xlink:href="#DejaVuSans-114"/>
      <use x="184.082031" xlink:href="#DejaVuSans-107"/>
      <use x="241.945312" xlink:href="#DejaVuSans-101"/>
      <use x="303.46875" xlink:href="#DejaVuSans-114"/>
      <use x="344.488281" xlink:href="#DejaVuSans-45"/>
      <use x="380.572266" xlink:href="#DejaVuSans-62"/>
      <use x="464.361328" xlink:href="#DejaVuSans-115"/>
      <use x="516.460938" xlink:href="#DejaVuSans-101"/>
      <use x="577.984375" xlink:href="#DejaVuSans-114"/>
      <use x="619.097656" xlink:href="#DejaVuSans-118"/>
      <use x="678.277344" xlink:href="#DejaVuSans-101"/>
      <use x="739.800781" xlink:href="#DejaVuSans-114"/>
     </g>
    </g>
    <g id="patch_161">
     <path d="M 120.507812 87.432812 
L 140.507812 87.432812 
L 140.507812 80.432812 
L 120.507812 80.432812 
z
" style="fill:#d62728;"/>
    </g>
    <g id="text_11">
     <!-- server-&gt;client -->
     <g transform="translate(148.507812 87.432812)scale(0.1 -0.1)">
      <use xlink:href="#DejaVuSans-115"/>
      <use x="52.099609" xlink:href="#DejaVuSans-101"/>
      <use x="113.623047" xlink:href="#DejaVuSans-114"/>
      <use x="154.736328" xlink:href="#DejaVuSans-118"/>
      <use x="213.916016" xlink:href="#DejaVuSans-101"/>
      <use x="275.439453" xlink:href="#DejaVuSans-114"/>
      <use x="316.458984" xlink:href="#DejaVuSans-45"/>
      <use x="352.542969" xlink:href="#DejaVuSans-62"/>
      <use x="436.332031" xlink:href="#DejaVuSans-99"/>
      <use x="491.3125" xlink:href="#DejaVuSans-108"/>
      <use x="519.095703" xlink:href="#DejaVuSans-105"/>
      <use x="546.878906" xlink:href="#DejaVuSans-101"/>
      <use x="608.402344" xlink:href="#DejaVuSans-110"/>
      <use x="671.78125" xlink:href="#DejaVuSans-116"/>
     </g>
    </g>
    <g id="patch_162">
     <path d="M 120.507812 102.110937 
L 140.507812 102.110937 
L 140.507812 95.110937 
L 120.507812 95.110937 
z
" style="fill:#9467bd;"/>
    </g>
    <g id="text_12">
     <!-- serialization -->
     <defs>
      <path d="M 5.515625 54.6875 
L 48.1875 54.6875 
L 48.1875 46.484375 
L 14.40625 7.171875 
L 48.1875 7.171875 
L 48.1875 0 
L 4.296875 0 
L 4.296875 8.203125 
L 38.09375 47.515625 
L 5.515625 47.515625 
z
" id="DejaVuSans-122"/>
     </defs>
     <g transform="translate(148.507812 102.110937)scale(0.1 -0.1)">
      <use xlink:href="#DejaVuSans-115"/>
      <use x="52.099609" xlink:href="#DejaVuSans-101"/>
      <use x="113.623047" xlink:href="#DejaVuSans-114"/>
      <use x="154.736328" xlink:href="#DejaVuSans-105"/>
      <use x="182.519531" xlink:href="#DejaVuSans-97"/>
      <use x="243.798828" xlink:href="#DejaVuSans-108"/>
      <use x="271.582031" xlink:href="#DejaVuSans-105"/>
      <use x="299.365234" xlink:href="#DejaVuSans-122"/>
      <use x="351.855469" xlink:href="#DejaVuSans-97"/>
      <use x="413.134766" xlink:href="#DejaVuSans-116"/>
      <use x="452.34375" xlink:href="#DejaVuSans-105"/>
      <use x="480.126953" xlink:href="#DejaVuSans-111"/>
      <use x="541.308594" xlink:href="#DejaVuSans-110"/>
     </g>
    </g>
   </g>
  </g>
  <g id="axes_2">
   <g id="patch_163">
    <path d="M 272.275 124.6 
L 457.2 124.6 
L 457.2 26.8 
L 272.275 26.8 
z
" style="fill:#ffffff;"/>
   </g>
   <g id="patch_164">
    <path clip-path="url(#pd39889b0c9)" d="M 280.680682 124.6 
L 303.86877 124.6 
L 303.86877 118.572696 
L 280.680682 118.572696 
z
" style="fill:#1f77b4;"/>
   </g>
   <g id="patch_165">
    <path clip-path="url(#pd39889b0c9)" d="M 309.665792 124.6 
L 332.853879 124.6 
L 332.853879 118.074393 
L 309.665792 118.074393 
z
" style="fill:#1f77b4;"/>
   </g>
   <g id="patch_166">
    <path clip-path="url(#pd39889b0c9)" d="M 338.650901 124.6 
L 361.838989 124.6 
L 361.838989 123.63557 
L 338.650901 123.63557 
z
" style="fill:#1f77b4;"/>
   </g>
   <g id="patch_167">
    <path clip-path="url(#pd39889b0c9)" d="M 367.636011 124.6 
L 390.824099 124.6 
L 390.824099 124.062945 
L 367.636011 124.062945 
z
" style="fill:#1f77b4;"/>
   </g>
   <g id="patch_168">
    <path clip-path="url(#pd39889b0c9)" d="M 396.621121 124.6 
L 419.809208 124.6 
L 419.809208 124.063464 
L 396.621121 124.063464 
z
" style="fill:#1f77b4;"/>
   </g>
   <g id="patch_169">
    <path clip-path="url(#pd39889b0c9)" d="M 425.60623 124.6 
L 448.794318 124.6 
L 448.794318 123.848688 
L 425.60623 123.848688 
z
" style="fill:#1f77b4;"/>
   </g>
   <g id="patch_170">
    <path clip-path="url(#pd39889b0c9)" d="M 280.680682 118.572696 
L 303.86877 118.572696 
L 303.86877 35.196731 
L 280.680682 35.196731 
z
" style="fill:#ff7f0e;"/>
   </g>
   <g id="patch_171">
    <path clip-path="url(#pd39889b0c9)" d="M 309.665792 118.074393 
L 332.853879 118.074393 
L 332.853879 35.692119 
L 309.665792 35.692119 
z
" style="fill:#ff7f0e;"/>
   </g>
   <g id="patch_172">
    <path clip-path="url(#pd39889b0c9)" d="M 338.650901 123.63557 
L 361.838989 123.63557 
L 361.838989 121.311649 
L 338.650901 121.311649 
z
" style="fill:#ff7f0e;"/>
   </g>
   <g id="patch_173">
    <path clip-path="url(#pd39889b0c9)" d="M 367.636011 124.062945 
L 390.824099 124.062945 
L 390.824099 121.753531 
L 367.636011 121.753531 
z
" style="fill:#ff7f0e;"/>
   </g>
   <g id="patch_174">
    <path clip-path="url(#pd39889b0c9)" d="M 396.621121 124.063464 
L 419.809208 124.063464 
L 419.809208 113.151828 
L 396.621121 113.151828 
z
" style="fill:#ff7f0e;"/>
   </g>
   <g id="patch_175">
    <path clip-path="url(#pd39889b0c9)" d="M 425.60623 123.848688 
L 448.794318 123.848688 
L 448.794318 113.79684 
L 425.60623 113.79684 
z
" style="fill:#ff7f0e;"/>
   </g>
   <g id="patch_176">
    <path clip-path="url(#pd39889b0c9)" d="M 280.680682 35.196731 
L 303.86877 35.196731 
L 303.86877 34.10754 
L 280.680682 34.10754 
z
" style="fill:#2ca02c;"/>
   </g>
   <g id="patch_177">
    <path clip-path="url(#pd39889b0c9)" d="M 309.665792 35.692119 
L 332.853879 35.692119 
L 332.853879 33.617735 
L 309.665792 33.617735 
z
" style="fill:#2ca02c;"/>
   </g>
   <g id="patch_178">
    <path clip-path="url(#pd39889b0c9)" d="M 338.650901 121.311649 
L 361.838989 121.311649 
L 361.838989 119.253362 
L 338.650901 119.253362 
z
" style="fill:#2ca02c;"/>
   </g>
   <g id="patch_179">
    <path clip-path="url(#pd39889b0c9)" d="M 367.636011 121.753531 
L 390.824099 121.753531 
L 390.824099 120.288272 
L 367.636011 120.288272 
z
" style="fill:#2ca02c;"/>
   </g>
   <g id="patch_180">
    <path clip-path="url(#pd39889b0c9)" d="M 396.621121 113.151828 
L 419.809208 113.151828 
L 419.809208 110.243364 
L 396.621121 110.243364 
z
" style="fill:#2ca02c;"/>
   </g>
   <g id="patch_181">
    <path clip-path="url(#pd39889b0c9)" d="M 425.60623 113.79684 
L 448.794318 113.79684 
L 448.794318 111.036172 
L 425.60623 111.036172 
z
" style="fill:#2ca02c;"/>
   </g>
   <g id="patch_182">
    <path clip-path="url(#pd39889b0c9)" d="M 280.680682 34.10754 
L 303.86877 34.10754 
L 303.86877 33.290063 
L 280.680682 33.290063 
z
" style="fill:#d62728;"/>
   </g>
   <g id="patch_183">
    <path clip-path="url(#pd39889b0c9)" d="M 309.665792 33.617735 
L 332.853879 33.617735 
L 332.853879 32.887533 
L 309.665792 32.887533 
z
" style="fill:#d62728;"/>
   </g>
   <g id="patch_184">
    <path clip-path="url(#pd39889b0c9)" d="M 338.650901 119.253362 
L 361.838989 119.253362 
L 361.838989 118.600894 
L 338.650901 118.600894 
z
" style="fill:#d62728;"/>
   </g>
   <g id="patch_185">
    <path clip-path="url(#pd39889b0c9)" d="M 367.636011 120.288272 
L 390.824099 120.288272 
L 390.824099 119.666917 
L 367.636011 119.666917 
z
" style="fill:#d62728;"/>
   </g>
   <g id="patch_186">
    <path clip-path="url(#pd39889b0c9)" d="M 396.621121 110.243364 
L 419.809208 110.243364 
L 419.809208 109.364965 
L 396.621121 109.364965 
z
" style="fill:#d62728;"/>
   </g>
   <g id="patch_187">
    <path clip-path="url(#pd39889b0c9)" d="M 425.60623 111.036172 
L 448.794318 111.036172 
L 448.794318 110.170625 
L 425.60623 110.170625 
z
" style="fill:#d62728;"/>
   </g>
   <g id="patch_188">
    <path clip-path="url(#pd39889b0c9)" d="M 280.680682 33.290063 
L 303.86877 33.290063 
L 303.86877 32.47735 
L 280.680682 32.47735 
z
" style="fill:#9467bd;"/>
   </g>
   <g id="patch_189">
    <path clip-path="url(#pd39889b0c9)" d="M 309.665792 32.887533 
L 332.853879 32.887533 
L 332.853879 31.457143 
L 309.665792 31.457143 
z
" style="fill:#9467bd;"/>
   </g>
   <g id="patch_190">
    <path clip-path="url(#pd39889b0c9)" d="M 338.650901 118.600894 
L 361.838989 118.600894 
L 361.838989 117.162877 
L 338.650901 117.162877 
z
" style="fill:#9467bd;"/>
   </g>
   <g id="patch_191">
    <path clip-path="url(#pd39889b0c9)" d="M 367.636011 119.666917 
L 390.824099 119.666917 
L 390.824099 118.826032 
L 367.636011 118.826032 
z
" style="fill:#9467bd;"/>
   </g>
   <g id="patch_192">
    <path clip-path="url(#pd39889b0c9)" d="M 396.621121 109.364965 
L 419.809208 109.364965 
L 419.809208 108.532842 
L 396.621121 108.532842 
z
" style="fill:#9467bd;"/>
   </g>
   <g id="patch_193">
    <path clip-path="url(#pd39889b0c9)" d="M 425.60623 110.170625 
L 448.794318 110.170625 
L 448.794318 109.043389 
L 425.60623 109.043389 
z
" style="fill:#9467bd;"/>
   </g>
   <g id="patch_194">
    <path clip-path="url(#pd39889b0c9)" d="M 280.680682 124.6 
L 303.86877 124.6 
L 303.86877 32.47735 
L 280.680682 32.47735 
z
" style="fill:none;stroke:#000000;stroke-linejoin:miter;"/>
   </g>
   <g id="patch_195">
    <path clip-path="url(#pd39889b0c9)" d="M 309.665792 124.6 
L 332.853879 124.6 
L 332.853879 31.457143 
L 309.665792 31.457143 
z
" style="fill:none;stroke:#000000;stroke-linejoin:miter;"/>
   </g>
   <g id="patch_196">
    <path clip-path="url(#pd39889b0c9)" d="M 338.650901 124.6 
L 361.838989 124.6 
L 361.838989 117.162877 
L 338.650901 117.162877 
z
" style="fill:none;stroke:#000000;stroke-linejoin:miter;"/>
   </g>
   <g id="patch_197">
    <path clip-path="url(#pd39889b0c9)" d="M 367.636011 124.6 
L 390.824099 124.6 
L 390.824099 118.826032 
L 367.636011 118.826032 
z
" style="fill:none;stroke:#000000;stroke-linejoin:miter;"/>
   </g>
   <g id="patch_198">
    <path clip-path="url(#pd39889b0c9)" d="M 396.621121 124.6 
L 419.809208 124.6 
L 419.809208 108.532843 
L 396.621121 108.532843 
z
" style="fill:none;stroke:#000000;stroke-linejoin:miter;"/>
   </g>
   <g id="patch_199">
    <path clip-path="url(#pd39889b0c9)" d="M 425.60623 124.6 
L 448.794318 124.6 
L 448.794318 109.043389 
L 425.60623 109.043389 
z
" style="fill:none;stroke:#000000;stroke-linejoin:miter;"/>
   </g>
   <g id="matplotlib.axis_3">
    <g id="text_13">
     <!-- Task -->
     <g transform="translate(353.132031 136.198437)scale(0.1 -0.1)">
      <use xlink:href="#DejaVuSans-84"/>
      <use x="60.833984" xlink:href="#DejaVuSans-97"/>
      <use x="122.113281" xlink:href="#DejaVuSans-115"/>
      <use x="174.212891" xlink:href="#DejaVuSans-107"/>
     </g>
    </g>
   </g>
   <g id="matplotlib.axis_4">
    <g id="ytick_5">
     <g id="line2d_5">
      <g>
       <use style="stroke:#000000;stroke-width:0.8;" x="272.275" xlink:href="#m5d391fe24c" y="124.6"/>
      </g>
     </g>
     <g id="text_14">
      <!-- 0 -->
      <g transform="translate(258.9125 128.399219)scale(0.1 -0.1)">
       <use xlink:href="#DejaVuSans-48"/>
      </g>
     </g>
    </g>
    <g id="ytick_6">
     <g id="line2d_6">
      <g>
       <use style="stroke:#000000;stroke-width:0.8;" x="272.275" xlink:href="#m5d391fe24c" y="77.912812"/>
      </g>
     </g>
     <g id="text_15">
      <!-- 50 -->
      <g transform="translate(252.55 81.712031)scale(0.1 -0.1)">
       <use xlink:href="#DejaVuSans-53"/>
       <use x="63.623047" xlink:href="#DejaVuSans-48"/>
      </g>
     </g>
    </g>
    <g id="ytick_7">
     <g id="line2d_7">
      <g>
       <use style="stroke:#000000;stroke-width:0.8;" x="272.275" xlink:href="#m5d391fe24c" y="31.225625"/>
      </g>
     </g>
     <g id="text_16">
      <!-- 100 -->
      <g transform="translate(246.1875 35.024844)scale(0.1 -0.1)">
       <use xlink:href="#DejaVuSans-49"/>
       <use x="63.623047" xlink:href="#DejaVuSans-48"/>
       <use x="127.246094" xlink:href="#DejaVuSans-48"/>
      </g>
     </g>
    </g>
   </g>
   <g id="patch_200">
    <path d="M 272.275 124.6 
L 272.275 26.8 
" style="fill:none;stroke:#000000;stroke-linecap:square;stroke-linejoin:miter;stroke-width:0.8;"/>
   </g>
   <g id="patch_201">
    <path d="M 457.2 124.6 
L 457.2 26.8 
" style="fill:none;stroke:#000000;stroke-linecap:square;stroke-linejoin:miter;stroke-width:0.8;"/>
   </g>
   <g id="patch_202">
    <path d="M 272.275 124.6 
L 457.2 124.6 
" style="fill:none;stroke:#000000;stroke-linecap:square;stroke-linejoin:miter;stroke-width:0.8;"/>
   </g>
   <g id="patch_203">
    <path d="M 272.275 26.8 
L 457.2 26.8 
" style="fill:none;stroke:#000000;stroke-linecap:square;stroke-linejoin:miter;stroke-width:0.8;"/>
   </g>
   <g id="text_17">
    <!-- Updating Models -->
    <defs>
     <path d="M 8.6875 72.90625 
L 18.609375 72.90625 
L 18.609375 28.609375 
Q 18.609375 16.890625 22.84375 11.734375 
Q 27.09375 6.59375 36.625 6.59375 
Q 46.09375 6.59375 50.34375 11.734375 
Q 54.59375 16.890625 54.59375 28.609375 
L 54.59375 72.90625 
L 64.5 72.90625 
L 64.5 27.390625 
Q 64.5 13.140625 57.4375 5.859375 
Q 50.390625 -1.421875 36.625 -1.421875 
Q 22.796875 -1.421875 15.734375 5.859375 
Q 8.6875 13.140625 8.6875 27.390625 
z
" id="DejaVuSans-85"/>
     <path d="M 18.109375 8.203125 
L 18.109375 -20.796875 
L 9.078125 -20.796875 
L 9.078125 54.6875 
L 18.109375 54.6875 
L 18.109375 46.390625 
Q 20.953125 51.265625 25.265625 53.625 
Q 29.59375 56 35.59375 56 
Q 45.5625 56 51.78125 48.09375 
Q 58.015625 40.1875 58.015625 27.296875 
Q 58.015625 14.40625 51.78125 6.484375 
Q 45.5625 -1.421875 35.59375 -1.421875 
Q 29.59375 -1.421875 25.265625 0.953125 
Q 20.953125 3.328125 18.109375 8.203125 
z
M 48.6875 27.296875 
Q 48.6875 37.203125 44.609375 42.84375 
Q 40.53125 48.484375 33.40625 48.484375 
Q 26.265625 48.484375 22.1875 42.84375 
Q 18.109375 37.203125 18.109375 27.296875 
Q 18.109375 17.390625 22.1875 11.75 
Q 26.265625 6.109375 33.40625 6.109375 
Q 40.53125 6.109375 44.609375 11.75 
Q 48.6875 17.390625 48.6875 27.296875 
z
" id="DejaVuSans-112"/>
     <path d="M 45.40625 46.390625 
L 45.40625 75.984375 
L 54.390625 75.984375 
L 54.390625 0 
L 45.40625 0 
L 45.40625 8.203125 
Q 42.578125 3.328125 38.25 0.953125 
Q 33.9375 -1.421875 27.875 -1.421875 
Q 17.96875 -1.421875 11.734375 6.484375 
Q 5.515625 14.40625 5.515625 27.296875 
Q 5.515625 40.1875 11.734375 48.09375 
Q 17.96875 56 27.875 56 
Q 33.9375 56 38.25 53.625 
Q 42.578125 51.265625 45.40625 46.390625 
z
M 14.796875 27.296875 
Q 14.796875 17.390625 18.875 11.75 
Q 22.953125 6.109375 30.078125 6.109375 
Q 37.203125 6.109375 41.296875 11.75 
Q 45.40625 17.390625 45.40625 27.296875 
Q 45.40625 37.203125 41.296875 42.84375 
Q 37.203125 48.484375 30.078125 48.484375 
Q 22.953125 48.484375 18.875 42.84375 
Q 14.796875 37.203125 14.796875 27.296875 
z
" id="DejaVuSans-100"/>
     <path d="M 45.40625 27.984375 
Q 45.40625 37.75 41.375 43.109375 
Q 37.359375 48.484375 30.078125 48.484375 
Q 22.859375 48.484375 18.828125 43.109375 
Q 14.796875 37.75 14.796875 27.984375 
Q 14.796875 18.265625 18.828125 12.890625 
Q 22.859375 7.515625 30.078125 7.515625 
Q 37.359375 7.515625 41.375 12.890625 
Q 45.40625 18.265625 45.40625 27.984375 
z
M 54.390625 6.78125 
Q 54.390625 -7.171875 48.1875 -13.984375 
Q 42 -20.796875 29.203125 -20.796875 
Q 24.46875 -20.796875 20.265625 -20.09375 
Q 16.0625 -19.390625 12.109375 -17.921875 
L 12.109375 -9.1875 
Q 16.0625 -11.328125 19.921875 -12.34375 
Q 23.78125 -13.375 27.78125 -13.375 
Q 36.625 -13.375 41.015625 -8.765625 
Q 45.40625 -4.15625 45.40625 5.171875 
L 45.40625 9.625 
Q 42.625 4.78125 38.28125 2.390625 
Q 33.9375 0 27.875 0 
Q 17.828125 0 11.671875 7.65625 
Q 5.515625 15.328125 5.515625 27.984375 
Q 5.515625 40.671875 11.671875 48.328125 
Q 17.828125 56 27.875 56 
Q 33.9375 56 38.28125 53.609375 
Q 42.625 51.21875 45.40625 46.390625 
L 45.40625 54.6875 
L 54.390625 54.6875 
z
" id="DejaVuSans-103"/>
     <path d="M 9.8125 72.90625 
L 24.515625 72.90625 
L 43.109375 23.296875 
L 61.8125 72.90625 
L 76.515625 72.90625 
L 76.515625 0 
L 66.890625 0 
L 66.890625 64.015625 
L 48.09375 14.015625 
L 38.1875 14.015625 
L 19.390625 64.015625 
L 19.390625 0 
L 9.8125 0 
z
" id="DejaVuSans-77"/>
    </defs>
    <g transform="translate(314.372187 20.8)scale(0.12 -0.12)">
     <use xlink:href="#DejaVuSans-85"/>
     <use x="73.193359" xlink:href="#DejaVuSans-112"/>
     <use x="136.669922" xlink:href="#DejaVuSans-100"/>
     <use x="200.146484" xlink:href="#DejaVuSans-97"/>
     <use x="261.425781" xlink:href="#DejaVuSans-116"/>
     <use x="300.634766" xlink:href="#DejaVuSans-105"/>
     <use x="328.417969" xlink:href="#DejaVuSans-110"/>
     <use x="391.796875" xlink:href="#DejaVuSans-103"/>
     <use x="455.273438" xlink:href="#DejaVuSans-32"/>
     <use x="487.060547" xlink:href="#DejaVuSans-77"/>
     <use x="573.339844" xlink:href="#DejaVuSans-111"/>
     <use x="634.521484" xlink:href="#DejaVuSans-100"/>
     <use x="697.998047" xlink:href="#DejaVuSans-101"/>
     <use x="759.521484" xlink:href="#DejaVuSans-108"/>
     <use x="787.304688" xlink:href="#DejaVuSans-115"/>
    </g>
   </g>
  </g>
  <g id="axes_3">
   <g id="patch_204">
    <path d="M 50.675 263.2 
L 235.6 263.2 
L 235.6 165.4 
L 50.675 165.4 
z
" style="fill:#ffffff;"/>
   </g>
   <g id="patch_205">
    <path clip-path="url(#p4a37d48b87)" d="M 59.080682 263.2 
L 78.858757 263.2 
L 78.858757 262.011799 
L 59.080682 262.011799 
z
" style="fill:#1f77b4;"/>
   </g>
   <g id="patch_206">
    <path clip-path="url(#p4a37d48b87)" d="M 83.803275 263.2 
L 103.58135 263.2 
L 103.58135 262.309564 
L 83.803275 262.309564 
z
" style="fill:#1f77b4;"/>
   </g>
   <g id="patch_207">
    <path clip-path="url(#p4a37d48b87)" d="M 108.525869 263.2 
L 128.303944 263.2 
L 128.303944 262.224672 
L 108.525869 262.224672 
z
" style="fill:#1f77b4;"/>
   </g>
   <g id="patch_208">
    <path clip-path="url(#p4a37d48b87)" d="M 133.248463 263.2 
L 153.026537 263.2 
L 153.026537 262.334737 
L 133.248463 262.334737 
z
" style="fill:#1f77b4;"/>
   </g>
   <g id="patch_209">
    <path clip-path="url(#p4a37d48b87)" d="M 157.971056 263.2 
L 177.749131 263.2 
L 177.749131 262.182045 
L 157.971056 262.182045 
z
" style="fill:#1f77b4;"/>
   </g>
   <g id="patch_210">
    <path clip-path="url(#p4a37d48b87)" d="M 182.69365 263.2 
L 202.471725 263.2 
L 202.471725 260.777296 
L 182.69365 260.777296 
z
" style="fill:#1f77b4;"/>
   </g>
   <g id="patch_211">
    <path clip-path="url(#p4a37d48b87)" d="M 207.416243 263.2 
L 227.194318 263.2 
L 227.194318 262.209792 
L 207.416243 262.209792 
z
" style="fill:#1f77b4;"/>
   </g>
   <g id="patch_212">
    <path clip-path="url(#p4a37d48b87)" d="M 59.080682 262.011799 
L 78.858757 262.011799 
L 78.858757 187.50389 
L 59.080682 187.50389 
z
" style="fill:#ff7f0e;"/>
   </g>
   <g id="patch_213">
    <path clip-path="url(#p4a37d48b87)" d="M 83.803275 262.309564 
L 103.58135 262.309564 
L 103.58135 258.22599 
L 83.803275 258.22599 
z
" style="fill:#ff7f0e;"/>
   </g>
   <g id="patch_214">
    <path clip-path="url(#p4a37d48b87)" d="M 108.525869 262.224672 
L 128.303944 262.224672 
L 128.303944 255.386322 
L 108.525869 255.386322 
z
" style="fill:#ff7f0e;"/>
   </g>
   <g id="patch_215">
    <path clip-path="url(#p4a37d48b87)" d="M 133.248463 262.334737 
L 153.026537 262.334737 
L 153.026537 254.243795 
L 133.248463 254.243795 
z
" style="fill:#ff7f0e;"/>
   </g>
   <g id="patch_216">
    <path clip-path="url(#p4a37d48b87)" d="M 157.971056 262.182045 
L 177.749131 262.182045 
L 177.749131 254.017538 
L 157.971056 254.017538 
z
" style="fill:#ff7f0e;"/>
   </g>
   <g id="patch_217">
    <path clip-path="url(#p4a37d48b87)" d="M 182.69365 260.777296 
L 202.471725 260.777296 
L 202.471725 256.06179 
L 182.69365 256.06179 
z
" style="fill:#ff7f0e;"/>
   </g>
   <g id="patch_218">
    <path clip-path="url(#p4a37d48b87)" d="M 207.416243 262.209792 
L 227.194318 262.209792 
L 227.194318 253.255177 
L 207.416243 253.255177 
z
" style="fill:#ff7f0e;"/>
   </g>
   <g id="patch_219">
    <path clip-path="url(#p4a37d48b87)" d="M 59.080682 187.50389 
L 78.858757 187.50389 
L 78.858757 185.191107 
L 59.080682 185.191107 
z
" style="fill:#2ca02c;"/>
   </g>
   <g id="patch_220">
    <path clip-path="url(#p4a37d48b87)" d="M 83.803275 258.22599 
L 103.58135 258.22599 
L 103.58135 255.558194 
L 83.803275 255.558194 
z
" style="fill:#2ca02c;"/>
   </g>
   <g id="patch_221">
    <path clip-path="url(#p4a37d48b87)" d="M 108.525869 255.386322 
L 128.303944 255.386322 
L 128.303944 252.958742 
L 108.525869 252.958742 
z
" style="fill:#2ca02c;"/>
   </g>
   <g id="patch_222">
    <path clip-path="url(#p4a37d48b87)" d="M 133.248463 254.243795 
L 153.026537 254.243795 
L 153.026537 251.798354 
L 133.248463 251.798354 
z
" style="fill:#2ca02c;"/>
   </g>
   <g id="patch_223">
    <path clip-path="url(#p4a37d48b87)" d="M 157.971056 254.017538 
L 177.749131 254.017538 
L 177.749131 248.871061 
L 157.971056 248.871061 
z
" style="fill:#2ca02c;"/>
   </g>
   <g id="patch_224">
    <path clip-path="url(#p4a37d48b87)" d="M 182.69365 256.06179 
L 202.471725 256.06179 
L 202.471725 253.358853 
L 182.69365 253.358853 
z
" style="fill:#2ca02c;"/>
   </g>
   <g id="patch_225">
    <path clip-path="url(#p4a37d48b87)" d="M 207.416243 253.255177 
L 227.194318 253.255177 
L 227.194318 247.639517 
L 207.416243 247.639517 
z
" style="fill:#2ca02c;"/>
   </g>
   <g id="patch_226">
    <path clip-path="url(#p4a37d48b87)" d="M 59.080682 185.191107 
L 78.858757 185.191107 
L 78.858757 183.375303 
L 59.080682 183.375303 
z
" style="fill:#d62728;"/>
   </g>
   <g id="patch_227">
    <path clip-path="url(#p4a37d48b87)" d="M 83.803275 255.558194 
L 103.58135 255.558194 
L 103.58135 253.741149 
L 83.803275 253.741149 
z
" style="fill:#d62728;"/>
   </g>
   <g id="patch_228">
    <path clip-path="url(#p4a37d48b87)" d="M 108.525869 252.958742 
L 128.303944 252.958742 
L 128.303944 251.09368 
L 108.525869 251.09368 
z
" style="fill:#d62728;"/>
   </g>
   <g id="patch_229">
    <path clip-path="url(#p4a37d48b87)" d="M 133.248463 251.798354 
L 153.026537 251.798354 
L 153.026537 250.134384 
L 133.248463 250.134384 
z
" style="fill:#d62728;"/>
   </g>
   <g id="patch_230">
    <path clip-path="url(#p4a37d48b87)" d="M 157.971056 248.871061 
L 177.749131 248.871061 
L 177.749131 247.002835 
L 157.971056 247.002835 
z
" style="fill:#d62728;"/>
   </g>
   <g id="patch_231">
    <path clip-path="url(#p4a37d48b87)" d="M 182.69365 253.358853 
L 202.471725 253.358853 
L 202.471725 251.589381 
L 182.69365 251.589381 
z
" style="fill:#d62728;"/>
   </g>
   <g id="patch_232">
    <path clip-path="url(#p4a37d48b87)" d="M 207.416243 247.639517 
L 227.194318 247.639517 
L 227.194318 245.789857 
L 207.416243 245.789857 
z
" style="fill:#d62728;"/>
   </g>
   <g id="patch_233">
    <path clip-path="url(#p4a37d48b87)" d="M 59.080682 183.375303 
L 78.858757 183.375303 
L 78.858757 170.057143 
L 59.080682 170.057143 
z
" style="fill:#9467bd;"/>
   </g>
   <g id="patch_234">
    <path clip-path="url(#p4a37d48b87)" d="M 83.803275 253.741149 
L 103.58135 253.741149 
L 103.58135 239.035657 
L 83.803275 239.035657 
z
" style="fill:#9467bd;"/>
   </g>
   <g id="patch_235">
    <path clip-path="url(#p4a37d48b87)" d="M 108.525869 251.09368 
L 128.303944 251.09368 
L 128.303944 232.384354 
L 108.525869 232.384354 
z
" style="fill:#9467bd;"/>
   </g>
   <g id="patch_236">
    <path clip-path="url(#p4a37d48b87)" d="M 133.248463 250.134384 
L 153.026537 250.134384 
L 153.026537 237.571559 
L 133.248463 237.571559 
z
" style="fill:#9467bd;"/>
   </g>
   <g id="patch_237">
    <path clip-path="url(#p4a37d48b87)" d="M 157.971056 247.002835 
L 177.749131 247.002835 
L 177.749131 231.133412 
L 157.971056 231.133412 
z
" style="fill:#9467bd;"/>
   </g>
   <g id="patch_238">
    <path clip-path="url(#p4a37d48b87)" d="M 182.69365 251.589381 
L 202.471725 251.589381 
L 202.471725 242.824692 
L 182.69365 242.824692 
z
" style="fill:#9467bd;"/>
   </g>
   <g id="patch_239">
    <path clip-path="url(#p4a37d48b87)" d="M 207.416243 245.789857 
L 227.194318 245.789857 
L 227.194318 232.442904 
L 207.416243 232.442904 
z
" style="fill:#9467bd;"/>
   </g>
   <g id="patch_240">
    <path clip-path="url(#p4a37d48b87)" d="M 59.080682 263.2 
L 78.858757 263.2 
L 78.858757 170.057143 
L 59.080682 170.057143 
z
" style="fill:none;stroke:#000000;stroke-linejoin:miter;"/>
   </g>
   <g id="patch_241">
    <path clip-path="url(#p4a37d48b87)" d="M 83.803275 263.2 
L 103.58135 263.2 
L 103.58135 239.035657 
L 83.803275 239.035657 
z
" style="fill:none;stroke:#000000;stroke-linejoin:miter;"/>
   </g>
   <g id="patch_242">
    <path clip-path="url(#p4a37d48b87)" d="M 108.525869 263.2 
L 128.303944 263.2 
L 128.303944 232.384354 
L 108.525869 232.384354 
z
" style="fill:none;stroke:#000000;stroke-linejoin:miter;"/>
   </g>
   <g id="patch_243">
    <path clip-path="url(#p4a37d48b87)" d="M 133.248463 263.2 
L 153.026537 263.2 
L 153.026537 237.571559 
L 133.248463 237.571559 
z
" style="fill:none;stroke:#000000;stroke-linejoin:miter;"/>
   </g>
   <g id="patch_244">
    <path clip-path="url(#p4a37d48b87)" d="M 157.971056 263.2 
L 177.749131 263.2 
L 177.749131 231.133412 
L 157.971056 231.133412 
z
" style="fill:none;stroke:#000000;stroke-linejoin:miter;"/>
   </g>
   <g id="patch_245">
    <path clip-path="url(#p4a37d48b87)" d="M 182.69365 263.2 
L 202.471725 263.2 
L 202.471725 242.824692 
L 182.69365 242.824692 
z
" style="fill:none;stroke:#000000;stroke-linejoin:miter;"/>
   </g>
   <g id="patch_246">
    <path clip-path="url(#p4a37d48b87)" d="M 207.416243 263.2 
L 227.194318 263.2 
L 227.194318 232.442904 
L 207.416243 232.442904 
z
" style="fill:none;stroke:#000000;stroke-linejoin:miter;"/>
   </g>
   <g id="matplotlib.axis_5">
    <g id="text_18">
     <!-- Task -->
     <g transform="translate(131.532031 274.798437)scale(0.1 -0.1)">
      <use xlink:href="#DejaVuSans-84"/>
      <use x="60.833984" xlink:href="#DejaVuSans-97"/>
      <use x="122.113281" xlink:href="#DejaVuSans-115"/>
      <use x="174.212891" xlink:href="#DejaVuSans-107"/>
     </g>
    </g>
   </g>
   <g id="matplotlib.axis_6">
    <g id="ytick_8">
     <g id="line2d_8">
      <g>
       <use style="stroke:#000000;stroke-width:0.8;" x="50.675" xlink:href="#m5d391fe24c" y="263.2"/>
      </g>
     </g>
     <g id="text_19">
      <!-- 0 -->
      <g transform="translate(37.3125 266.999219)scale(0.1 -0.1)">
       <use xlink:href="#DejaVuSans-48"/>
      </g>
     </g>
    </g>
    <g id="ytick_9">
     <g id="line2d_9">
      <g>
       <use style="stroke:#000000;stroke-width:0.8;" x="50.675" xlink:href="#m5d391fe24c" y="224.974115"/>
      </g>
     </g>
     <g id="text_20">
      <!-- 50 -->
      <g transform="translate(30.95 228.773333)scale(0.1 -0.1)">
       <use xlink:href="#DejaVuSans-53"/>
       <use x="63.623047" xlink:href="#DejaVuSans-48"/>
      </g>
     </g>
    </g>
    <g id="ytick_10">
     <g id="line2d_10">
      <g>
       <use style="stroke:#000000;stroke-width:0.8;" x="50.675" xlink:href="#m5d391fe24c" y="186.748229"/>
      </g>
     </g>
     <g id="text_21">
      <!-- 100 -->
      <g transform="translate(24.5875 190.547448)scale(0.1 -0.1)">
       <use xlink:href="#DejaVuSans-49"/>
       <use x="63.623047" xlink:href="#DejaVuSans-48"/>
       <use x="127.246094" xlink:href="#DejaVuSans-48"/>
      </g>
     </g>
    </g>
    <g id="text_22">
     <!-- Communication Time (s) -->
     <g transform="translate(18.507812 275.780469)rotate(-90)scale(0.1 -0.1)">
      <use xlink:href="#DejaVuSans-67"/>
      <use x="69.824219" xlink:href="#DejaVuSans-111"/>
      <use x="131.005859" xlink:href="#DejaVuSans-109"/>
      <use x="228.417969" xlink:href="#DejaVuSans-109"/>
      <use x="325.830078" xlink:href="#DejaVuSans-117"/>
      <use x="389.208984" xlink:href="#DejaVuSans-110"/>
      <use x="452.587891" xlink:href="#DejaVuSans-105"/>
      <use x="480.371094" xlink:href="#DejaVuSans-99"/>
      <use x="535.351562" xlink:href="#DejaVuSans-97"/>
      <use x="596.630859" xlink:href="#DejaVuSans-116"/>
      <use x="635.839844" xlink:href="#DejaVuSans-105"/>
      <use x="663.623047" xlink:href="#DejaVuSans-111"/>
      <use x="724.804688" xlink:href="#DejaVuSans-110"/>
      <use x="788.183594" xlink:href="#DejaVuSans-32"/>
      <use x="819.970703" xlink:href="#DejaVuSans-84"/>
      <use x="881.007812" xlink:href="#DejaVuSans-105"/>
      <use x="908.791016" xlink:href="#DejaVuSans-109"/>
      <use x="1006.203125" xlink:href="#DejaVuSans-101"/>
      <use x="1067.726562" xlink:href="#DejaVuSans-32"/>
      <use x="1099.513672" xlink:href="#DejaVuSans-40"/>
      <use x="1138.527344" xlink:href="#DejaVuSans-115"/>
      <use x="1190.626953" xlink:href="#DejaVuSans-41"/>
     </g>
    </g>
   </g>
   <g id="patch_247">
    <path d="M 50.675 263.2 
L 50.675 165.4 
" style="fill:none;stroke:#000000;stroke-linecap:square;stroke-linejoin:miter;stroke-width:0.8;"/>
   </g>
   <g id="patch_248">
    <path d="M 235.6 263.2 
L 235.6 165.4 
" style="fill:none;stroke:#000000;stroke-linecap:square;stroke-linejoin:miter;stroke-width:0.8;"/>
   </g>
   <g id="patch_249">
    <path d="M 50.675 263.2 
L 235.6 263.2 
" style="fill:none;stroke:#000000;stroke-linecap:square;stroke-linejoin:miter;stroke-width:0.8;"/>
   </g>
   <g id="patch_250">
    <path d="M 50.675 165.4 
L 235.6 165.4 
" style="fill:none;stroke:#000000;stroke-linecap:square;stroke-linejoin:miter;stroke-width:0.8;"/>
   </g>
   <g id="text_23">
    <!-- Generating -->
    <defs>
     <path d="M 59.515625 10.40625 
L 59.515625 29.984375 
L 43.40625 29.984375 
L 43.40625 38.09375 
L 69.28125 38.09375 
L 69.28125 6.78125 
Q 63.578125 2.734375 56.6875 0.65625 
Q 49.8125 -1.421875 42 -1.421875 
Q 24.90625 -1.421875 15.25 8.5625 
Q 5.609375 18.5625 5.609375 36.375 
Q 5.609375 54.25 15.25 64.234375 
Q 24.90625 74.21875 42 74.21875 
Q 49.125 74.21875 55.546875 72.453125 
Q 61.96875 70.703125 67.390625 67.28125 
L 67.390625 56.78125 
Q 61.921875 61.421875 55.765625 63.765625 
Q 49.609375 66.109375 42.828125 66.109375 
Q 29.4375 66.109375 22.71875 58.640625 
Q 16.015625 51.171875 16.015625 36.375 
Q 16.015625 21.625 22.71875 14.15625 
Q 29.4375 6.6875 42.828125 6.6875 
Q 48.046875 6.6875 52.140625 7.59375 
Q 56.25 8.5 59.515625 10.40625 
z
" id="DejaVuSans-71"/>
    </defs>
    <g transform="translate(109.528125 159.4)scale(0.12 -0.12)">
     <use xlink:href="#DejaVuSans-71"/>
     <use x="77.490234" xlink:href="#DejaVuSans-101"/>
     <use x="139.013672" xlink:href="#DejaVuSans-110"/>
     <use x="202.392578" xlink:href="#DejaVuSans-101"/>
     <use x="263.916016" xlink:href="#DejaVuSans-114"/>
     <use x="305.029297" xlink:href="#DejaVuSans-97"/>
     <use x="366.308594" xlink:href="#DejaVuSans-116"/>
     <use x="405.517578" xlink:href="#DejaVuSans-105"/>
     <use x="433.300781" xlink:href="#DejaVuSans-110"/>
     <use x="496.679688" xlink:href="#DejaVuSans-103"/>
    </g>
   </g>
  </g>
  <g id="axes_4">
   <g id="patch_251">
    <path d="M 272.275 263.2 
L 457.2 263.2 
L 457.2 165.4 
L 272.275 165.4 
z
" style="fill:#ffffff;"/>
   </g>
   <g id="patch_252">
    <path clip-path="url(#pcbf9d49ed2)" d="M 280.680682 263.2 
L 297.923106 263.2 
L 297.923106 260.947522 
L 280.680682 260.947522 
z
" style="fill:#1f77b4;"/>
   </g>
   <g id="patch_253">
    <path clip-path="url(#pcbf9d49ed2)" d="M 302.233712 263.2 
L 319.476136 263.2 
L 319.476136 261.025434 
L 302.233712 261.025434 
z
" style="fill:#1f77b4;"/>
   </g>
   <g id="patch_254">
    <path clip-path="url(#pcbf9d49ed2)" d="M 323.786742 263.2 
L 341.029167 263.2 
L 341.029167 261.059662 
L 323.786742 261.059662 
z
" style="fill:#1f77b4;"/>
   </g>
   <g id="patch_255">
    <path clip-path="url(#pcbf9d49ed2)" d="M 345.339773 263.2 
L 362.582197 263.2 
L 362.582197 261.086432 
L 345.339773 261.086432 
z
" style="fill:#1f77b4;"/>
   </g>
   <g id="patch_256">
    <path clip-path="url(#pcbf9d49ed2)" d="M 366.892803 263.2 
L 384.135227 263.2 
L 384.135227 261.117261 
L 366.892803 261.117261 
z
" style="fill:#1f77b4;"/>
   </g>
   <g id="patch_257">
    <path clip-path="url(#pcbf9d49ed2)" d="M 388.445833 263.2 
L 405.688258 263.2 
L 405.688258 261.104348 
L 388.445833 261.104348 
z
" style="fill:#1f77b4;"/>
   </g>
   <g id="patch_258">
    <path clip-path="url(#pcbf9d49ed2)" d="M 409.998864 263.2 
L 427.241288 263.2 
L 427.241288 260.91915 
L 409.998864 260.91915 
z
" style="fill:#1f77b4;"/>
   </g>
   <g id="patch_259">
    <path clip-path="url(#pcbf9d49ed2)" d="M 431.551894 263.2 
L 448.794318 263.2 
L 448.794318 260.956426 
L 431.551894 260.956426 
z
" style="fill:#1f77b4;"/>
   </g>
   <g id="patch_260">
    <path clip-path="url(#pcbf9d49ed2)" d="M 280.680682 260.947522 
L 297.923106 260.947522 
L 297.923106 171.953166 
L 280.680682 171.953166 
z
" style="fill:#ff7f0e;"/>
   </g>
   <g id="patch_261">
    <path clip-path="url(#pcbf9d49ed2)" d="M 302.233712 261.025434 
L 319.476136 261.025434 
L 319.476136 252.315896 
L 302.233712 252.315896 
z
" style="fill:#ff7f0e;"/>
   </g>
   <g id="patch_262">
    <path clip-path="url(#pcbf9d49ed2)" d="M 323.786742 261.059662 
L 341.029167 261.059662 
L 341.029167 252.27825 
L 323.786742 252.27825 
z
" style="fill:#ff7f0e;"/>
   </g>
   <g id="patch_263">
    <path clip-path="url(#pcbf9d49ed2)" d="M 345.339773 261.086432 
L 362.582197 261.086432 
L 362.582197 252.130251 
L 345.339773 252.130251 
z
" style="fill:#ff7f0e;"/>
   </g>
   <g id="patch_264">
    <path clip-path="url(#pcbf9d49ed2)" d="M 366.892803 261.117261 
L 384.135227 261.117261 
L 384.135227 251.718832 
L 366.892803 251.718832 
z
" style="fill:#ff7f0e;"/>
   </g>
   <g id="patch_265">
    <path clip-path="url(#pcbf9d49ed2)" d="M 388.445833 261.104348 
L 405.688258 261.104348 
L 405.688258 252.049443 
L 388.445833 252.049443 
z
" style="fill:#ff7f0e;"/>
   </g>
   <g id="patch_266">
    <path clip-path="url(#pcbf9d49ed2)" d="M 409.998864 260.91915 
L 427.241288 260.91915 
L 427.241288 251.162237 
L 409.998864 251.162237 
z
" style="fill:#ff7f0e;"/>
   </g>
   <g id="patch_267">
    <path clip-path="url(#pcbf9d49ed2)" d="M 431.551894 260.956426 
L 448.794318 260.956426 
L 448.794318 251.335979 
L 431.551894 251.335979 
z
" style="fill:#ff7f0e;"/>
   </g>
   <g id="patch_268">
    <path clip-path="url(#pcbf9d49ed2)" d="M 280.680682 171.953166 
L 297.923106 171.953166 
L 297.923106 171.742138 
L 280.680682 171.742138 
z
" style="fill:#2ca02c;"/>
   </g>
   <g id="patch_269">
    <path clip-path="url(#pcbf9d49ed2)" d="M 302.233712 252.315896 
L 319.476136 252.315896 
L 319.476136 252.017818 
L 302.233712 252.017818 
z
" style="fill:#2ca02c;"/>
   </g>
   <g id="patch_270">
    <path clip-path="url(#pcbf9d49ed2)" d="M 323.786742 252.27825 
L 341.029167 252.27825 
L 341.029167 251.91035 
L 323.786742 251.91035 
z
" style="fill:#2ca02c;"/>
   </g>
   <g id="patch_271">
    <path clip-path="url(#pcbf9d49ed2)" d="M 345.339773 252.130251 
L 362.582197 252.130251 
L 362.582197 251.675987 
L 345.339773 251.675987 
z
" style="fill:#2ca02c;"/>
   </g>
   <g id="patch_272">
    <path clip-path="url(#pcbf9d49ed2)" d="M 366.892803 251.718832 
L 384.135227 251.718832 
L 384.135227 249.823965 
L 366.892803 249.823965 
z
" style="fill:#2ca02c;"/>
   </g>
   <g id="patch_273">
    <path clip-path="url(#pcbf9d49ed2)" d="M 388.445833 252.049443 
L 405.688258 252.049443 
L 405.688258 251.768217 
L 388.445833 251.768217 
z
" style="fill:#2ca02c;"/>
   </g>
   <g id="patch_274">
    <path clip-path="url(#pcbf9d49ed2)" d="M 409.998864 251.162237 
L 427.241288 251.162237 
L 427.241288 250.596564 
L 409.998864 250.596564 
z
" style="fill:#2ca02c;"/>
   </g>
   <g id="patch_275">
    <path clip-path="url(#pcbf9d49ed2)" d="M 431.551894 251.335979 
L 448.794318 251.335979 
L 448.794318 250.677884 
L 431.551894 250.677884 
z
" style="fill:#2ca02c;"/>
   </g>
   <g id="patch_276">
    <path clip-path="url(#pcbf9d49ed2)" d="M 280.680682 171.742138 
L 297.923106 171.742138 
L 297.923106 171.738093 
L 280.680682 171.738093 
z
" style="fill:#d62728;"/>
   </g>
   <g id="patch_277">
    <path clip-path="url(#pcbf9d49ed2)" d="M 302.233712 252.017818 
L 319.476136 252.017818 
L 319.476136 252.012508 
L 302.233712 252.012508 
z
" style="fill:#d62728;"/>
   </g>
   <g id="patch_278">
    <path clip-path="url(#pcbf9d49ed2)" d="M 323.786742 251.91035 
L 341.029167 251.91035 
L 341.029167 251.905674 
L 323.786742 251.905674 
z
" style="fill:#d62728;"/>
   </g>
   <g id="patch_279">
    <path clip-path="url(#pcbf9d49ed2)" d="M 345.339773 251.675987 
L 362.582197 251.675987 
L 362.582197 251.671399 
L 345.339773 251.671399 
z
" style="fill:#d62728;"/>
   </g>
   <g id="patch_280">
    <path clip-path="url(#pcbf9d49ed2)" d="M 366.892803 249.823965 
L 384.135227 249.823965 
L 384.135227 249.685883 
L 366.892803 249.685883 
z
" style="fill:#d62728;"/>
   </g>
   <g id="patch_281">
    <path clip-path="url(#pcbf9d49ed2)" d="M 388.445833 251.768217 
L 405.688258 251.768217 
L 405.688258 251.764246 
L 388.445833 251.764246 
z
" style="fill:#d62728;"/>
   </g>
   <g id="patch_282">
    <path clip-path="url(#pcbf9d49ed2)" d="M 409.998864 250.596564 
L 427.241288 250.596564 
L 427.241288 250.593803 
L 409.998864 250.593803 
z
" style="fill:#d62728;"/>
   </g>
   <g id="patch_283">
    <path clip-path="url(#pcbf9d49ed2)" d="M 431.551894 250.677884 
L 448.794318 250.677884 
L 448.794318 250.634779 
L 431.551894 250.634779 
z
" style="fill:#d62728;"/>
   </g>
   <g id="patch_284">
    <path clip-path="url(#pcbf9d49ed2)" d="M 280.680682 171.738093 
L 297.923106 171.738093 
L 297.923106 170.057143 
L 280.680682 170.057143 
z
" style="fill:#9467bd;"/>
   </g>
   <g id="patch_285">
    <path clip-path="url(#pcbf9d49ed2)" d="M 302.233712 252.012508 
L 319.476136 252.012508 
L 319.476136 250.320973 
L 302.233712 250.320973 
z
" style="fill:#9467bd;"/>
   </g>
   <g id="patch_286">
    <path clip-path="url(#pcbf9d49ed2)" d="M 323.786742 251.905674 
L 341.029167 251.905674 
L 341.029167 250.227957 
L 323.786742 250.227957 
z
" style="fill:#9467bd;"/>
   </g>
   <g id="patch_287">
    <path clip-path="url(#pcbf9d49ed2)" d="M 345.339773 251.671399 
L 362.582197 251.671399 
L 362.582197 249.980885 
L 345.339773 249.980885 
z
" style="fill:#9467bd;"/>
   </g>
   <g id="patch_288">
    <path clip-path="url(#pcbf9d49ed2)" d="M 366.892803 249.685883 
L 384.135227 249.685883 
L 384.135227 248.019238 
L 366.892803 248.019238 
z
" style="fill:#9467bd;"/>
   </g>
   <g id="patch_289">
    <path clip-path="url(#pcbf9d49ed2)" d="M 388.445833 251.764246 
L 405.688258 251.764246 
L 405.688258 250.097059 
L 388.445833 250.097059 
z
" style="fill:#9467bd;"/>
   </g>
   <g id="patch_290">
    <path clip-path="url(#pcbf9d49ed2)" d="M 409.998864 250.593803 
L 427.241288 250.593803 
L 427.241288 248.403565 
L 409.998864 248.403565 
z
" style="fill:#9467bd;"/>
   </g>
   <g id="patch_291">
    <path clip-path="url(#pcbf9d49ed2)" d="M 431.551894 250.634779 
L 448.794318 250.634779 
L 448.794318 248.82792 
L 431.551894 248.82792 
z
" style="fill:#9467bd;"/>
   </g>
   <g id="patch_292">
    <path clip-path="url(#pcbf9d49ed2)" d="M 280.680682 263.2 
L 297.923106 263.2 
L 297.923106 170.057143 
L 280.680682 170.057143 
z
" style="fill:none;stroke:#000000;stroke-linejoin:miter;"/>
   </g>
   <g id="patch_293">
    <path clip-path="url(#pcbf9d49ed2)" d="M 302.233712 263.2 
L 319.476136 263.2 
L 319.476136 250.320972 
L 302.233712 250.320972 
z
" style="fill:none;stroke:#000000;stroke-linejoin:miter;"/>
   </g>
   <g id="patch_294">
    <path clip-path="url(#pcbf9d49ed2)" d="M 323.786742 263.2 
L 341.029167 263.2 
L 341.029167 250.227957 
L 323.786742 250.227957 
z
" style="fill:none;stroke:#000000;stroke-linejoin:miter;"/>
   </g>
   <g id="patch_295">
    <path clip-path="url(#pcbf9d49ed2)" d="M 345.339773 263.2 
L 362.582197 263.2 
L 362.582197 249.980885 
L 345.339773 249.980885 
z
" style="fill:none;stroke:#000000;stroke-linejoin:miter;"/>
   </g>
   <g id="patch_296">
    <path clip-path="url(#pcbf9d49ed2)" d="M 366.892803 263.2 
L 384.135227 263.2 
L 384.135227 248.019238 
L 366.892803 248.019238 
z
" style="fill:none;stroke:#000000;stroke-linejoin:miter;"/>
   </g>
   <g id="patch_297">
    <path clip-path="url(#pcbf9d49ed2)" d="M 388.445833 263.2 
L 405.688258 263.2 
L 405.688258 250.09706 
L 388.445833 250.09706 
z
" style="fill:none;stroke:#000000;stroke-linejoin:miter;"/>
   </g>
   <g id="patch_298">
    <path clip-path="url(#pcbf9d49ed2)" d="M 409.998864 263.2 
L 427.241288 263.2 
L 427.241288 248.403565 
L 409.998864 248.403565 
z
" style="fill:none;stroke:#000000;stroke-linejoin:miter;"/>
   </g>
   <g id="patch_299">
    <path clip-path="url(#pcbf9d49ed2)" d="M 431.551894 263.2 
L 448.794318 263.2 
L 448.794318 248.827921 
L 431.551894 248.827921 
z
" style="fill:none;stroke:#000000;stroke-linejoin:miter;"/>
   </g>
   <g id="matplotlib.axis_7">
    <g id="text_24">
     <!-- Task -->
     <g transform="translate(353.132031 274.798437)scale(0.1 -0.1)">
      <use xlink:href="#DejaVuSans-84"/>
      <use x="60.833984" xlink:href="#DejaVuSans-97"/>
      <use x="122.113281" xlink:href="#DejaVuSans-115"/>
      <use x="174.212891" xlink:href="#DejaVuSans-107"/>
     </g>
    </g>
   </g>
   <g id="matplotlib.axis_8">
    <g id="ytick_11">
     <g id="line2d_11">
      <g>
       <use style="stroke:#000000;stroke-width:0.8;" x="272.275" xlink:href="#m5d391fe24c" y="263.2"/>
      </g>
     </g>
     <g id="text_25">
      <!-- 0 -->
      <g transform="translate(258.9125 266.999219)scale(0.1 -0.1)">
       <use xlink:href="#DejaVuSans-48"/>
      </g>
     </g>
    </g>
    <g id="ytick_12">
     <g id="line2d_12">
      <g>
       <use style="stroke:#000000;stroke-width:0.8;" x="272.275" xlink:href="#m5d391fe24c" y="215.306021"/>
      </g>
     </g>
     <g id="text_26">
      <!-- 50 -->
      <g transform="translate(252.55 219.10524)scale(0.1 -0.1)">
       <use xlink:href="#DejaVuSans-53"/>
       <use x="63.623047" xlink:href="#DejaVuSans-48"/>
      </g>
     </g>
    </g>
    <g id="ytick_13">
     <g id="line2d_13">
      <g>
       <use style="stroke:#000000;stroke-width:0.8;" x="272.275" xlink:href="#m5d391fe24c" y="167.412043"/>
      </g>
     </g>
     <g id="text_27">
      <!-- 100 -->
      <g transform="translate(246.1875 171.211261)scale(0.1 -0.1)">
       <use xlink:href="#DejaVuSans-49"/>
       <use x="63.623047" xlink:href="#DejaVuSans-48"/>
       <use x="127.246094" xlink:href="#DejaVuSans-48"/>
      </g>
     </g>
    </g>
   </g>
   <g id="patch_300">
    <path d="M 272.275 263.2 
L 272.275 165.4 
" style="fill:none;stroke:#000000;stroke-linecap:square;stroke-linejoin:miter;stroke-width:0.8;"/>
   </g>
   <g id="patch_301">
    <path d="M 457.2 263.2 
L 457.2 165.4 
" style="fill:none;stroke:#000000;stroke-linecap:square;stroke-linejoin:miter;stroke-width:0.8;"/>
   </g>
   <g id="patch_302">
    <path d="M 272.275 263.2 
L 457.2 263.2 
" style="fill:none;stroke:#000000;stroke-linecap:square;stroke-linejoin:miter;stroke-width:0.8;"/>
   </g>
   <g id="patch_303">
    <path d="M 272.275 165.4 
L 457.2 165.4 
" style="fill:none;stroke:#000000;stroke-linecap:square;stroke-linejoin:miter;stroke-width:0.8;"/>
   </g>
   <g id="text_28">
    <!-- Screening -->
    <g transform="translate(334.7 159.4)scale(0.12 -0.12)">
     <use xlink:href="#DejaVuSans-83"/>
     <use x="63.476562" xlink:href="#DejaVuSans-99"/>
     <use x="118.457031" xlink:href="#DejaVuSans-114"/>
     <use x="159.539062" xlink:href="#DejaVuSans-101"/>
     <use x="221.0625" xlink:href="#DejaVuSans-101"/>
     <use x="282.585938" xlink:href="#DejaVuSans-110"/>
     <use x="345.964844" xlink:href="#DejaVuSans-105"/>
     <use x="373.748047" xlink:href="#DejaVuSans-110"/>
     <use x="437.126953" xlink:href="#DejaVuSans-103"/>
    </g>
   </g>
  </g>
 </g>
 <defs>
  <clipPath id="p6b5eb836e8">
   <rect height="97.8" width="184.925" x="50.675" y="26.8"/>
  </clipPath>
  <clipPath id="pd39889b0c9">
   <rect height="97.8" width="184.925" x="272.275" y="26.8"/>
  </clipPath>
  <clipPath id="p4a37d48b87">
   <rect height="97.8" width="184.925" x="50.675" y="165.4"/>
  </clipPath>
  <clipPath id="pcbf9d49ed2">
   <rect height="97.8" width="184.925" x="272.275" y="165.4"/>
  </clipPath>
 </defs>
</svg>
