<?xml version="1.0" encoding="utf-8" standalone="no"?>
<!DOCTYPE svg PUBLIC "-//W3C//DTD SVG 1.1//EN"
  "http://www.w3.org/Graphics/SVG/1.1/DTD/svg11.dtd">
<!-- Created with matplotlib (https://matplotlib.org/) -->
<svg height="180pt" version="1.1" viewBox="0 0 612 180" width="612pt" xmlns="http://www.w3.org/2000/svg" xmlns:xlink="http://www.w3.org/1999/xlink">
 <defs>
  <style type="text/css">
*{stroke-linecap:butt;stroke-linejoin:round;}
  </style>
 </defs>
 <g id="figure_1">
  <g id="patch_1">
   <path d="M 0 180 
L 612 180 
L 612 0 
L 0 0 
z
" style="fill:#ffffff;"/>
  </g>
  <g id="axes_1">
   <g id="patch_2">
    <path d="M 50.925 138.2 
L 200.566667 138.2 
L 200.566667 10.8 
L 50.925 10.8 
z
" style="fill:#ffffff;"/>
   </g>
   <g id="matplotlib.axis_1">
    <g id="xtick_1">
     <g id="line2d_1">
      <defs>
       <path d="M 0 0 
L 0 3.5 
" id="mdc435fc043" style="stroke:#000000;stroke-width:0.8;"/>
      </defs>
      <g>
       <use style="stroke:#000000;stroke-width:0.8;" x="57.726894" xlink:href="#mdc435fc043" y="138.2"/>
      </g>
     </g>
     <g id="text_1">
      <!-- 0 -->
      <defs>
       <path d="M 31.78125 66.40625 
Q 24.171875 66.40625 20.328125 58.90625 
Q 16.5 51.421875 16.5 36.375 
Q 16.5 21.390625 20.328125 13.890625 
Q 24.171875 6.390625 31.78125 6.390625 
Q 39.453125 6.390625 43.28125 13.890625 
Q 47.125 21.390625 47.125 36.375 
Q 47.125 51.421875 43.28125 58.90625 
Q 39.453125 66.40625 31.78125 66.40625 
z
M 31.78125 74.21875 
Q 44.046875 74.21875 50.515625 64.515625 
Q 56.984375 54.828125 56.984375 36.375 
Q 56.984375 17.96875 50.515625 8.265625 
Q 44.046875 -1.421875 31.78125 -1.421875 
Q 19.53125 -1.421875 13.0625 8.265625 
Q 6.59375 17.96875 6.59375 36.375 
Q 6.59375 54.828125 13.0625 64.515625 
Q 19.53125 74.21875 31.78125 74.21875 
z
" id="DejaVuSans-48"/>
      </defs>
      <g transform="translate(54.545644 152.798438)scale(0.1 -0.1)">
       <use xlink:href="#DejaVuSans-48"/>
      </g>
     </g>
    </g>
    <g id="xtick_2">
     <g id="line2d_2">
      <g>
       <use style="stroke:#000000;stroke-width:0.8;" x="113.588373" xlink:href="#mdc435fc043" y="138.2"/>
      </g>
     </g>
     <g id="text_2">
      <!-- 5000 -->
      <defs>
       <path d="M 10.796875 72.90625 
L 49.515625 72.90625 
L 49.515625 64.59375 
L 19.828125 64.59375 
L 19.828125 46.734375 
Q 21.96875 47.46875 24.109375 47.828125 
Q 26.265625 48.1875 28.421875 48.1875 
Q 40.625 48.1875 47.75 41.5 
Q 54.890625 34.8125 54.890625 23.390625 
Q 54.890625 11.625 47.5625 5.09375 
Q 40.234375 -1.421875 26.90625 -1.421875 
Q 22.3125 -1.421875 17.546875 -0.640625 
Q 12.796875 0.140625 7.71875 1.703125 
L 7.71875 11.625 
Q 12.109375 9.234375 16.796875 8.0625 
Q 21.484375 6.890625 26.703125 6.890625 
Q 35.15625 6.890625 40.078125 11.328125 
Q 45.015625 15.765625 45.015625 23.390625 
Q 45.015625 31 40.078125 35.4375 
Q 35.15625 39.890625 26.703125 39.890625 
Q 22.75 39.890625 18.8125 39.015625 
Q 14.890625 38.140625 10.796875 36.28125 
z
" id="DejaVuSans-53"/>
      </defs>
      <g transform="translate(100.863373 152.798438)scale(0.1 -0.1)">
       <use xlink:href="#DejaVuSans-53"/>
       <use x="63.623047" xlink:href="#DejaVuSans-48"/>
       <use x="127.246094" xlink:href="#DejaVuSans-48"/>
       <use x="190.869141" xlink:href="#DejaVuSans-48"/>
      </g>
     </g>
    </g>
    <g id="xtick_3">
     <g id="line2d_3">
      <g>
       <use style="stroke:#000000;stroke-width:0.8;" x="169.449853" xlink:href="#mdc435fc043" y="138.2"/>
      </g>
     </g>
     <g id="text_3">
      <!-- 10000 -->
      <defs>
       <path d="M 12.40625 8.296875 
L 28.515625 8.296875 
L 28.515625 63.921875 
L 10.984375 60.40625 
L 10.984375 69.390625 
L 28.421875 72.90625 
L 38.28125 72.90625 
L 38.28125 8.296875 
L 54.390625 8.296875 
L 54.390625 0 
L 12.40625 0 
z
" id="DejaVuSans-49"/>
      </defs>
      <g transform="translate(153.543603 152.798438)scale(0.1 -0.1)">
       <use xlink:href="#DejaVuSans-49"/>
       <use x="63.623047" xlink:href="#DejaVuSans-48"/>
       <use x="127.246094" xlink:href="#DejaVuSans-48"/>
       <use x="190.869141" xlink:href="#DejaVuSans-48"/>
       <use x="254.492188" xlink:href="#DejaVuSans-48"/>
      </g>
     </g>
    </g>
    <g id="text_4">
     <!-- Walltime (s) -->
     <defs>
      <path d="M 3.328125 72.90625 
L 13.28125 72.90625 
L 28.609375 11.28125 
L 43.890625 72.90625 
L 54.984375 72.90625 
L 70.3125 11.28125 
L 85.59375 72.90625 
L 95.609375 72.90625 
L 77.296875 0 
L 64.890625 0 
L 49.515625 63.28125 
L 33.984375 0 
L 21.578125 0 
z
" id="DejaVuSans-87"/>
      <path d="M 34.28125 27.484375 
Q 23.390625 27.484375 19.1875 25 
Q 14.984375 22.515625 14.984375 16.5 
Q 14.984375 11.71875 18.140625 8.90625 
Q 21.296875 6.109375 26.703125 6.109375 
Q 34.1875 6.109375 38.703125 11.40625 
Q 43.21875 16.703125 43.21875 25.484375 
L 43.21875 27.484375 
z
M 52.203125 31.203125 
L 52.203125 0 
L 43.21875 0 
L 43.21875 8.296875 
Q 40.140625 3.328125 35.546875 0.953125 
Q 30.953125 -1.421875 24.3125 -1.421875 
Q 15.921875 -1.421875 10.953125 3.296875 
Q 6 8.015625 6 15.921875 
Q 6 25.140625 12.171875 29.828125 
Q 18.359375 34.515625 30.609375 34.515625 
L 43.21875 34.515625 
L 43.21875 35.40625 
Q 43.21875 41.609375 39.140625 45 
Q 35.0625 48.390625 27.6875 48.390625 
Q 23 48.390625 18.546875 47.265625 
Q 14.109375 46.140625 10.015625 43.890625 
L 10.015625 52.203125 
Q 14.9375 54.109375 19.578125 55.046875 
Q 24.21875 56 28.609375 56 
Q 40.484375 56 46.34375 49.84375 
Q 52.203125 43.703125 52.203125 31.203125 
z
" id="DejaVuSans-97"/>
      <path d="M 9.421875 75.984375 
L 18.40625 75.984375 
L 18.40625 0 
L 9.421875 0 
z
" id="DejaVuSans-108"/>
      <path d="M 18.3125 70.21875 
L 18.3125 54.6875 
L 36.8125 54.6875 
L 36.8125 47.703125 
L 18.3125 47.703125 
L 18.3125 18.015625 
Q 18.3125 11.328125 20.140625 9.421875 
Q 21.96875 7.515625 27.59375 7.515625 
L 36.8125 7.515625 
L 36.8125 0 
L 27.59375 0 
Q 17.1875 0 13.234375 3.875 
Q 9.28125 7.765625 9.28125 18.015625 
L 9.28125 47.703125 
L 2.6875 47.703125 
L 2.6875 54.6875 
L 9.28125 54.6875 
L 9.28125 70.21875 
z
" id="DejaVuSans-116"/>
      <path d="M 9.421875 54.6875 
L 18.40625 54.6875 
L 18.40625 0 
L 9.421875 0 
z
M 9.421875 75.984375 
L 18.40625 75.984375 
L 18.40625 64.59375 
L 9.421875 64.59375 
z
" id="DejaVuSans-105"/>
      <path d="M 52 44.1875 
Q 55.375 50.25 60.0625 53.125 
Q 64.75 56 71.09375 56 
Q 79.640625 56 84.28125 50.015625 
Q 88.921875 44.046875 88.921875 33.015625 
L 88.921875 0 
L 79.890625 0 
L 79.890625 32.71875 
Q 79.890625 40.578125 77.09375 44.375 
Q 74.3125 48.1875 68.609375 48.1875 
Q 61.625 48.1875 57.5625 43.546875 
Q 53.515625 38.921875 53.515625 30.90625 
L 53.515625 0 
L 44.484375 0 
L 44.484375 32.71875 
Q 44.484375 40.625 41.703125 44.40625 
Q 38.921875 48.1875 33.109375 48.1875 
Q 26.21875 48.1875 22.15625 43.53125 
Q 18.109375 38.875 18.109375 30.90625 
L 18.109375 0 
L 9.078125 0 
L 9.078125 54.6875 
L 18.109375 54.6875 
L 18.109375 46.1875 
Q 21.1875 51.21875 25.484375 53.609375 
Q 29.78125 56 35.6875 56 
Q 41.65625 56 45.828125 52.96875 
Q 50 49.953125 52 44.1875 
z
" id="DejaVuSans-109"/>
      <path d="M 56.203125 29.59375 
L 56.203125 25.203125 
L 14.890625 25.203125 
Q 15.484375 15.921875 20.484375 11.0625 
Q 25.484375 6.203125 34.421875 6.203125 
Q 39.59375 6.203125 44.453125 7.46875 
Q 49.3125 8.734375 54.109375 11.28125 
L 54.109375 2.78125 
Q 49.265625 0.734375 44.1875 -0.34375 
Q 39.109375 -1.421875 33.890625 -1.421875 
Q 20.796875 -1.421875 13.15625 6.1875 
Q 5.515625 13.8125 5.515625 26.8125 
Q 5.515625 40.234375 12.765625 48.109375 
Q 20.015625 56 32.328125 56 
Q 43.359375 56 49.78125 48.890625 
Q 56.203125 41.796875 56.203125 29.59375 
z
M 47.21875 32.234375 
Q 47.125 39.59375 43.09375 43.984375 
Q 39.0625 48.390625 32.421875 48.390625 
Q 24.90625 48.390625 20.390625 44.140625 
Q 15.875 39.890625 15.1875 32.171875 
z
" id="DejaVuSans-101"/>
      <path id="DejaVuSans-32"/>
      <path d="M 31 75.875 
Q 24.46875 64.65625 21.28125 53.65625 
Q 18.109375 42.671875 18.109375 31.390625 
Q 18.109375 20.125 21.3125 9.0625 
Q 24.515625 -2 31 -13.1875 
L 23.1875 -13.1875 
Q 15.875 -1.703125 12.234375 9.375 
Q 8.59375 20.453125 8.59375 31.390625 
Q 8.59375 42.28125 12.203125 53.3125 
Q 15.828125 64.359375 23.1875 75.875 
z
" id="DejaVuSans-40"/>
      <path d="M 44.28125 53.078125 
L 44.28125 44.578125 
Q 40.484375 46.53125 36.375 47.5 
Q 32.28125 48.484375 27.875 48.484375 
Q 21.1875 48.484375 17.84375 46.4375 
Q 14.5 44.390625 14.5 40.28125 
Q 14.5 37.15625 16.890625 35.375 
Q 19.28125 33.59375 26.515625 31.984375 
L 29.59375 31.296875 
Q 39.15625 29.25 43.1875 25.515625 
Q 47.21875 21.78125 47.21875 15.09375 
Q 47.21875 7.46875 41.1875 3.015625 
Q 35.15625 -1.421875 24.609375 -1.421875 
Q 20.21875 -1.421875 15.453125 -0.5625 
Q 10.6875 0.296875 5.421875 2 
L 5.421875 11.28125 
Q 10.40625 8.6875 15.234375 7.390625 
Q 20.0625 6.109375 24.8125 6.109375 
Q 31.15625 6.109375 34.5625 8.28125 
Q 37.984375 10.453125 37.984375 14.40625 
Q 37.984375 18.0625 35.515625 20.015625 
Q 33.0625 21.96875 24.703125 23.78125 
L 21.578125 24.515625 
Q 13.234375 26.265625 9.515625 29.90625 
Q 5.8125 33.546875 5.8125 39.890625 
Q 5.8125 47.609375 11.28125 51.796875 
Q 16.75 56 26.8125 56 
Q 31.78125 56 36.171875 55.265625 
Q 40.578125 54.546875 44.28125 53.078125 
z
" id="DejaVuSans-115"/>
      <path d="M 8.015625 75.875 
L 15.828125 75.875 
Q 23.140625 64.359375 26.78125 53.3125 
Q 30.421875 42.28125 30.421875 31.390625 
Q 30.421875 20.453125 26.78125 9.375 
Q 23.140625 -1.703125 15.828125 -13.1875 
L 8.015625 -13.1875 
Q 14.5 -2 17.703125 9.0625 
Q 20.90625 20.125 20.90625 31.390625 
Q 20.90625 42.671875 17.703125 53.65625 
Q 14.5 64.65625 8.015625 75.875 
z
" id="DejaVuSans-41"/>
     </defs>
     <g transform="translate(95.573177 166.476562)scale(0.1 -0.1)">
      <use xlink:href="#DejaVuSans-87"/>
      <use x="98.783203" xlink:href="#DejaVuSans-97"/>
      <use x="160.0625" xlink:href="#DejaVuSans-108"/>
      <use x="187.845703" xlink:href="#DejaVuSans-108"/>
      <use x="215.628906" xlink:href="#DejaVuSans-116"/>
      <use x="254.837891" xlink:href="#DejaVuSans-105"/>
      <use x="282.621094" xlink:href="#DejaVuSans-109"/>
      <use x="380.033203" xlink:href="#DejaVuSans-101"/>
      <use x="441.556641" xlink:href="#DejaVuSans-32"/>
      <use x="473.34375" xlink:href="#DejaVuSans-40"/>
      <use x="512.357422" xlink:href="#DejaVuSans-115"/>
      <use x="564.457031" xlink:href="#DejaVuSans-41"/>
     </g>
    </g>
   </g>
   <g id="matplotlib.axis_2">
    <g id="ytick_1">
     <g id="line2d_4">
      <defs>
       <path d="M 0 0 
L -3.5 0 
" id="mebd0d813a2" style="stroke:#000000;stroke-width:0.8;"/>
      </defs>
      <g>
       <use style="stroke:#000000;stroke-width:0.8;" x="50.925" xlink:href="#mebd0d813a2" y="132.409091"/>
      </g>
     </g>
     <g id="text_5">
      <!-- 0 -->
      <g transform="translate(37.5625 136.20831)scale(0.1 -0.1)">
       <use xlink:href="#DejaVuSans-48"/>
      </g>
     </g>
    </g>
    <g id="ytick_2">
     <g id="line2d_5">
      <g>
       <use style="stroke:#000000;stroke-width:0.8;" x="50.925" xlink:href="#mebd0d813a2" y="109.610236"/>
      </g>
     </g>
     <g id="text_6">
      <!-- 25 -->
      <defs>
       <path d="M 19.1875 8.296875 
L 53.609375 8.296875 
L 53.609375 0 
L 7.328125 0 
L 7.328125 8.296875 
Q 12.9375 14.109375 22.625 23.890625 
Q 32.328125 33.6875 34.8125 36.53125 
Q 39.546875 41.84375 41.421875 45.53125 
Q 43.3125 49.21875 43.3125 52.78125 
Q 43.3125 58.59375 39.234375 62.25 
Q 35.15625 65.921875 28.609375 65.921875 
Q 23.96875 65.921875 18.8125 64.3125 
Q 13.671875 62.703125 7.8125 59.421875 
L 7.8125 69.390625 
Q 13.765625 71.78125 18.9375 73 
Q 24.125 74.21875 28.421875 74.21875 
Q 39.75 74.21875 46.484375 68.546875 
Q 53.21875 62.890625 53.21875 53.421875 
Q 53.21875 48.921875 51.53125 44.890625 
Q 49.859375 40.875 45.40625 35.40625 
Q 44.1875 33.984375 37.640625 27.21875 
Q 31.109375 20.453125 19.1875 8.296875 
z
" id="DejaVuSans-50"/>
      </defs>
      <g transform="translate(31.2 113.409455)scale(0.1 -0.1)">
       <use xlink:href="#DejaVuSans-50"/>
       <use x="63.623047" xlink:href="#DejaVuSans-53"/>
      </g>
     </g>
    </g>
    <g id="ytick_3">
     <g id="line2d_6">
      <g>
       <use style="stroke:#000000;stroke-width:0.8;" x="50.925" xlink:href="#mebd0d813a2" y="86.811382"/>
      </g>
     </g>
     <g id="text_7">
      <!-- 50 -->
      <g transform="translate(31.2 90.6106)scale(0.1 -0.1)">
       <use xlink:href="#DejaVuSans-53"/>
       <use x="63.623047" xlink:href="#DejaVuSans-48"/>
      </g>
     </g>
    </g>
    <g id="ytick_4">
     <g id="line2d_7">
      <g>
       <use style="stroke:#000000;stroke-width:0.8;" x="50.925" xlink:href="#mebd0d813a2" y="64.012527"/>
      </g>
     </g>
     <g id="text_8">
      <!-- 75 -->
      <defs>
       <path d="M 8.203125 72.90625 
L 55.078125 72.90625 
L 55.078125 68.703125 
L 28.609375 0 
L 18.3125 0 
L 43.21875 64.59375 
L 8.203125 64.59375 
z
" id="DejaVuSans-55"/>
      </defs>
      <g transform="translate(31.2 67.811746)scale(0.1 -0.1)">
       <use xlink:href="#DejaVuSans-55"/>
       <use x="63.623047" xlink:href="#DejaVuSans-53"/>
      </g>
     </g>
    </g>
    <g id="ytick_5">
     <g id="line2d_8">
      <g>
       <use style="stroke:#000000;stroke-width:0.8;" x="50.925" xlink:href="#mebd0d813a2" y="41.213672"/>
      </g>
     </g>
     <g id="text_9">
      <!-- 100 -->
      <g transform="translate(24.8375 45.012891)scale(0.1 -0.1)">
       <use xlink:href="#DejaVuSans-49"/>
       <use x="63.623047" xlink:href="#DejaVuSans-48"/>
       <use x="127.246094" xlink:href="#DejaVuSans-48"/>
      </g>
     </g>
    </g>
    <g id="ytick_6">
     <g id="line2d_9">
      <g>
       <use style="stroke:#000000;stroke-width:0.8;" x="50.925" xlink:href="#mebd0d813a2" y="18.414817"/>
      </g>
     </g>
     <g id="text_10">
      <!-- 125 -->
      <g transform="translate(24.8375 22.214036)scale(0.1 -0.1)">
       <use xlink:href="#DejaVuSans-49"/>
       <use x="63.623047" xlink:href="#DejaVuSans-50"/>
       <use x="127.246094" xlink:href="#DejaVuSans-53"/>
      </g>
     </g>
    </g>
    <g id="text_11">
     <!-- Active Workers -->
     <defs>
      <path d="M 34.1875 63.1875 
L 20.796875 26.90625 
L 47.609375 26.90625 
z
M 28.609375 72.90625 
L 39.796875 72.90625 
L 67.578125 0 
L 57.328125 0 
L 50.6875 18.703125 
L 17.828125 18.703125 
L 11.1875 0 
L 0.78125 0 
z
" id="DejaVuSans-65"/>
      <path d="M 48.78125 52.59375 
L 48.78125 44.1875 
Q 44.96875 46.296875 41.140625 47.34375 
Q 37.3125 48.390625 33.40625 48.390625 
Q 24.65625 48.390625 19.8125 42.84375 
Q 14.984375 37.3125 14.984375 27.296875 
Q 14.984375 17.28125 19.8125 11.734375 
Q 24.65625 6.203125 33.40625 6.203125 
Q 37.3125 6.203125 41.140625 7.25 
Q 44.96875 8.296875 48.78125 10.40625 
L 48.78125 2.09375 
Q 45.015625 0.34375 40.984375 -0.53125 
Q 36.96875 -1.421875 32.421875 -1.421875 
Q 20.0625 -1.421875 12.78125 6.34375 
Q 5.515625 14.109375 5.515625 27.296875 
Q 5.515625 40.671875 12.859375 48.328125 
Q 20.21875 56 33.015625 56 
Q 37.15625 56 41.109375 55.140625 
Q 45.0625 54.296875 48.78125 52.59375 
z
" id="DejaVuSans-99"/>
      <path d="M 2.984375 54.6875 
L 12.5 54.6875 
L 29.59375 8.796875 
L 46.6875 54.6875 
L 56.203125 54.6875 
L 35.6875 0 
L 23.484375 0 
z
" id="DejaVuSans-118"/>
      <path d="M 30.609375 48.390625 
Q 23.390625 48.390625 19.1875 42.75 
Q 14.984375 37.109375 14.984375 27.296875 
Q 14.984375 17.484375 19.15625 11.84375 
Q 23.34375 6.203125 30.609375 6.203125 
Q 37.796875 6.203125 41.984375 11.859375 
Q 46.1875 17.53125 46.1875 27.296875 
Q 46.1875 37.015625 41.984375 42.703125 
Q 37.796875 48.390625 30.609375 48.390625 
z
M 30.609375 56 
Q 42.328125 56 49.015625 48.375 
Q 55.71875 40.765625 55.71875 27.296875 
Q 55.71875 13.875 49.015625 6.21875 
Q 42.328125 -1.421875 30.609375 -1.421875 
Q 18.84375 -1.421875 12.171875 6.21875 
Q 5.515625 13.875 5.515625 27.296875 
Q 5.515625 40.765625 12.171875 48.375 
Q 18.84375 56 30.609375 56 
z
" id="DejaVuSans-111"/>
      <path d="M 41.109375 46.296875 
Q 39.59375 47.171875 37.8125 47.578125 
Q 36.03125 48 33.890625 48 
Q 26.265625 48 22.1875 43.046875 
Q 18.109375 38.09375 18.109375 28.8125 
L 18.109375 0 
L 9.078125 0 
L 9.078125 54.6875 
L 18.109375 54.6875 
L 18.109375 46.1875 
Q 20.953125 51.171875 25.484375 53.578125 
Q 30.03125 56 36.53125 56 
Q 37.453125 56 38.578125 55.875 
Q 39.703125 55.765625 41.0625 55.515625 
z
" id="DejaVuSans-114"/>
      <path d="M 9.078125 75.984375 
L 18.109375 75.984375 
L 18.109375 31.109375 
L 44.921875 54.6875 
L 56.390625 54.6875 
L 27.390625 29.109375 
L 57.625 0 
L 45.90625 0 
L 18.109375 26.703125 
L 18.109375 0 
L 9.078125 0 
z
" id="DejaVuSans-107"/>
     </defs>
     <g transform="translate(18.757812 112.327344)rotate(-90)scale(0.1 -0.1)">
      <use xlink:href="#DejaVuSans-65"/>
      <use x="68.392578" xlink:href="#DejaVuSans-99"/>
      <use x="123.373047" xlink:href="#DejaVuSans-116"/>
      <use x="162.582031" xlink:href="#DejaVuSans-105"/>
      <use x="190.365234" xlink:href="#DejaVuSans-118"/>
      <use x="249.544922" xlink:href="#DejaVuSans-101"/>
      <use x="311.068359" xlink:href="#DejaVuSans-32"/>
      <use x="342.855469" xlink:href="#DejaVuSans-87"/>
      <use x="441.654297" xlink:href="#DejaVuSans-111"/>
      <use x="502.835938" xlink:href="#DejaVuSans-114"/>
      <use x="543.949219" xlink:href="#DejaVuSans-107"/>
      <use x="601.8125" xlink:href="#DejaVuSans-101"/>
      <use x="663.335938" xlink:href="#DejaVuSans-114"/>
      <use x="704.449219" xlink:href="#DejaVuSans-115"/>
     </g>
    </g>
   </g>
   <g id="line2d_10">
    <path clip-path="url(#p8244d6fd64)" d="M 57.726894 132.409091 
L 74.344725 132.409091 
L 74.443415 19.326772 
L 80.771648 19.326772 
L 80.771648 20.238726 
L 81.45885 20.238726 
L 81.45885 21.15068 
L 81.462648 20.238726 
L 81.800259 20.238726 
L 81.800259 21.15068 
L 81.802601 20.238726 
L 81.920201 20.238726 
L 81.920201 21.15068 
L 81.937072 20.238726 
L 82.238053 20.238726 
L 82.238053 19.326772 
L 82.466329 19.326772 
L 82.466329 20.238726 
L 82.469101 19.326772 
L 82.640839 19.326772 
L 82.640839 20.238726 
L 82.82324 20.238726 
L 82.82324 19.326772 
L 83.912598 19.326772 
L 83.912598 20.238726 
L 84.079264 20.238726 
L 84.079264 21.15068 
L 84.186805 21.15068 
L 84.190842 21.15068 
L 84.190842 20.238726 
L 84.234627 20.238726 
L 84.494899 20.238726 
L 84.494899 21.15068 
L 84.684138 21.15068 
L 84.684138 20.238726 
L 84.797942 20.238726 
L 84.797942 21.15068 
L 84.825518 20.238726 
L 85.144376 20.238726 
L 85.144376 21.15068 
L 85.243415 21.15068 
L 85.272912 21.15068 
L 85.272912 20.238726 
L 85.473115 20.238726 
L 85.473115 21.15068 
L 85.599142 21.15068 
L 85.599142 22.062634 
L 85.620855 21.15068 
L 85.897189 21.15068 
L 85.903164 22.974588 
L 86.003091 22.062634 
L 86.334656 22.062634 
L 86.396644 23.886543 
L 86.43759 22.974588 
L 86.571056 22.974588 
L 86.571056 23.886543 
L 86.649195 22.974588 
L 86.737788 22.974588 
L 86.737788 23.886543 
L 86.742314 22.974588 
L 87.472062 22.974588 
L 87.472062 23.886543 
L 87.474951 22.974588 
L 87.616405 22.974588 
L 87.616405 23.886543 
L 87.650558 22.974588 
L 87.792082 22.974588 
L 87.792082 22.062634 
L 87.900652 22.974588 
L 87.941649 22.974588 
L 87.941649 23.886543 
L 88.043878 22.974588 
L 88.314921 22.974588 
L 88.314921 23.886543 
L 88.318123 22.974588 
L 88.558737 22.974588 
L 88.558737 23.886543 
L 88.668864 23.886543 
L 88.679956 23.886543 
L 88.679956 22.974588 
L 88.742935 23.886543 
L 88.845222 23.886543 
L 88.901786 25.710451 
L 88.908503 24.798497 
L 89.145607 24.798497 
L 89.145607 25.710451 
L 89.171346 25.710451 
L 89.288098 25.710451 
L 89.288098 26.622405 
L 89.294698 25.710451 
L 89.50021 25.710451 
L 89.50021 26.622405 
L 89.503401 25.710451 
L 89.659933 25.710451 
L 89.659933 26.622405 
L 90.07255 26.622405 
L 90.07255 27.534359 
L 90.128993 26.622405 
L 90.309727 26.622405 
L 90.309727 27.534359 
L 90.362071 26.622405 
L 90.452556 26.622405 
L 90.452556 27.534359 
L 90.461603 26.622405 
L 90.60216 26.622405 
L 90.60216 27.534359 
L 90.607039 26.622405 
L 90.7545 26.622405 
L 90.7545 27.534359 
L 90.848342 26.622405 
L 90.884518 26.622405 
L 90.884518 27.534359 
L 90.982378 26.622405 
L 91.231394 26.622405 
L 91.231394 27.534359 
L 91.301408 26.622405 
L 91.416456 26.622405 
L 91.416456 27.534359 
L 91.462993 26.622405 
L 91.535985 26.622405 
L 91.535985 27.534359 
L 91.853812 27.534359 
L 91.853812 28.446314 
L 91.858568 27.534359 
L 91.980147 27.534359 
L 91.980147 28.446314 
L 92.006652 27.534359 
L 92.572514 27.534359 
L 92.669338 29.358268 
L 92.67342 28.446314 
L 92.713869 28.446314 
L 92.719009 30.270222 
L 92.746353 28.446314 
L 92.909128 28.446314 
L 92.909128 29.358268 
L 92.939879 27.534359 
L 93.057815 27.534359 
L 93.057815 26.622405 
L 93.101337 28.446314 
L 93.128877 27.534359 
L 93.424355 27.534359 
L 93.424355 26.622405 
L 93.626578 26.622405 
L 93.626578 27.534359 
L 93.696459 26.622405 
L 93.964585 26.622405 
L 93.987108 28.446314 
L 93.995676 26.622405 
L 94.137069 26.622405 
L 94.137069 27.534359 
L 94.139531 26.622405 
L 94.252829 26.622405 
L 94.252829 27.534359 
L 94.256933 26.622405 
L 94.410284 26.622405 
L 94.410284 27.534359 
L 94.419348 25.710451 
L 94.708369 25.710451 
L 94.708369 26.622405 
L 94.762822 24.798497 
L 94.851055 24.798497 
L 94.950052 26.622405 
L 94.960549 25.710451 
L 95.130819 25.710451 
L 95.130819 26.622405 
L 95.145712 25.710451 
L 95.354719 25.710451 
L 95.456953 23.886543 
L 95.584531 23.886543 
L 95.584531 24.798497 
L 95.783709 24.798497 
L 95.783709 25.710451 
L 96.135342 25.710451 
L 96.135342 26.622405 
L 96.213627 25.710451 
L 96.860948 25.710451 
L 96.860948 24.798497 
L 96.98754 24.798497 
L 96.98754 25.710451 
L 97.010255 24.798497 
L 97.108634 24.798497 
L 97.108634 25.710451 
L 97.114483 24.798497 
L 97.593126 24.798497 
L 97.593126 25.710451 
L 97.688527 25.710451 
L 97.714272 25.710451 
L 97.734289 23.886543 
L 97.909919 23.886543 
L 97.909919 22.974588 
L 97.933327 22.974588 
L 98.064996 22.974588 
L 98.064996 23.886543 
L 98.071637 22.974588 
L 98.201273 22.974588 
L 98.201273 23.886543 
L 98.204025 22.974588 
L 98.512992 22.974588 
L 98.512992 22.062634 
L 99.057602 22.062634 
L 99.057602 22.974588 
L 99.131818 22.974588 
L 99.181566 22.974588 
L 99.181566 22.062634 
L 99.282466 22.062634 
L 99.389255 22.062634 
L 99.389255 21.15068 
L 99.436636 22.062634 
L 99.610789 22.062634 
L 99.610789 22.974588 
L 99.696714 22.974588 
L 99.824528 22.974588 
L 99.824528 23.886543 
L 99.831593 22.974588 
L 99.966462 22.974588 
L 99.966462 23.886543 
L 99.972678 22.974588 
L 100.135761 22.974588 
L 100.135761 22.062634 
L 100.462791 22.062634 
L 100.462791 22.974588 
L 100.468895 22.062634 
L 100.711852 22.062634 
L 100.711852 21.15068 
L 100.773282 21.15068 
L 100.914088 21.15068 
L 100.914088 22.062634 
L 100.942708 21.15068 
L 101.205682 21.15068 
L 101.205682 22.062634 
L 101.262433 21.15068 
L 101.493076 21.15068 
L 101.493076 22.062634 
L 101.505776 21.15068 
L 101.857345 21.15068 
L 101.857345 22.062634 
L 101.872252 21.15068 
L 102.765851 21.15068 
L 102.765851 22.062634 
L 102.771548 21.15068 
L 103.047738 21.15068 
L 103.047738 20.238726 
L 103.281326 20.238726 
L 103.281326 21.15068 
L 103.284371 20.238726 
L 104.047538 20.238726 
L 104.047538 21.15068 
L 104.07401 20.238726 
L 104.291603 20.238726 
L 104.291603 21.15068 
L 104.299032 20.238726 
L 104.85113 20.238726 
L 104.85113 21.15068 
L 104.859831 20.238726 
L 105.721606 20.238726 
L 105.721606 21.15068 
L 105.731718 20.238726 
L 105.853557 20.238726 
L 105.853557 21.15068 
L 105.858976 20.238726 
L 106.104602 20.238726 
L 106.104602 21.15068 
L 106.132973 20.238726 
L 107.680939 20.238726 
L 107.680939 21.15068 
L 107.6855 20.238726 
L 107.835339 20.238726 
L 107.835339 21.15068 
L 107.887979 20.238726 
L 108.389743 20.238726 
L 108.389743 21.15068 
L 108.422462 20.238726 
L 108.692748 20.238726 
L 108.692748 21.15068 
L 108.713949 20.238726 
L 109.158888 20.238726 
L 109.158888 21.15068 
L 109.172892 20.238726 
L 109.58106 20.238726 
L 109.58106 21.15068 
L 109.588178 20.238726 
L 109.76463 20.238726 
L 109.76463 21.15068 
L 109.813995 20.238726 
L 109.92208 20.238726 
L 109.92208 21.15068 
L 109.928709 20.238726 
L 110.232088 20.238726 
L 110.232088 21.15068 
L 110.236586 20.238726 
L 110.381457 20.238726 
L 110.381457 21.15068 
L 110.419916 20.238726 
L 110.501755 20.238726 
L 110.501755 21.15068 
L 110.552793 20.238726 
L 110.714957 20.238726 
L 110.714957 19.326772 
L 110.986894 19.326772 
L 110.986894 20.238726 
L 110.994193 19.326772 
L 111.122808 19.326772 
L 111.212877 21.15068 
L 111.21777 20.238726 
L 111.258423 20.238726 
L 111.258423 19.326772 
L 111.355661 19.326772 
L 111.636074 19.326772 
L 111.636074 20.238726 
L 111.640562 19.326772 
L 112.399948 19.326772 
L 112.399948 20.238726 
L 112.441911 19.326772 
L 112.579233 19.326772 
L 112.579233 20.238726 
L 112.655276 20.238726 
L 112.721156 20.238726 
L 112.721156 19.326772 
L 112.812344 20.238726 
L 112.833841 20.238726 
L 112.833841 19.326772 
L 112.852842 19.326772 
L 113.225941 19.326772 
L 113.225941 18.414817 
L 113.556284 18.414817 
L 113.556284 19.326772 
L 113.560852 18.414817 
L 113.682859 18.414817 
L 113.682859 19.326772 
L 113.71367 18.414817 
L 114.044285 18.414817 
L 114.044285 19.326772 
L 114.135327 18.414817 
L 114.215613 18.414817 
L 114.215613 19.326772 
L 114.258936 18.414817 
L 115.073612 18.414817 
L 115.073612 19.326772 
L 115.084102 18.414817 
L 115.469796 18.414817 
L 115.469796 19.326772 
L 115.55602 18.414817 
L 115.716685 18.414817 
L 115.716685 19.326772 
L 115.724618 18.414817 
L 116.068814 18.414817 
L 116.068814 19.326772 
L 116.15147 17.502863 
L 116.37672 17.502863 
L 116.37672 18.414817 
L 116.37881 17.502863 
L 116.493486 17.502863 
L 116.493486 18.414817 
L 116.601376 18.414817 
L 116.605822 18.414817 
L 116.605822 17.502863 
L 116.771872 17.502863 
L 116.771872 18.414817 
L 116.776183 17.502863 
L 116.89282 17.502863 
L 116.89282 18.414817 
L 116.936279 17.502863 
L 117.068338 17.502863 
L 117.068338 18.414817 
L 117.101934 17.502863 
L 117.521611 17.502863 
L 117.521611 18.414817 
L 117.612861 18.414817 
L 117.659393 18.414817 
L 117.659393 17.502863 
L 118.082243 17.502863 
L 118.082243 18.414817 
L 118.08919 17.502863 
L 118.827792 17.502863 
L 118.827792 18.414817 
L 118.831507 17.502863 
L 119.368653 17.502863 
L 119.368653 18.414817 
L 119.479496 16.590909 
L 119.561441 16.590909 
L 119.561441 17.502863 
L 119.573403 16.590909 
L 119.781355 16.590909 
L 119.781355 17.502863 
L 119.786616 16.590909 
L 119.97007 16.590909 
L 119.97007 17.502863 
L 119.976228 16.590909 
L 120.099855 16.590909 
L 120.099855 17.502863 
L 120.105527 16.590909 
L 120.426793 16.590909 
L 120.426793 17.502863 
L 120.453509 16.590909 
L 120.774003 16.590909 
L 120.774003 17.502863 
L 120.874152 16.590909 
L 120.911386 16.590909 
L 120.911386 17.502863 
L 120.914374 16.590909 
L 121.055071 16.590909 
L 121.055071 17.502863 
L 121.059366 16.590909 
L 121.99692 16.590909 
L 121.99692 17.502863 
L 122.007829 16.590909 
L 122.25761 16.590909 
L 122.25761 17.502863 
L 122.261955 16.590909 
L 122.508817 16.590909 
L 122.508817 17.502863 
L 122.513186 16.590909 
L 122.7528 16.590909 
L 122.7528 17.502863 
L 122.85545 17.502863 
L 122.876213 17.502863 
L 122.876213 16.590909 
L 122.904398 16.590909 
L 123.518751 16.590909 
L 123.518751 17.502863 
L 123.522761 16.590909 
L 123.774858 16.590909 
L 123.876034 18.414817 
L 123.884128 17.502863 
L 124.099888 17.502863 
L 124.099888 18.414817 
L 124.126711 17.502863 
L 124.276548 17.502863 
L 124.276548 18.414817 
L 124.283329 17.502863 
L 124.547963 17.502863 
L 124.547963 18.414817 
L 124.553743 17.502863 
L 124.935788 17.502863 
L 124.935788 18.414817 
L 124.941113 17.502863 
L 125.370175 17.502863 
L 125.370175 18.414817 
L 125.405404 17.502863 
L 125.712741 17.502863 
L 125.71965 19.326772 
L 125.727762 17.502863 
L 125.935562 17.502863 
L 125.935562 18.414817 
L 125.950829 17.502863 
L 126.05868 17.502863 
L 126.05868 18.414817 
L 126.238024 18.414817 
L 126.238024 19.326772 
L 126.247227 18.414817 
L 126.522029 18.414817 
L 126.522029 19.326772 
L 126.525701 18.414817 
L 126.830127 18.414817 
L 126.830127 19.326772 
L 126.923613 18.414817 
L 127.309432 18.414817 
L 127.309454 20.238726 
L 127.359717 18.414817 
L 127.554035 18.414817 
L 127.554035 19.326772 
L 127.563024 18.414817 
L 127.931686 18.414817 
L 127.931686 19.326772 
L 127.935114 18.414817 
L 128.079258 18.414817 
L 128.079258 19.326772 
L 128.09469 18.414817 
L 128.332091 18.414817 
L 128.332091 19.326772 
L 128.437599 19.326772 
L 128.447613 19.326772 
L 128.447613 18.414817 
L 128.541587 18.414817 
L 128.647511 18.414817 
L 128.647511 19.326772 
L 128.654077 18.414817 
L 128.85941 18.414817 
L 128.85941 19.326772 
L 128.958439 18.414817 
L 129.005748 18.414817 
L 129.005748 19.326772 
L 129.012322 18.414817 
L 129.289936 18.414817 
L 129.289936 19.326772 
L 129.295225 18.414817 
L 129.515329 18.414817 
L 129.515329 19.326772 
L 129.520408 18.414817 
L 129.700522 18.414817 
L 129.700522 19.326772 
L 129.705908 18.414817 
L 129.844975 18.414817 
L 129.844975 19.326772 
L 129.863077 18.414817 
L 130.102555 18.414817 
L 130.102555 19.326772 
L 130.132413 18.414817 
L 130.415989 18.414817 
L 130.415989 19.326772 
L 130.437096 18.414817 
L 131.000035 18.414817 
L 131.000035 19.326772 
L 131.009203 18.414817 
L 131.508788 18.414817 
L 131.508788 19.326772 
L 131.526724 18.414817 
L 132.286611 18.414817 
L 132.286611 19.326772 
L 132.319157 18.414817 
L 132.466079 18.414817 
L 132.466079 19.326772 
L 132.515127 18.414817 
L 132.849406 18.414817 
L 132.849406 19.326772 
L 132.851971 18.414817 
L 132.998634 18.414817 
L 132.998634 19.326772 
L 133.005667 18.414817 
L 133.279201 18.414817 
L 133.279201 19.326772 
L 133.7762 19.326772 
L 133.7762 20.238726 
L 133.787915 19.326772 
L 134.022952 19.326772 
L 134.022952 20.238726 
L 134.109359 19.326772 
L 134.250572 19.326772 
L 134.326293 21.15068 
L 134.358599 19.326772 
L 134.44201 19.326772 
L 134.44201 20.238726 
L 134.496376 19.326772 
L 134.690461 19.326772 
L 134.690461 20.238726 
L 134.747697 19.326772 
L 135.209465 19.326772 
L 135.209465 20.238726 
L 135.213933 19.326772 
L 135.335668 19.326772 
L 135.335668 20.238726 
L 135.340664 19.326772 
L 135.583401 19.326772 
L 135.583401 20.238726 
L 135.655446 19.326772 
L 136.039821 19.326772 
L 136.039821 20.238726 
L 136.044128 19.326772 
L 136.256913 19.326772 
L 136.256913 20.238726 
L 136.435796 20.238726 
L 136.435796 21.15068 
L 136.457613 20.238726 
L 136.675588 20.238726 
L 136.7356 22.062634 
L 136.746724 20.238726 
L 136.945337 20.238726 
L 136.945337 21.15068 
L 136.954121 20.238726 
L 137.377278 20.238726 
L 137.377278 21.15068 
L 137.416388 20.238726 
L 137.51037 20.238726 
L 137.51037 21.15068 
L 137.517917 20.238726 
L 137.841777 20.238726 
L 137.841777 21.15068 
L 137.937305 20.238726 
L 138.17051 20.238726 
L 138.17051 21.15068 
L 138.260739 20.238726 
L 138.385452 20.238726 
L 138.385452 21.15068 
L 138.394017 20.238726 
L 138.565014 20.238726 
L 138.565014 21.15068 
L 138.655181 20.238726 
L 138.78676 20.238726 
L 138.78676 21.15068 
L 138.795078 20.238726 
L 138.941528 20.238726 
L 138.941528 21.15068 
L 138.949013 20.238726 
L 139.100883 20.238726 
L 139.100883 21.15068 
L 139.110853 20.238726 
L 139.236337 20.238726 
L 139.236337 21.15068 
L 139.241696 20.238726 
L 139.572196 20.238726 
L 139.572196 21.15068 
L 139.648691 20.238726 
L 140.167168 20.238726 
L 140.167168 21.15068 
L 140.181815 20.238726 
L 140.434957 20.238726 
L 140.434957 21.15068 
L 140.541638 21.15068 
L 140.561784 21.15068 
L 140.561784 20.238726 
L 140.882583 20.238726 
L 140.882583 21.15068 
L 140.98796 20.238726 
L 141.770503 20.238726 
L 141.770503 21.15068 
L 141.778736 20.238726 
L 141.914561 20.238726 
L 141.914561 21.15068 
L 141.981575 20.238726 
L 142.229887 20.238726 
L 142.229887 21.15068 
L 142.232599 20.238726 
L 142.478669 20.238726 
L 142.478669 21.15068 
L 142.55334 20.238726 
L 142.730856 20.238726 
L 142.730856 21.15068 
L 142.83547 20.238726 
L 143.286084 20.238726 
L 143.331916 22.062634 
L 143.540127 22.062634 
L 143.582692 23.886543 
L 143.662799 23.886543 
L 143.662799 24.798497 
L 143.772912 24.798497 
L 143.862039 24.798497 
L 143.862039 23.886543 
L 144.274372 23.886543 
L 144.274372 24.798497 
L 144.31617 23.886543 
L 144.41528 23.886543 
L 144.41528 24.798497 
L 144.516529 23.886543 
L 144.597388 23.886543 
L 144.597388 24.798497 
L 144.607397 23.886543 
L 144.84565 23.886543 
L 144.84565 24.798497 
L 145.12855 24.798497 
L 145.12855 25.710451 
L 145.139361 24.798497 
L 145.292498 24.798497 
L 145.292498 25.710451 
L 145.299877 24.798497 
L 145.559231 24.798497 
L 145.559231 25.710451 
L 145.655316 25.710451 
L 145.773849 25.710451 
L 145.773849 26.622405 
L 145.872262 25.710451 
L 145.936011 25.710451 
L 145.936011 26.622405 
L 145.983266 25.710451 
L 146.288888 25.710451 
L 146.288888 26.622405 
L 146.294489 25.710451 
L 146.57161 25.710451 
L 146.57161 26.622405 
L 146.5769 25.710451 
L 146.72395 25.710451 
L 146.72395 26.622405 
L 146.766823 25.710451 
L 147.165348 25.710451 
L 147.165348 26.622405 
L 147.232653 25.710451 
L 147.757915 25.710451 
L 147.759725 27.534359 
L 147.787191 26.622405 
L 147.979275 26.622405 
L 148.052728 28.446314 
L 148.063462 27.534359 
L 148.189659 27.534359 
L 148.189659 28.446314 
L 148.207438 27.534359 
L 148.379407 27.534359 
L 148.379407 28.446314 
L 148.41089 27.534359 
L 148.603187 27.534359 
L 148.603187 28.446314 
L 148.607503 27.534359 
L 148.743743 27.534359 
L 148.743743 28.446314 
L 148.74934 27.534359 
L 149.317521 27.534359 
L 149.317521 28.446314 
L 149.553682 28.446314 
L 149.553682 29.358268 
L 149.581118 28.446314 
L 149.694828 28.446314 
L 149.694828 29.358268 
L 149.79165 28.446314 
L 150.638217 28.446314 
L 150.641111 30.270222 
L 150.705583 28.446314 
L 150.767416 28.446314 
L 150.767416 29.358268 
L 150.774463 28.446314 
L 151.301536 28.446314 
L 151.301536 29.358268 
L 151.333159 28.446314 
L 151.707641 28.446314 
L 151.707641 29.358268 
L 151.726144 28.446314 
L 152.440912 28.446314 
L 152.440912 29.358268 
L 152.450083 28.446314 
L 152.637066 28.446314 
L 152.637066 29.358268 
L 152.641491 28.446314 
L 152.931822 28.446314 
L 152.931822 29.358268 
L 152.948395 28.446314 
L 153.388776 28.446314 
L 153.44508 31.182176 
L 153.455705 30.270222 
L 153.63263 30.270222 
L 153.63263 31.182176 
L 154.047079 31.182176 
L 154.047079 32.09413 
L 154.083007 31.182176 
L 154.278611 31.182176 
L 154.278611 32.09413 
L 154.288716 31.182176 
L 154.667656 31.182176 
L 154.731043 25.710451 
L 155.333339 25.710451 
L 155.333339 26.622405 
L 155.444385 26.622405 
L 155.4566 26.622405 
L 155.4566 25.710451 
L 155.562841 25.710451 
L 155.978022 25.710451 
L 155.978022 26.622405 
L 156.013501 25.710451 
L 156.101214 25.710451 
L 156.101214 26.622405 
L 156.206442 26.622405 
L 156.216281 26.622405 
L 156.216281 25.710451 
L 156.348985 25.710451 
L 156.348985 26.622405 
L 156.405008 25.710451 
L 156.8026 25.710451 
L 156.8026 26.622405 
L 156.911196 25.710451 
L 156.954194 25.710451 
L 156.954194 26.622405 
L 157.042594 25.710451 
L 157.16253 25.710451 
L 157.16253 26.622405 
L 157.267814 25.710451 
L 157.286962 25.710451 
L 157.286962 26.622405 
L 157.365649 26.622405 
L 157.403192 26.622405 
L 157.403192 25.710451 
L 157.410825 25.710451 
L 157.896565 25.710451 
L 157.896565 26.622405 
L 157.901519 25.710451 
L 158.03897 25.710451 
L 158.03897 26.622405 
L 158.054448 25.710451 
L 158.238248 25.710451 
L 158.291493 27.534359 
L 158.29938 26.622405 
L 158.857569 26.622405 
L 158.857569 27.534359 
L 158.862906 26.622405 
L 159.168612 26.622405 
L 159.168612 27.534359 
L 159.558443 27.534359 
L 159.558443 28.446314 
L 159.631842 27.534359 
L 159.751355 27.534359 
L 159.751355 28.446314 
L 159.760066 27.534359 
L 159.890197 27.534359 
L 159.890197 28.446314 
L 159.903701 27.534359 
L 160.036505 27.534359 
L 160.036505 28.446314 
L 160.222254 28.446314 
L 160.222254 29.358268 
L 160.23053 28.446314 
L 160.591837 28.446314 
L 160.591837 29.358268 
L 160.596658 28.446314 
L 160.726396 28.446314 
L 160.726396 29.358268 
L 160.73413 28.446314 
L 161.038496 28.446314 
L 161.097229 30.270222 
L 161.119966 28.446314 
L 161.354789 28.446314 
L 161.354789 29.358268 
L 161.425592 28.446314 
L 161.587359 28.446314 
L 161.587359 29.358268 
L 161.589728 28.446314 
L 161.998727 28.446314 
L 161.998727 29.358268 
L 162.062262 29.358268 
L 162.323407 29.358268 
L 162.323407 30.270222 
L 162.419533 29.358268 
L 162.456326 29.358268 
L 162.456326 30.270222 
L 162.515138 29.358268 
L 162.703532 29.358268 
L 162.703532 30.270222 
L 162.753327 30.270222 
L 163.444678 30.270222 
L 163.444678 31.182176 
L 163.500969 30.270222 
L 163.570255 30.270222 
L 163.570255 31.182176 
L 163.63424 31.182176 
L 163.946458 31.182176 
L 163.946458 32.09413 
L 163.951746 31.182176 
L 164.176432 31.182176 
L 164.176432 32.09413 
L 164.182914 31.182176 
L 164.524733 31.182176 
L 164.621379 33.006084 
L 164.631027 31.182176 
L 164.703852 31.182176 
L 164.703852 32.09413 
L 164.71223 31.182176 
L 165.021842 31.182176 
L 165.021842 32.09413 
L 165.033148 31.182176 
L 165.133966 31.182176 
L 165.133966 32.09413 
L 165.140468 31.182176 
L 165.660327 31.182176 
L 165.660327 32.09413 
L 165.764858 31.182176 
L 165.913988 31.182176 
L 165.971498 33.006084 
L 165.977786 32.09413 
L 166.036054 32.09413 
L 166.069631 33.918039 
L 166.204009 33.918039 
L 166.204009 34.829993 
L 166.212319 33.918039 
L 166.595041 33.918039 
L 166.595041 34.829993 
L 166.601278 33.918039 
L 167.138362 33.918039 
L 167.138362 34.829993 
L 167.162814 33.918039 
L 168.20588 33.918039 
L 168.20588 34.829993 
L 168.28476 33.918039 
L 168.782737 33.918039 
L 168.782737 34.829993 
L 168.786687 33.918039 
L 168.931317 33.918039 
L 168.931317 34.829993 
L 168.939456 33.918039 
L 169.174079 33.918039 
L 169.174079 34.829993 
L 169.179183 33.918039 
L 169.457805 33.918039 
L 169.457805 34.829993 
L 169.592679 34.829993 
L 169.593953 36.653901 
L 169.638169 35.741947 
L 169.705489 35.741947 
L 169.705489 36.653901 
L 169.70957 35.741947 
L 169.880688 35.741947 
L 169.94302 37.565855 
L 170.498075 37.565855 
L 170.591161 39.389764 
L 170.59708 38.47781 
L 170.775865 38.47781 
L 170.775865 39.389764 
L 170.868667 38.47781 
L 171.102485 38.47781 
L 171.102485 39.389764 
L 171.105738 38.47781 
L 171.24395 38.47781 
L 171.295606 40.301718 
L 171.311783 39.389764 
L 171.544354 39.389764 
L 171.544354 40.301718 
L 171.688289 40.301718 
L 171.688289 41.213672 
L 171.707666 40.301718 
L 171.804377 40.301718 
L 171.804377 41.213672 
L 171.807815 40.301718 
L 171.993683 40.301718 
L 171.993683 41.213672 
L 171.999963 40.301718 
L 172.288144 40.301718 
L 172.288144 41.213672 
L 172.29496 40.301718 
L 172.554283 40.301718 
L 172.554283 41.213672 
L 172.725908 41.213672 
L 172.830112 43.037581 
L 173.13532 43.037581 
L 173.13532 43.949535 
L 173.505207 43.949535 
L 173.505207 44.861489 
L 173.675904 44.861489 
L 173.762883 47.597351 
L 173.767255 46.685397 
L 173.906246 46.685397 
L 173.906246 47.597351 
L 173.913377 46.685397 
L 174.390432 46.685397 
L 174.390432 47.597351 
L 174.52265 47.597351 
L 174.524105 49.42126 
L 174.532993 47.597351 
L 174.774379 47.597351 
L 174.774379 48.509306 
L 174.933897 48.509306 
L 174.933897 49.42126 
L 174.93925 48.509306 
L 175.048154 48.509306 
L 175.048154 49.42126 
L 175.161535 49.42126 
L 175.161535 50.333214 
L 175.404151 50.333214 
L 175.417728 52.157122 
L 175.657955 52.157122 
L 175.657955 53.069077 
L 175.833455 53.069077 
L 175.854426 55.804939 
L 175.857832 54.892985 
L 175.982279 54.892985 
L 175.982279 55.804939 
L 175.996965 54.892985 
L 176.251803 54.892985 
L 176.324321 56.716893 
L 176.336843 55.804939 
L 176.472432 55.804939 
L 176.497228 57.628848 
L 176.528371 57.628848 
L 176.600695 57.628848 
L 176.600695 58.540802 
L 176.6919 58.540802 
L 176.807249 58.540802 
L 176.807249 59.452756 
L 176.816175 58.540802 
L 177.232523 58.540802 
L 177.232523 59.452756 
L 177.608594 59.452756 
L 177.608594 60.36471 
L 177.962996 60.36471 
L 178.016292 64.012527 
L 178.109781 64.012527 
L 178.15132 66.748389 
L 178.163921 64.924481 
L 178.257584 64.924481 
L 178.36773 66.748389 
L 178.504433 66.748389 
L 178.571565 68.572298 
L 178.791976 68.572298 
L 178.791976 69.484252 
L 179.009151 69.484252 
L 179.093822 71.30816 
L 179.174286 71.30816 
L 179.174286 72.220115 
L 179.364926 72.220115 
L 179.364926 73.132069 
L 179.487063 73.132069 
L 179.487063 74.044023 
L 179.699769 74.044023 
L 179.699769 74.955977 
L 179.824888 74.955977 
L 179.824888 75.867931 
L 179.855686 74.955977 
L 180.041837 74.955977 
L 180.041837 75.867931 
L 180.164567 75.867931 
L 180.164567 74.955977 
L 180.230737 75.867931 
L 181.119712 75.867931 
L 181.119712 76.779885 
L 181.12356 75.867931 
L 181.439285 75.867931 
L 181.504419 77.69184 
L 181.639798 77.69184 
L 181.717234 80.427702 
L 181.894294 80.427702 
L 181.894294 81.339656 
L 181.923224 80.427702 
L 182.411932 80.427702 
L 182.411932 81.339656 
L 183.028634 81.339656 
L 183.028634 82.251611 
L 183.183132 82.251611 
L 183.183132 83.163565 
L 183.318199 83.163565 
L 183.318199 84.075519 
L 183.540902 84.075519 
L 183.634365 85.899427 
L 183.812874 85.899427 
L 183.812874 86.811382 
L 183.830852 86.811382 
L 184.500137 86.811382 
L 184.500137 87.723336 
L 184.61758 87.723336 
L 184.61758 88.63529 
L 184.624787 87.723336 
L 184.758798 87.723336 
L 184.758798 88.63529 
L 184.95712 88.63529 
L 184.95712 89.547244 
L 185.297044 89.547244 
L 185.297044 90.459198 
L 185.452111 90.459198 
L 185.547574 92.283107 
L 185.6183 92.283107 
L 185.688742 95.018969 
L 185.960916 95.018969 
L 186.068877 97.754832 
L 186.733617 97.754832 
L 186.733617 96.842878 
L 186.753554 96.842878 
L 186.995413 96.842878 
L 186.995413 97.754832 
L 187.514974 97.754832 
L 187.514974 98.666786 
L 187.711453 98.666786 
L 187.747726 101.402649 
L 187.868809 101.402649 
L 187.868809 102.314603 
L 188.048601 102.314603 
L 188.048746 104.138511 
L 188.153258 104.138511 
L 188.279783 104.138511 
L 188.279783 105.050465 
L 188.43127 105.050465 
L 188.43127 105.962419 
L 188.59201 105.962419 
L 188.59201 106.874374 
L 188.705427 106.874374 
L 188.8083 109.610236 
L 188.879548 109.610236 
L 188.879548 108.698282 
L 189.495929 108.698282 
L 189.495929 109.610236 
L 189.641061 109.610236 
L 189.641061 110.52219 
L 189.959982 110.52219 
L 189.959982 111.434145 
L 190.097492 111.434145 
L 190.097492 112.346099 
L 190.401162 112.346099 
L 190.484136 115.081961 
L 190.964308 115.081961 
L 190.964308 115.993916 
L 191.408978 115.993916 
L 191.408978 116.90587 
L 191.520331 116.90587 
L 191.520331 117.817824 
L 191.652914 117.817824 
L 191.731725 119.641732 
L 191.797963 119.641732 
L 191.847229 122.377595 
L 191.858596 121.465641 
L 192.014492 121.465641 
L 192.086682 123.289549 
L 192.324392 123.289549 
L 192.32559 125.113457 
L 192.586319 125.113457 
L 192.586319 126.025412 
L 192.702483 126.025412 
L 192.776421 127.84932 
L 193.008968 127.84932 
L 193.008968 128.761274 
L 193.352477 128.761274 
L 193.432607 130.585183 
L 193.471622 130.585183 
L 193.471622 131.497137 
L 193.764773 131.497137 
L 193.764773 132.409091 
L 193.764773 132.409091 
" style="fill:none;stroke:#1f77b4;stroke-linecap:square;stroke-width:1.5;"/>
   </g>
   <g id="patch_3">
    <path d="M 50.925 138.2 
L 50.925 10.8 
" style="fill:none;stroke:#000000;stroke-linecap:square;stroke-linejoin:miter;stroke-width:0.8;"/>
   </g>
   <g id="patch_4">
    <path d="M 200.566667 138.2 
L 200.566667 10.8 
" style="fill:none;stroke:#000000;stroke-linecap:square;stroke-linejoin:miter;stroke-width:0.8;"/>
   </g>
   <g id="patch_5">
    <path d="M 50.925 138.2 
L 200.566667 138.2 
" style="fill:none;stroke:#000000;stroke-linecap:square;stroke-linejoin:miter;stroke-width:0.8;"/>
   </g>
   <g id="patch_6">
    <path d="M 50.925 10.8 
L 200.566667 10.8 
" style="fill:none;stroke:#000000;stroke-linecap:square;stroke-linejoin:miter;stroke-width:0.8;"/>
   </g>
  </g>
  <g id="axes_2">
   <g id="patch_7">
    <path d="M 251.241667 138.2 
L 400.883333 138.2 
L 400.883333 10.8 
L 251.241667 10.8 
z
" style="fill:#ffffff;"/>
   </g>
   <g id="matplotlib.axis_3">
    <g id="xtick_4">
     <g id="line2d_11">
      <g>
       <use style="stroke:#000000;stroke-width:0.8;" x="258.043561" xlink:href="#mdc435fc043" y="138.2"/>
      </g>
     </g>
     <g id="text_12">
      <!-- 0 -->
      <g transform="translate(254.862311 152.798438)scale(0.1 -0.1)">
       <use xlink:href="#DejaVuSans-48"/>
      </g>
     </g>
    </g>
    <g id="xtick_5">
     <g id="line2d_12">
      <g>
       <use style="stroke:#000000;stroke-width:0.8;" x="313.90504" xlink:href="#mdc435fc043" y="138.2"/>
      </g>
     </g>
     <g id="text_13">
      <!-- 5000 -->
      <g transform="translate(301.18004 152.798438)scale(0.1 -0.1)">
       <use xlink:href="#DejaVuSans-53"/>
       <use x="63.623047" xlink:href="#DejaVuSans-48"/>
       <use x="127.246094" xlink:href="#DejaVuSans-48"/>
       <use x="190.869141" xlink:href="#DejaVuSans-48"/>
      </g>
     </g>
    </g>
    <g id="xtick_6">
     <g id="line2d_13">
      <g>
       <use style="stroke:#000000;stroke-width:0.8;" x="369.766519" xlink:href="#mdc435fc043" y="138.2"/>
      </g>
     </g>
     <g id="text_14">
      <!-- 10000 -->
      <g transform="translate(353.860269 152.798438)scale(0.1 -0.1)">
       <use xlink:href="#DejaVuSans-49"/>
       <use x="63.623047" xlink:href="#DejaVuSans-48"/>
       <use x="127.246094" xlink:href="#DejaVuSans-48"/>
       <use x="190.869141" xlink:href="#DejaVuSans-48"/>
       <use x="254.492188" xlink:href="#DejaVuSans-48"/>
      </g>
     </g>
    </g>
    <g id="text_15">
     <!-- Walltime (s) -->
     <g transform="translate(295.889844 166.476562)scale(0.1 -0.1)">
      <use xlink:href="#DejaVuSans-87"/>
      <use x="98.783203" xlink:href="#DejaVuSans-97"/>
      <use x="160.0625" xlink:href="#DejaVuSans-108"/>
      <use x="187.845703" xlink:href="#DejaVuSans-108"/>
      <use x="215.628906" xlink:href="#DejaVuSans-116"/>
      <use x="254.837891" xlink:href="#DejaVuSans-105"/>
      <use x="282.621094" xlink:href="#DejaVuSans-109"/>
      <use x="380.033203" xlink:href="#DejaVuSans-101"/>
      <use x="441.556641" xlink:href="#DejaVuSans-32"/>
      <use x="473.34375" xlink:href="#DejaVuSans-40"/>
      <use x="512.357422" xlink:href="#DejaVuSans-115"/>
      <use x="564.457031" xlink:href="#DejaVuSans-41"/>
     </g>
    </g>
   </g>
   <g id="matplotlib.axis_4">
    <g id="ytick_7">
     <g id="line2d_14">
      <g>
       <use style="stroke:#000000;stroke-width:0.8;" x="251.241667" xlink:href="#mebd0d813a2" y="138.2"/>
      </g>
     </g>
     <g id="text_16">
      <!-- 0 -->
      <g transform="translate(237.879167 141.999219)scale(0.1 -0.1)">
       <use xlink:href="#DejaVuSans-48"/>
      </g>
     </g>
    </g>
    <g id="ytick_8">
     <g id="line2d_15">
      <g>
       <use style="stroke:#000000;stroke-width:0.8;" x="251.241667" xlink:href="#mebd0d813a2" y="113.933333"/>
      </g>
     </g>
     <g id="text_17">
      <!-- 20 -->
      <g transform="translate(231.516667 117.732552)scale(0.1 -0.1)">
       <use xlink:href="#DejaVuSans-50"/>
       <use x="63.623047" xlink:href="#DejaVuSans-48"/>
      </g>
     </g>
    </g>
    <g id="ytick_9">
     <g id="line2d_16">
      <g>
       <use style="stroke:#000000;stroke-width:0.8;" x="251.241667" xlink:href="#mebd0d813a2" y="89.666667"/>
      </g>
     </g>
     <g id="text_18">
      <!-- 40 -->
      <defs>
       <path d="M 37.796875 64.3125 
L 12.890625 25.390625 
L 37.796875 25.390625 
z
M 35.203125 72.90625 
L 47.609375 72.90625 
L 47.609375 25.390625 
L 58.015625 25.390625 
L 58.015625 17.1875 
L 47.609375 17.1875 
L 47.609375 0 
L 37.796875 0 
L 37.796875 17.1875 
L 4.890625 17.1875 
L 4.890625 26.703125 
z
" id="DejaVuSans-52"/>
      </defs>
      <g transform="translate(231.516667 93.465885)scale(0.1 -0.1)">
       <use xlink:href="#DejaVuSans-52"/>
       <use x="63.623047" xlink:href="#DejaVuSans-48"/>
      </g>
     </g>
    </g>
    <g id="ytick_10">
     <g id="line2d_17">
      <g>
       <use style="stroke:#000000;stroke-width:0.8;" x="251.241667" xlink:href="#mebd0d813a2" y="65.4"/>
      </g>
     </g>
     <g id="text_19">
      <!-- 60 -->
      <defs>
       <path d="M 33.015625 40.375 
Q 26.375 40.375 22.484375 35.828125 
Q 18.609375 31.296875 18.609375 23.390625 
Q 18.609375 15.53125 22.484375 10.953125 
Q 26.375 6.390625 33.015625 6.390625 
Q 39.65625 6.390625 43.53125 10.953125 
Q 47.40625 15.53125 47.40625 23.390625 
Q 47.40625 31.296875 43.53125 35.828125 
Q 39.65625 40.375 33.015625 40.375 
z
M 52.59375 71.296875 
L 52.59375 62.3125 
Q 48.875 64.0625 45.09375 64.984375 
Q 41.3125 65.921875 37.59375 65.921875 
Q 27.828125 65.921875 22.671875 59.328125 
Q 17.53125 52.734375 16.796875 39.40625 
Q 19.671875 43.65625 24.015625 45.921875 
Q 28.375 48.1875 33.59375 48.1875 
Q 44.578125 48.1875 50.953125 41.515625 
Q 57.328125 34.859375 57.328125 23.390625 
Q 57.328125 12.15625 50.6875 5.359375 
Q 44.046875 -1.421875 33.015625 -1.421875 
Q 20.359375 -1.421875 13.671875 8.265625 
Q 6.984375 17.96875 6.984375 36.375 
Q 6.984375 53.65625 15.1875 63.9375 
Q 23.390625 74.21875 37.203125 74.21875 
Q 40.921875 74.21875 44.703125 73.484375 
Q 48.484375 72.75 52.59375 71.296875 
z
" id="DejaVuSans-54"/>
      </defs>
      <g transform="translate(231.516667 69.199219)scale(0.1 -0.1)">
       <use xlink:href="#DejaVuSans-54"/>
       <use x="63.623047" xlink:href="#DejaVuSans-48"/>
      </g>
     </g>
    </g>
    <g id="ytick_11">
     <g id="line2d_18">
      <g>
       <use style="stroke:#000000;stroke-width:0.8;" x="251.241667" xlink:href="#mebd0d813a2" y="41.133333"/>
      </g>
     </g>
     <g id="text_20">
      <!-- 80 -->
      <defs>
       <path d="M 31.78125 34.625 
Q 24.75 34.625 20.71875 30.859375 
Q 16.703125 27.09375 16.703125 20.515625 
Q 16.703125 13.921875 20.71875 10.15625 
Q 24.75 6.390625 31.78125 6.390625 
Q 38.8125 6.390625 42.859375 10.171875 
Q 46.921875 13.96875 46.921875 20.515625 
Q 46.921875 27.09375 42.890625 30.859375 
Q 38.875 34.625 31.78125 34.625 
z
M 21.921875 38.8125 
Q 15.578125 40.375 12.03125 44.71875 
Q 8.5 49.078125 8.5 55.328125 
Q 8.5 64.0625 14.71875 69.140625 
Q 20.953125 74.21875 31.78125 74.21875 
Q 42.671875 74.21875 48.875 69.140625 
Q 55.078125 64.0625 55.078125 55.328125 
Q 55.078125 49.078125 51.53125 44.71875 
Q 48 40.375 41.703125 38.8125 
Q 48.828125 37.15625 52.796875 32.3125 
Q 56.78125 27.484375 56.78125 20.515625 
Q 56.78125 9.90625 50.3125 4.234375 
Q 43.84375 -1.421875 31.78125 -1.421875 
Q 19.734375 -1.421875 13.25 4.234375 
Q 6.78125 9.90625 6.78125 20.515625 
Q 6.78125 27.484375 10.78125 32.3125 
Q 14.796875 37.15625 21.921875 38.8125 
z
M 18.3125 54.390625 
Q 18.3125 48.734375 21.84375 45.5625 
Q 25.390625 42.390625 31.78125 42.390625 
Q 38.140625 42.390625 41.71875 45.5625 
Q 45.3125 48.734375 45.3125 54.390625 
Q 45.3125 60.0625 41.71875 63.234375 
Q 38.140625 66.40625 31.78125 66.40625 
Q 25.390625 66.40625 21.84375 63.234375 
Q 18.3125 60.0625 18.3125 54.390625 
z
" id="DejaVuSans-56"/>
      </defs>
      <g transform="translate(231.516667 44.932552)scale(0.1 -0.1)">
       <use xlink:href="#DejaVuSans-56"/>
       <use x="63.623047" xlink:href="#DejaVuSans-48"/>
      </g>
     </g>
    </g>
    <g id="ytick_12">
     <g id="line2d_19">
      <g>
       <use style="stroke:#000000;stroke-width:0.8;" x="251.241667" xlink:href="#mebd0d813a2" y="16.866667"/>
      </g>
     </g>
     <g id="text_21">
      <!-- 100 -->
      <g transform="translate(225.154167 20.665885)scale(0.1 -0.1)">
       <use xlink:href="#DejaVuSans-49"/>
       <use x="63.623047" xlink:href="#DejaVuSans-48"/>
       <use x="127.246094" xlink:href="#DejaVuSans-48"/>
      </g>
     </g>
    </g>
    <g id="text_22">
     <!-- Utilization (%) -->
     <defs>
      <path d="M 8.6875 72.90625 
L 18.609375 72.90625 
L 18.609375 28.609375 
Q 18.609375 16.890625 22.84375 11.734375 
Q 27.09375 6.59375 36.625 6.59375 
Q 46.09375 6.59375 50.34375 11.734375 
Q 54.59375 16.890625 54.59375 28.609375 
L 54.59375 72.90625 
L 64.5 72.90625 
L 64.5 27.390625 
Q 64.5 13.140625 57.4375 5.859375 
Q 50.390625 -1.421875 36.625 -1.421875 
Q 22.796875 -1.421875 15.734375 5.859375 
Q 8.6875 13.140625 8.6875 27.390625 
z
" id="DejaVuSans-85"/>
      <path d="M 5.515625 54.6875 
L 48.1875 54.6875 
L 48.1875 46.484375 
L 14.40625 7.171875 
L 48.1875 7.171875 
L 48.1875 0 
L 4.296875 0 
L 4.296875 8.203125 
L 38.09375 47.515625 
L 5.515625 47.515625 
z
" id="DejaVuSans-122"/>
      <path d="M 54.890625 33.015625 
L 54.890625 0 
L 45.90625 0 
L 45.90625 32.71875 
Q 45.90625 40.484375 42.875 44.328125 
Q 39.84375 48.1875 33.796875 48.1875 
Q 26.515625 48.1875 22.3125 43.546875 
Q 18.109375 38.921875 18.109375 30.90625 
L 18.109375 0 
L 9.078125 0 
L 9.078125 54.6875 
L 18.109375 54.6875 
L 18.109375 46.1875 
Q 21.34375 51.125 25.703125 53.5625 
Q 30.078125 56 35.796875 56 
Q 45.21875 56 50.046875 50.171875 
Q 54.890625 44.34375 54.890625 33.015625 
z
" id="DejaVuSans-110"/>
      <path d="M 72.703125 32.078125 
Q 68.453125 32.078125 66.03125 28.46875 
Q 63.625 24.859375 63.625 18.40625 
Q 63.625 12.0625 66.03125 8.421875 
Q 68.453125 4.78125 72.703125 4.78125 
Q 76.859375 4.78125 79.265625 8.421875 
Q 81.6875 12.0625 81.6875 18.40625 
Q 81.6875 24.8125 79.265625 28.4375 
Q 76.859375 32.078125 72.703125 32.078125 
z
M 72.703125 38.28125 
Q 80.421875 38.28125 84.953125 32.90625 
Q 89.5 27.546875 89.5 18.40625 
Q 89.5 9.28125 84.9375 3.921875 
Q 80.375 -1.421875 72.703125 -1.421875 
Q 64.890625 -1.421875 60.34375 3.921875 
Q 55.8125 9.28125 55.8125 18.40625 
Q 55.8125 27.59375 60.375 32.9375 
Q 64.9375 38.28125 72.703125 38.28125 
z
M 22.3125 68.015625 
Q 18.109375 68.015625 15.6875 64.375 
Q 13.28125 60.75 13.28125 54.390625 
Q 13.28125 47.953125 15.671875 44.328125 
Q 18.0625 40.71875 22.3125 40.71875 
Q 26.5625 40.71875 28.96875 44.328125 
Q 31.390625 47.953125 31.390625 54.390625 
Q 31.390625 60.6875 28.953125 64.34375 
Q 26.515625 68.015625 22.3125 68.015625 
z
M 66.40625 74.21875 
L 74.21875 74.21875 
L 28.609375 -1.421875 
L 20.796875 -1.421875 
z
M 22.3125 74.21875 
Q 30.03125 74.21875 34.609375 68.875 
Q 39.203125 63.53125 39.203125 54.390625 
Q 39.203125 45.171875 34.640625 39.84375 
Q 30.078125 34.515625 22.3125 34.515625 
Q 14.546875 34.515625 10.03125 39.859375 
Q 5.515625 45.21875 5.515625 54.390625 
Q 5.515625 63.484375 10.046875 68.84375 
Q 14.59375 74.21875 22.3125 74.21875 
z
" id="DejaVuSans-37"/>
     </defs>
     <g transform="translate(219.074479 109.79375)rotate(-90)scale(0.1 -0.1)">
      <use xlink:href="#DejaVuSans-85"/>
      <use x="73.193359" xlink:href="#DejaVuSans-116"/>
      <use x="112.402344" xlink:href="#DejaVuSans-105"/>
      <use x="140.185547" xlink:href="#DejaVuSans-108"/>
      <use x="167.96875" xlink:href="#DejaVuSans-105"/>
      <use x="195.751953" xlink:href="#DejaVuSans-122"/>
      <use x="248.242188" xlink:href="#DejaVuSans-97"/>
      <use x="309.521484" xlink:href="#DejaVuSans-116"/>
      <use x="348.730469" xlink:href="#DejaVuSans-105"/>
      <use x="376.513672" xlink:href="#DejaVuSans-111"/>
      <use x="437.695312" xlink:href="#DejaVuSans-110"/>
      <use x="501.074219" xlink:href="#DejaVuSans-32"/>
      <use x="532.861328" xlink:href="#DejaVuSans-40"/>
      <use x="571.875" xlink:href="#DejaVuSans-37"/>
      <use x="666.894531" xlink:href="#DejaVuSans-41"/>
     </g>
    </g>
   </g>
   <g id="line2d_20">
    <path clip-path="url(#p8099d9992c)" d="M 258.043561 138.2 
L 274.661391 138.2 
L 274.760082 20.658333 
L 281.088314 20.658333 
L 281.088314 21.60625 
L 281.775517 21.60625 
L 281.775517 22.554167 
L 281.779314 21.60625 
L 282.116926 21.60625 
L 282.116926 22.554167 
L 282.119268 21.60625 
L 282.236868 21.60625 
L 282.236868 22.554167 
L 282.253739 21.60625 
L 282.55472 21.60625 
L 282.55472 20.658333 
L 282.782996 20.658333 
L 282.782996 21.60625 
L 282.785768 20.658333 
L 282.957505 20.658333 
L 282.957505 21.60625 
L 283.139907 21.60625 
L 283.139907 20.658333 
L 284.229265 20.658333 
L 284.229265 21.60625 
L 284.395931 21.60625 
L 284.395931 22.554167 
L 284.503472 22.554167 
L 284.507509 22.554167 
L 284.507509 21.60625 
L 284.551293 21.60625 
L 284.811565 21.60625 
L 284.811565 22.554167 
L 285.000805 22.554167 
L 285.000805 21.60625 
L 285.114609 21.60625 
L 285.114609 22.554167 
L 285.142185 21.60625 
L 285.461043 21.60625 
L 285.461043 22.554167 
L 285.560081 22.554167 
L 285.589579 22.554167 
L 285.589579 21.60625 
L 285.789782 21.60625 
L 285.789782 22.554167 
L 285.915809 22.554167 
L 285.915809 23.502083 
L 285.937522 22.554167 
L 286.213856 22.554167 
L 286.21983 24.45 
L 286.319758 23.502083 
L 286.651323 23.502083 
L 286.713311 25.397917 
L 286.754257 24.45 
L 286.887722 24.45 
L 286.887722 25.397917 
L 286.965862 24.45 
L 287.054455 24.45 
L 287.054455 25.397917 
L 287.05898 24.45 
L 287.788729 24.45 
L 287.788729 25.397917 
L 287.791618 24.45 
L 287.933072 24.45 
L 287.933072 25.397917 
L 287.967224 24.45 
L 288.108749 24.45 
L 288.108749 23.502083 
L 288.217318 24.45 
L 288.258316 24.45 
L 288.258316 25.397917 
L 288.360544 24.45 
L 288.631588 24.45 
L 288.631588 25.397917 
L 288.63479 24.45 
L 288.875404 24.45 
L 288.875404 25.397917 
L 288.985531 25.397917 
L 288.996623 25.397917 
L 288.996623 24.45 
L 289.059602 25.397917 
L 289.161889 25.397917 
L 289.218453 27.29375 
L 289.22517 26.345833 
L 289.462274 26.345833 
L 289.462274 27.29375 
L 289.488012 27.29375 
L 289.604765 27.29375 
L 289.604765 28.241667 
L 289.611365 27.29375 
L 289.816877 27.29375 
L 289.816877 28.241667 
L 289.820067 27.29375 
L 289.9766 27.29375 
L 289.9766 28.241667 
L 290.389217 28.241667 
L 290.389217 29.189583 
L 290.445659 28.241667 
L 290.626394 28.241667 
L 290.626394 29.189583 
L 290.678738 28.241667 
L 290.769223 28.241667 
L 290.769223 29.189583 
L 290.778269 28.241667 
L 290.918827 28.241667 
L 290.918827 29.189583 
L 290.923706 28.241667 
L 291.071167 28.241667 
L 291.071167 29.189583 
L 291.165009 28.241667 
L 291.201185 28.241667 
L 291.201185 29.189583 
L 291.299044 28.241667 
L 291.548061 28.241667 
L 291.548061 29.189583 
L 291.618075 28.241667 
L 291.733123 28.241667 
L 291.733123 29.189583 
L 291.77966 28.241667 
L 291.852651 28.241667 
L 291.852651 29.189583 
L 292.170479 29.189583 
L 292.170479 30.1375 
L 292.175235 29.189583 
L 292.296814 29.189583 
L 292.296814 30.1375 
L 292.323319 29.189583 
L 292.889181 29.189583 
L 292.986005 31.085417 
L 292.990087 30.1375 
L 293.030535 30.1375 
L 293.035676 32.033333 
L 293.063019 30.1375 
L 293.225795 30.1375 
L 293.225795 31.085417 
L 293.256545 29.189583 
L 293.374481 29.189583 
L 293.374481 28.241667 
L 293.418004 30.1375 
L 293.445544 29.189583 
L 293.741022 29.189583 
L 293.741022 28.241667 
L 293.943245 28.241667 
L 293.943245 29.189583 
L 294.013126 28.241667 
L 294.281252 28.241667 
L 294.303774 30.1375 
L 294.312342 28.241667 
L 294.453736 28.241667 
L 294.453736 29.189583 
L 294.456198 28.241667 
L 294.569495 28.241667 
L 294.569495 29.189583 
L 294.573599 28.241667 
L 294.726951 28.241667 
L 294.726951 29.189583 
L 294.736015 27.29375 
L 295.025036 27.29375 
L 295.025036 28.241667 
L 295.079489 26.345833 
L 295.167721 26.345833 
L 295.266719 28.241667 
L 295.277216 27.29375 
L 295.447486 27.29375 
L 295.447486 28.241667 
L 295.462379 27.29375 
L 295.671386 27.29375 
L 295.77362 25.397917 
L 295.901198 25.397917 
L 295.901198 26.345833 
L 296.100375 26.345833 
L 296.100375 27.29375 
L 296.452009 27.29375 
L 296.452009 28.241667 
L 296.530293 27.29375 
L 297.177615 27.29375 
L 297.177615 26.345833 
L 297.304207 26.345833 
L 297.304207 27.29375 
L 297.326922 26.345833 
L 297.425301 26.345833 
L 297.425301 27.29375 
L 297.43115 26.345833 
L 297.909793 26.345833 
L 297.909793 27.29375 
L 298.005193 27.29375 
L 298.030939 27.29375 
L 298.050956 25.397917 
L 298.226586 25.397917 
L 298.226586 24.45 
L 298.249994 24.45 
L 298.381663 24.45 
L 298.381663 25.397917 
L 298.388303 24.45 
L 298.51794 24.45 
L 298.51794 25.397917 
L 298.520691 24.45 
L 298.829658 24.45 
L 298.829658 23.502083 
L 299.374269 23.502083 
L 299.374269 24.45 
L 299.448484 24.45 
L 299.498233 24.45 
L 299.498233 23.502083 
L 299.599132 23.502083 
L 299.705921 23.502083 
L 299.705921 22.554167 
L 299.753303 23.502083 
L 299.927455 23.502083 
L 299.927455 24.45 
L 300.01338 24.45 
L 300.141195 24.45 
L 300.141195 25.397917 
L 300.14826 24.45 
L 300.283128 24.45 
L 300.283128 25.397917 
L 300.289345 24.45 
L 300.452427 24.45 
L 300.452427 23.502083 
L 300.779458 23.502083 
L 300.779458 24.45 
L 300.785562 23.502083 
L 301.028518 23.502083 
L 301.028518 22.554167 
L 301.089949 22.554167 
L 301.230755 22.554167 
L 301.230755 23.502083 
L 301.259375 22.554167 
L 301.522349 22.554167 
L 301.522349 23.502083 
L 301.579099 22.554167 
L 301.809743 22.554167 
L 301.809743 23.502083 
L 301.822443 22.554167 
L 302.174012 22.554167 
L 302.174012 23.502083 
L 302.188919 22.554167 
L 303.082518 22.554167 
L 303.082518 23.502083 
L 303.088215 22.554167 
L 303.364405 22.554167 
L 303.364405 21.60625 
L 303.597993 21.60625 
L 303.597993 22.554167 
L 303.601037 21.60625 
L 304.364204 21.60625 
L 304.364204 22.554167 
L 304.390677 21.60625 
L 304.608269 21.60625 
L 304.608269 22.554167 
L 304.615698 21.60625 
L 305.167796 21.60625 
L 305.167796 22.554167 
L 305.176497 21.60625 
L 306.038273 21.60625 
L 306.038273 22.554167 
L 306.048385 21.60625 
L 306.170224 21.60625 
L 306.170224 22.554167 
L 306.175643 21.60625 
L 306.421269 21.60625 
L 306.421269 22.554167 
L 306.44964 21.60625 
L 307.997606 21.60625 
L 307.997606 22.554167 
L 308.002167 21.60625 
L 308.152006 21.60625 
L 308.152006 22.554167 
L 308.204645 21.60625 
L 308.706409 21.60625 
L 308.706409 22.554167 
L 308.739129 21.60625 
L 309.009415 21.60625 
L 309.009415 22.554167 
L 309.030616 21.60625 
L 309.475555 21.60625 
L 309.475555 22.554167 
L 309.489559 21.60625 
L 309.897726 21.60625 
L 309.897726 22.554167 
L 309.904845 21.60625 
L 310.081297 21.60625 
L 310.081297 22.554167 
L 310.130662 21.60625 
L 310.238747 21.60625 
L 310.238747 22.554167 
L 310.245376 21.60625 
L 310.548755 21.60625 
L 310.548755 22.554167 
L 310.553253 21.60625 
L 310.698124 21.60625 
L 310.698124 22.554167 
L 310.736582 21.60625 
L 310.818422 21.60625 
L 310.818422 22.554167 
L 310.86946 21.60625 
L 311.031624 21.60625 
L 311.031624 20.658333 
L 311.303561 20.658333 
L 311.303561 21.60625 
L 311.31086 20.658333 
L 311.439474 20.658333 
L 311.529544 22.554167 
L 311.534437 21.60625 
L 311.575089 21.60625 
L 311.575089 20.658333 
L 311.672327 20.658333 
L 311.952741 20.658333 
L 311.952741 21.60625 
L 311.957228 20.658333 
L 312.716615 20.658333 
L 312.716615 21.60625 
L 312.758578 20.658333 
L 312.8959 20.658333 
L 312.8959 21.60625 
L 312.971943 21.60625 
L 313.037823 21.60625 
L 313.037823 20.658333 
L 313.12901 21.60625 
L 313.150508 21.60625 
L 313.150508 20.658333 
L 313.169508 20.658333 
L 313.542607 20.658333 
L 313.542607 19.710417 
L 313.87295 19.710417 
L 313.87295 20.658333 
L 313.877518 19.710417 
L 313.999525 19.710417 
L 313.999525 20.658333 
L 314.030337 19.710417 
L 314.360951 19.710417 
L 314.360951 20.658333 
L 314.451994 19.710417 
L 314.53228 19.710417 
L 314.53228 20.658333 
L 314.575602 19.710417 
L 315.390279 19.710417 
L 315.390279 20.658333 
L 315.400768 19.710417 
L 315.786463 19.710417 
L 315.786463 20.658333 
L 315.872687 19.710417 
L 316.033352 19.710417 
L 316.033352 20.658333 
L 316.041284 19.710417 
L 316.385481 19.710417 
L 316.385481 20.658333 
L 316.468136 18.7625 
L 316.693386 18.7625 
L 316.693386 19.710417 
L 316.695477 18.7625 
L 316.810153 18.7625 
L 316.810153 19.710417 
L 316.918043 19.710417 
L 316.922488 19.710417 
L 316.922488 18.7625 
L 317.088539 18.7625 
L 317.088539 19.710417 
L 317.09285 18.7625 
L 317.209487 18.7625 
L 317.209487 19.710417 
L 317.252946 18.7625 
L 317.385005 18.7625 
L 317.385005 19.710417 
L 317.418601 18.7625 
L 317.838278 18.7625 
L 317.838278 19.710417 
L 317.929528 19.710417 
L 317.97606 19.710417 
L 317.97606 18.7625 
L 318.398909 18.7625 
L 318.398909 19.710417 
L 318.405857 18.7625 
L 319.144458 18.7625 
L 319.144458 19.710417 
L 319.148174 18.7625 
L 319.685319 18.7625 
L 319.685319 19.710417 
L 319.796163 17.814583 
L 319.878108 17.814583 
L 319.878108 18.7625 
L 319.89007 17.814583 
L 320.098022 17.814583 
L 320.098022 18.7625 
L 320.103283 17.814583 
L 320.286736 17.814583 
L 320.286736 18.7625 
L 320.292895 17.814583 
L 320.416522 17.814583 
L 320.416522 18.7625 
L 320.422193 17.814583 
L 320.743459 17.814583 
L 320.743459 18.7625 
L 320.770176 17.814583 
L 321.090669 17.814583 
L 321.090669 18.7625 
L 321.190819 17.814583 
L 321.228052 17.814583 
L 321.228052 18.7625 
L 321.23104 17.814583 
L 321.371738 17.814583 
L 321.371738 18.7625 
L 321.376032 17.814583 
L 322.313587 17.814583 
L 322.313587 18.7625 
L 322.324495 17.814583 
L 322.574277 17.814583 
L 322.574277 18.7625 
L 322.578621 17.814583 
L 322.825484 17.814583 
L 322.825484 18.7625 
L 322.829853 17.814583 
L 323.069467 17.814583 
L 323.069467 18.7625 
L 323.172116 18.7625 
L 323.19288 18.7625 
L 323.19288 17.814583 
L 323.221064 17.814583 
L 323.835418 17.814583 
L 323.835418 18.7625 
L 323.839427 17.814583 
L 324.091525 17.814583 
L 324.1927 19.710417 
L 324.200795 18.7625 
L 324.416555 18.7625 
L 324.416555 19.710417 
L 324.443378 18.7625 
L 324.593215 18.7625 
L 324.593215 19.710417 
L 324.599996 18.7625 
L 324.86463 18.7625 
L 324.86463 19.710417 
L 324.870409 18.7625 
L 325.252455 18.7625 
L 325.252455 19.710417 
L 325.257779 18.7625 
L 325.686842 18.7625 
L 325.686842 19.710417 
L 325.722071 18.7625 
L 326.029408 18.7625 
L 326.036317 20.658333 
L 326.044429 18.7625 
L 326.252229 18.7625 
L 326.252229 19.710417 
L 326.267496 18.7625 
L 326.375347 18.7625 
L 326.375347 19.710417 
L 326.554691 19.710417 
L 326.554691 20.658333 
L 326.563893 19.710417 
L 326.838696 19.710417 
L 326.838696 20.658333 
L 326.842368 19.710417 
L 327.146793 19.710417 
L 327.146793 20.658333 
L 327.240279 19.710417 
L 327.626099 19.710417 
L 327.62612 21.60625 
L 327.676384 19.710417 
L 327.870701 19.710417 
L 327.870701 20.658333 
L 327.879691 19.710417 
L 328.248352 19.710417 
L 328.248352 20.658333 
L 328.251781 19.710417 
L 328.395925 19.710417 
L 328.395925 20.658333 
L 328.411357 19.710417 
L 328.648758 19.710417 
L 328.648758 20.658333 
L 328.754266 20.658333 
L 328.764279 20.658333 
L 328.764279 19.710417 
L 328.858254 19.710417 
L 328.964177 19.710417 
L 328.964177 20.658333 
L 328.970744 19.710417 
L 329.176076 19.710417 
L 329.176076 20.658333 
L 329.275105 19.710417 
L 329.322415 19.710417 
L 329.322415 20.658333 
L 329.328989 19.710417 
L 329.606602 19.710417 
L 329.606602 20.658333 
L 329.611892 19.710417 
L 329.831996 19.710417 
L 329.831996 20.658333 
L 329.837075 19.710417 
L 330.017189 19.710417 
L 330.017189 20.658333 
L 330.022575 19.710417 
L 330.161642 19.710417 
L 330.161642 20.658333 
L 330.179743 19.710417 
L 330.419221 19.710417 
L 330.419221 20.658333 
L 330.44908 19.710417 
L 330.732656 19.710417 
L 330.732656 20.658333 
L 330.753763 19.710417 
L 331.316702 19.710417 
L 331.316702 20.658333 
L 331.32587 19.710417 
L 331.825455 19.710417 
L 331.825455 20.658333 
L 331.843391 19.710417 
L 332.603278 19.710417 
L 332.603278 20.658333 
L 332.635824 19.710417 
L 332.782746 19.710417 
L 332.782746 20.658333 
L 332.831794 19.710417 
L 333.166072 19.710417 
L 333.166072 20.658333 
L 333.168637 19.710417 
L 333.315301 19.710417 
L 333.315301 20.658333 
L 333.322333 19.710417 
L 333.595868 19.710417 
L 333.595868 20.658333 
L 334.092866 20.658333 
L 334.092866 21.60625 
L 334.104582 20.658333 
L 334.339619 20.658333 
L 334.339619 21.60625 
L 334.426025 20.658333 
L 334.567239 20.658333 
L 334.64296 22.554167 
L 334.675266 20.658333 
L 334.758676 20.658333 
L 334.758676 21.60625 
L 334.813043 20.658333 
L 335.007128 20.658333 
L 335.007128 21.60625 
L 335.064363 20.658333 
L 335.526132 20.658333 
L 335.526132 21.60625 
L 335.530599 20.658333 
L 335.652334 20.658333 
L 335.652334 21.60625 
L 335.657331 20.658333 
L 335.900068 20.658333 
L 335.900068 21.60625 
L 335.972113 20.658333 
L 336.356488 20.658333 
L 336.356488 21.60625 
L 336.360795 20.658333 
L 336.57358 20.658333 
L 336.57358 21.60625 
L 336.752462 21.60625 
L 336.752462 22.554167 
L 336.77428 21.60625 
L 336.992255 21.60625 
L 337.052267 23.502083 
L 337.06339 21.60625 
L 337.262004 21.60625 
L 337.262004 22.554167 
L 337.270788 21.60625 
L 337.693945 21.60625 
L 337.693945 22.554167 
L 337.733055 21.60625 
L 337.827037 21.60625 
L 337.827037 22.554167 
L 337.834584 21.60625 
L 338.158444 21.60625 
L 338.158444 22.554167 
L 338.253971 21.60625 
L 338.487177 21.60625 
L 338.487177 22.554167 
L 338.577406 21.60625 
L 338.702119 21.60625 
L 338.702119 22.554167 
L 338.710684 21.60625 
L 338.881681 21.60625 
L 338.881681 22.554167 
L 338.971847 21.60625 
L 339.103427 21.60625 
L 339.103427 22.554167 
L 339.111745 21.60625 
L 339.258195 21.60625 
L 339.258195 22.554167 
L 339.26568 21.60625 
L 339.41755 21.60625 
L 339.41755 22.554167 
L 339.42752 21.60625 
L 339.553004 21.60625 
L 339.553004 22.554167 
L 339.558362 21.60625 
L 339.888863 21.60625 
L 339.888863 22.554167 
L 339.965357 21.60625 
L 340.483834 21.60625 
L 340.483834 22.554167 
L 340.498482 21.60625 
L 340.751624 21.60625 
L 340.751624 22.554167 
L 340.858304 22.554167 
L 340.878451 22.554167 
L 340.878451 21.60625 
L 341.19925 21.60625 
L 341.19925 22.554167 
L 341.304627 21.60625 
L 342.08717 21.60625 
L 342.08717 22.554167 
L 342.095403 21.60625 
L 342.231228 21.60625 
L 342.231228 22.554167 
L 342.298242 21.60625 
L 342.546554 21.60625 
L 342.546554 22.554167 
L 342.549265 21.60625 
L 342.795335 21.60625 
L 342.795335 22.554167 
L 342.870006 21.60625 
L 343.047523 21.60625 
L 343.047523 22.554167 
L 343.152137 21.60625 
L 343.602751 21.60625 
L 343.648583 23.502083 
L 343.856794 23.502083 
L 343.899359 25.397917 
L 343.979465 25.397917 
L 343.979465 26.345833 
L 344.089578 26.345833 
L 344.178706 26.345833 
L 344.178706 25.397917 
L 344.591039 25.397917 
L 344.591039 26.345833 
L 344.632836 25.397917 
L 344.731947 25.397917 
L 344.731947 26.345833 
L 344.833196 25.397917 
L 344.914055 25.397917 
L 344.914055 26.345833 
L 344.924064 25.397917 
L 345.162317 25.397917 
L 345.162317 26.345833 
L 345.445216 26.345833 
L 345.445216 27.29375 
L 345.456028 26.345833 
L 345.609165 26.345833 
L 345.609165 27.29375 
L 345.616544 26.345833 
L 345.875897 26.345833 
L 345.875897 27.29375 
L 345.971983 27.29375 
L 346.090516 27.29375 
L 346.090516 28.241667 
L 346.188928 27.29375 
L 346.252678 27.29375 
L 346.252678 28.241667 
L 346.299932 27.29375 
L 346.605554 27.29375 
L 346.605554 28.241667 
L 346.611155 27.29375 
L 346.888277 27.29375 
L 346.888277 28.241667 
L 346.893567 27.29375 
L 347.040617 27.29375 
L 347.040617 28.241667 
L 347.083489 27.29375 
L 347.482015 27.29375 
L 347.482015 28.241667 
L 347.549319 27.29375 
L 348.074581 27.29375 
L 348.076392 29.189583 
L 348.103858 28.241667 
L 348.295942 28.241667 
L 348.369395 30.1375 
L 348.380128 29.189583 
L 348.506326 29.189583 
L 348.506326 30.1375 
L 348.524105 29.189583 
L 348.696073 29.189583 
L 348.696073 30.1375 
L 348.727556 29.189583 
L 348.919854 29.189583 
L 348.919854 30.1375 
L 348.92417 29.189583 
L 349.06041 29.189583 
L 349.06041 30.1375 
L 349.066006 29.189583 
L 349.634188 29.189583 
L 349.634188 30.1375 
L 349.870349 30.1375 
L 349.870349 31.085417 
L 349.897785 30.1375 
L 350.011495 30.1375 
L 350.011495 31.085417 
L 350.108317 30.1375 
L 350.954884 30.1375 
L 350.957777 32.033333 
L 351.02225 30.1375 
L 351.084083 30.1375 
L 351.084083 31.085417 
L 351.09113 30.1375 
L 351.618202 30.1375 
L 351.618202 31.085417 
L 351.649826 30.1375 
L 352.024307 30.1375 
L 352.024307 31.085417 
L 352.042811 30.1375 
L 352.757579 30.1375 
L 352.757579 31.085417 
L 352.766749 30.1375 
L 352.953733 30.1375 
L 352.953733 31.085417 
L 352.958158 30.1375 
L 353.248489 30.1375 
L 353.248489 31.085417 
L 353.265061 30.1375 
L 353.705442 30.1375 
L 353.761747 32.98125 
L 353.772372 32.033333 
L 353.949296 32.033333 
L 353.949296 32.98125 
L 354.363746 32.98125 
L 354.363746 33.929167 
L 354.399674 32.98125 
L 354.595277 32.98125 
L 354.595277 33.929167 
L 354.605383 32.98125 
L 354.984323 32.98125 
L 355.04771 27.29375 
L 355.650006 27.29375 
L 355.650006 28.241667 
L 355.761052 28.241667 
L 355.773267 28.241667 
L 355.773267 27.29375 
L 355.879508 27.29375 
L 356.294689 27.29375 
L 356.294689 28.241667 
L 356.330167 27.29375 
L 356.417881 27.29375 
L 356.417881 28.241667 
L 356.523109 28.241667 
L 356.532947 28.241667 
L 356.532947 27.29375 
L 356.665652 27.29375 
L 356.665652 28.241667 
L 356.721675 27.29375 
L 357.119267 27.29375 
L 357.119267 28.241667 
L 357.227863 27.29375 
L 357.270861 27.29375 
L 357.270861 28.241667 
L 357.35926 27.29375 
L 357.479197 27.29375 
L 357.479197 28.241667 
L 357.584481 27.29375 
L 357.603629 27.29375 
L 357.603629 28.241667 
L 357.682316 28.241667 
L 357.719859 28.241667 
L 357.719859 27.29375 
L 357.727492 27.29375 
L 358.213232 27.29375 
L 358.213232 28.241667 
L 358.218186 27.29375 
L 358.355637 27.29375 
L 358.355637 28.241667 
L 358.371114 27.29375 
L 358.554914 27.29375 
L 358.60816 29.189583 
L 358.616047 28.241667 
L 359.174235 28.241667 
L 359.174235 29.189583 
L 359.179573 28.241667 
L 359.485278 28.241667 
L 359.485278 29.189583 
L 359.875109 29.189583 
L 359.875109 30.1375 
L 359.948508 29.189583 
L 360.068021 29.189583 
L 360.068021 30.1375 
L 360.076732 29.189583 
L 360.206864 29.189583 
L 360.206864 30.1375 
L 360.220368 29.189583 
L 360.353171 29.189583 
L 360.353171 30.1375 
L 360.538921 30.1375 
L 360.538921 31.085417 
L 360.547197 30.1375 
L 360.908503 30.1375 
L 360.908503 31.085417 
L 360.913324 30.1375 
L 361.043063 30.1375 
L 361.043063 31.085417 
L 361.050797 30.1375 
L 361.355163 30.1375 
L 361.413896 32.033333 
L 361.436633 30.1375 
L 361.671455 30.1375 
L 361.671455 31.085417 
L 361.742259 30.1375 
L 361.904025 30.1375 
L 361.904025 31.085417 
L 361.906394 30.1375 
L 362.315394 30.1375 
L 362.315394 31.085417 
L 362.378929 31.085417 
L 362.640073 31.085417 
L 362.640073 32.033333 
L 362.7362 31.085417 
L 362.772993 31.085417 
L 362.772993 32.033333 
L 362.831804 31.085417 
L 363.020199 31.085417 
L 363.020199 32.033333 
L 363.069994 32.033333 
L 363.761345 32.033333 
L 363.761345 32.98125 
L 363.817636 32.033333 
L 363.886922 32.033333 
L 363.886922 32.98125 
L 363.950907 32.98125 
L 364.263124 32.98125 
L 364.263124 33.929167 
L 364.268413 32.98125 
L 364.493099 32.98125 
L 364.493099 33.929167 
L 364.49958 32.98125 
L 364.8414 32.98125 
L 364.938045 34.877083 
L 364.947694 32.98125 
L 365.020518 32.98125 
L 365.020518 33.929167 
L 365.028897 32.98125 
L 365.338509 32.98125 
L 365.338509 33.929167 
L 365.349815 32.98125 
L 365.450633 32.98125 
L 365.450633 33.929167 
L 365.457135 32.98125 
L 365.976994 32.98125 
L 365.976994 33.929167 
L 366.081525 32.98125 
L 366.230655 32.98125 
L 366.288165 34.877083 
L 366.294452 33.929167 
L 366.352721 33.929167 
L 366.386298 35.825 
L 366.520675 35.825 
L 366.520675 36.772917 
L 366.528986 35.825 
L 366.911708 35.825 
L 366.911708 36.772917 
L 366.917945 35.825 
L 367.455029 35.825 
L 367.455029 36.772917 
L 367.479481 35.825 
L 368.522546 35.825 
L 368.522546 36.772917 
L 368.601426 35.825 
L 369.099403 35.825 
L 369.099403 36.772917 
L 369.103354 35.825 
L 369.247984 35.825 
L 369.247984 36.772917 
L 369.256122 35.825 
L 369.490746 35.825 
L 369.490746 36.772917 
L 369.49585 35.825 
L 369.774472 35.825 
L 369.774472 36.772917 
L 369.909345 36.772917 
L 369.91062 38.66875 
L 369.954836 37.720833 
L 370.022156 37.720833 
L 370.022156 38.66875 
L 370.026237 37.720833 
L 370.197354 37.720833 
L 370.259686 39.616667 
L 370.814742 39.616667 
L 370.907828 41.5125 
L 370.913747 40.564583 
L 371.092531 40.564583 
L 371.092531 41.5125 
L 371.185333 40.564583 
L 371.419152 40.564583 
L 371.419152 41.5125 
L 371.422405 40.564583 
L 371.560617 40.564583 
L 371.612273 42.460417 
L 371.62845 41.5125 
L 371.86102 41.5125 
L 371.86102 42.460417 
L 372.004955 42.460417 
L 372.004955 43.408333 
L 372.024333 42.460417 
L 372.121044 42.460417 
L 372.121044 43.408333 
L 372.124482 42.460417 
L 372.310349 42.460417 
L 372.310349 43.408333 
L 372.316629 42.460417 
L 372.604811 42.460417 
L 372.604811 43.408333 
L 372.611626 42.460417 
L 372.87095 42.460417 
L 372.87095 43.408333 
L 373.042575 43.408333 
L 373.146779 45.304167 
L 373.451987 45.304167 
L 373.451987 46.252083 
L 373.821874 46.252083 
L 373.821874 47.2 
L 373.99257 47.2 
L 374.079549 50.04375 
L 374.083922 49.095833 
L 374.222913 49.095833 
L 374.222913 50.04375 
L 374.230044 49.095833 
L 374.707099 49.095833 
L 374.707099 50.04375 
L 374.839316 50.04375 
L 374.840772 51.939583 
L 374.849659 50.04375 
L 375.091045 50.04375 
L 375.091045 50.991667 
L 375.250564 50.991667 
L 375.250564 51.939583 
L 375.255917 50.991667 
L 375.364821 50.991667 
L 375.364821 51.939583 
L 375.478202 51.939583 
L 375.478202 52.8875 
L 375.720818 52.8875 
L 375.734395 54.783333 
L 375.974621 54.783333 
L 375.974621 55.73125 
L 376.150122 55.73125 
L 376.171093 58.575 
L 376.174499 57.627083 
L 376.298946 57.627083 
L 376.298946 58.575 
L 376.313632 57.627083 
L 376.56847 57.627083 
L 376.640987 59.522917 
L 376.653509 58.575 
L 376.789099 58.575 
L 376.813895 60.470833 
L 376.845038 60.470833 
L 376.917362 60.470833 
L 376.917362 61.41875 
L 377.008566 61.41875 
L 377.123915 61.41875 
L 377.123915 62.366667 
L 377.132842 61.41875 
L 377.54919 61.41875 
L 377.54919 62.366667 
L 377.92526 62.366667 
L 377.92526 63.314583 
L 378.279663 63.314583 
L 378.332959 67.10625 
L 378.426448 67.10625 
L 378.467987 69.95 
L 378.480588 68.054167 
L 378.574251 68.054167 
L 378.684397 69.95 
L 378.8211 69.95 
L 378.888231 71.845833 
L 379.108642 71.845833 
L 379.108642 72.79375 
L 379.325817 72.79375 
L 379.410489 74.689583 
L 379.490953 74.689583 
L 379.490953 75.6375 
L 379.681593 75.6375 
L 379.681593 76.585417 
L 379.803729 76.585417 
L 379.803729 77.533333 
L 380.016436 77.533333 
L 380.016436 78.48125 
L 380.141555 78.48125 
L 380.141555 79.429167 
L 380.172352 78.48125 
L 380.358504 78.48125 
L 380.358504 79.429167 
L 380.481233 79.429167 
L 380.481233 78.48125 
L 380.547404 79.429167 
L 381.436379 79.429167 
L 381.436379 80.377083 
L 381.440226 79.429167 
L 381.755951 79.429167 
L 381.821085 81.325 
L 381.956465 81.325 
L 382.033901 84.16875 
L 382.210961 84.16875 
L 382.210961 85.116667 
L 382.23989 84.16875 
L 382.728598 84.16875 
L 382.728598 85.116667 
L 383.345301 85.116667 
L 383.345301 86.064583 
L 383.499799 86.064583 
L 383.499799 87.0125 
L 383.634866 87.0125 
L 383.634866 87.960417 
L 383.857568 87.960417 
L 383.951031 89.85625 
L 384.129541 89.85625 
L 384.129541 90.804167 
L 384.147519 90.804167 
L 384.816804 90.804167 
L 384.816804 91.752083 
L 384.934246 91.752083 
L 384.934246 92.7 
L 384.941453 91.752083 
L 385.075464 91.752083 
L 385.075464 92.7 
L 385.273787 92.7 
L 385.273787 93.647917 
L 385.613711 93.647917 
L 385.613711 94.595833 
L 385.768778 94.595833 
L 385.86424 96.491667 
L 385.934967 96.491667 
L 386.005409 99.335417 
L 386.277582 99.335417 
L 386.385544 102.179167 
L 387.050284 102.179167 
L 387.050284 101.23125 
L 387.070221 101.23125 
L 387.31208 101.23125 
L 387.31208 102.179167 
L 387.831641 102.179167 
L 387.831641 103.127083 
L 388.02812 103.127083 
L 388.064392 105.970833 
L 388.185475 105.970833 
L 388.185475 106.91875 
L 388.365267 106.91875 
L 388.365412 108.814583 
L 388.469924 108.814583 
L 388.596449 108.814583 
L 388.596449 109.7625 
L 388.747937 109.7625 
L 388.747937 110.710417 
L 388.908677 110.710417 
L 388.908677 111.658333 
L 389.022094 111.658333 
L 389.124967 114.502083 
L 389.196215 114.502083 
L 389.196215 113.554167 
L 389.812595 113.554167 
L 389.812595 114.502083 
L 389.957728 114.502083 
L 389.957728 115.45 
L 390.276649 115.45 
L 390.276649 116.397917 
L 390.414159 116.397917 
L 390.414159 117.345833 
L 390.717829 117.345833 
L 390.800803 120.189583 
L 391.280975 120.189583 
L 391.280975 121.1375 
L 391.725644 121.1375 
L 391.725644 122.085417 
L 391.836998 122.085417 
L 391.836998 123.033333 
L 391.969581 123.033333 
L 392.048392 124.929167 
L 392.11463 124.929167 
L 392.163896 127.772917 
L 392.175263 126.825 
L 392.331158 126.825 
L 392.403348 128.720833 
L 392.641059 128.720833 
L 392.642256 130.616667 
L 392.902986 130.616667 
L 392.902986 131.564583 
L 393.019149 131.564583 
L 393.093088 133.460417 
L 393.325634 133.460417 
L 393.325634 134.408333 
L 393.669144 134.408333 
L 393.749273 136.304167 
L 393.788288 136.304167 
L 393.788288 137.252083 
L 394.081439 137.252083 
L 394.081439 138.2 
L 394.081439 138.2 
" style="fill:none;stroke:#1f77b4;stroke-linecap:square;stroke-width:1.5;"/>
   </g>
   <g id="patch_8">
    <path d="M 251.241667 138.2 
L 251.241667 10.8 
" style="fill:none;stroke:#000000;stroke-linecap:square;stroke-linejoin:miter;stroke-width:0.8;"/>
   </g>
   <g id="patch_9">
    <path d="M 400.883333 138.2 
L 400.883333 10.8 
" style="fill:none;stroke:#000000;stroke-linecap:square;stroke-linejoin:miter;stroke-width:0.8;"/>
   </g>
   <g id="patch_10">
    <path d="M 251.241667 138.2 
L 400.883333 138.2 
" style="fill:none;stroke:#000000;stroke-linecap:square;stroke-linejoin:miter;stroke-width:0.8;"/>
   </g>
   <g id="patch_11">
    <path d="M 251.241667 10.8 
L 400.883333 10.8 
" style="fill:none;stroke:#000000;stroke-linecap:square;stroke-linejoin:miter;stroke-width:0.8;"/>
   </g>
  </g>
  <g id="axes_3">
   <g id="patch_12">
    <path d="M 451.558333 138.2 
L 601.2 138.2 
L 601.2 10.8 
L 451.558333 10.8 
z
" style="fill:#ffffff;"/>
   </g>
   <g id="matplotlib.axis_5">
    <g id="xtick_7">
     <g id="line2d_21">
      <g>
       <use style="stroke:#000000;stroke-width:0.8;" x="503.064804" xlink:href="#mdc435fc043" y="138.2"/>
      </g>
     </g>
     <g id="text_23">
      <!-- 5000 -->
      <g transform="translate(490.339804 152.798438)scale(0.1 -0.1)">
       <use xlink:href="#DejaVuSans-53"/>
       <use x="63.623047" xlink:href="#DejaVuSans-48"/>
       <use x="127.246094" xlink:href="#DejaVuSans-48"/>
       <use x="190.869141" xlink:href="#DejaVuSans-48"/>
      </g>
     </g>
    </g>
    <g id="xtick_8">
     <g id="line2d_22">
      <g>
       <use style="stroke:#000000;stroke-width:0.8;" x="566.699657" xlink:href="#mdc435fc043" y="138.2"/>
      </g>
     </g>
     <g id="text_24">
      <!-- 10000 -->
      <g transform="translate(550.793407 152.798438)scale(0.1 -0.1)">
       <use xlink:href="#DejaVuSans-49"/>
       <use x="63.623047" xlink:href="#DejaVuSans-48"/>
       <use x="127.246094" xlink:href="#DejaVuSans-48"/>
       <use x="190.869141" xlink:href="#DejaVuSans-48"/>
       <use x="254.492188" xlink:href="#DejaVuSans-48"/>
      </g>
     </g>
    </g>
    <g id="text_25">
     <!-- Walltime (s) -->
     <g transform="translate(496.20651 166.476562)scale(0.1 -0.1)">
      <use xlink:href="#DejaVuSans-87"/>
      <use x="98.783203" xlink:href="#DejaVuSans-97"/>
      <use x="160.0625" xlink:href="#DejaVuSans-108"/>
      <use x="187.845703" xlink:href="#DejaVuSans-108"/>
      <use x="215.628906" xlink:href="#DejaVuSans-116"/>
      <use x="254.837891" xlink:href="#DejaVuSans-105"/>
      <use x="282.621094" xlink:href="#DejaVuSans-109"/>
      <use x="380.033203" xlink:href="#DejaVuSans-101"/>
      <use x="441.556641" xlink:href="#DejaVuSans-32"/>
      <use x="473.34375" xlink:href="#DejaVuSans-40"/>
      <use x="512.357422" xlink:href="#DejaVuSans-115"/>
      <use x="564.457031" xlink:href="#DejaVuSans-41"/>
     </g>
    </g>
   </g>
   <g id="matplotlib.axis_6">
    <g id="ytick_13">
     <g id="line2d_23">
      <g>
       <use style="stroke:#000000;stroke-width:0.8;" x="451.558333" xlink:href="#mebd0d813a2" y="138.2"/>
      </g>
     </g>
     <g id="text_26">
      <!-- 0 -->
      <g transform="translate(438.195833 141.999219)scale(0.1 -0.1)">
       <use xlink:href="#DejaVuSans-48"/>
      </g>
     </g>
    </g>
    <g id="ytick_14">
     <g id="line2d_24">
      <g>
       <use style="stroke:#000000;stroke-width:0.8;" x="451.558333" xlink:href="#mebd0d813a2" y="113.933333"/>
      </g>
     </g>
     <g id="text_27">
      <!-- 20 -->
      <g transform="translate(431.833333 117.732552)scale(0.1 -0.1)">
       <use xlink:href="#DejaVuSans-50"/>
       <use x="63.623047" xlink:href="#DejaVuSans-48"/>
      </g>
     </g>
    </g>
    <g id="ytick_15">
     <g id="line2d_25">
      <g>
       <use style="stroke:#000000;stroke-width:0.8;" x="451.558333" xlink:href="#mebd0d813a2" y="89.666667"/>
      </g>
     </g>
     <g id="text_28">
      <!-- 40 -->
      <g transform="translate(431.833333 93.465885)scale(0.1 -0.1)">
       <use xlink:href="#DejaVuSans-52"/>
       <use x="63.623047" xlink:href="#DejaVuSans-48"/>
      </g>
     </g>
    </g>
    <g id="ytick_16">
     <g id="line2d_26">
      <g>
       <use style="stroke:#000000;stroke-width:0.8;" x="451.558333" xlink:href="#mebd0d813a2" y="65.4"/>
      </g>
     </g>
     <g id="text_29">
      <!-- 60 -->
      <g transform="translate(431.833333 69.199219)scale(0.1 -0.1)">
       <use xlink:href="#DejaVuSans-54"/>
       <use x="63.623047" xlink:href="#DejaVuSans-48"/>
      </g>
     </g>
    </g>
    <g id="ytick_17">
     <g id="line2d_27">
      <g>
       <use style="stroke:#000000;stroke-width:0.8;" x="451.558333" xlink:href="#mebd0d813a2" y="41.133333"/>
      </g>
     </g>
     <g id="text_30">
      <!-- 80 -->
      <g transform="translate(431.833333 44.932552)scale(0.1 -0.1)">
       <use xlink:href="#DejaVuSans-56"/>
       <use x="63.623047" xlink:href="#DejaVuSans-48"/>
      </g>
     </g>
    </g>
    <g id="ytick_18">
     <g id="line2d_28">
      <g>
       <use style="stroke:#000000;stroke-width:0.8;" x="451.558333" xlink:href="#mebd0d813a2" y="16.866667"/>
      </g>
     </g>
     <g id="text_31">
      <!-- 100 -->
      <g transform="translate(425.470833 20.665885)scale(0.1 -0.1)">
       <use xlink:href="#DejaVuSans-49"/>
       <use x="63.623047" xlink:href="#DejaVuSans-48"/>
       <use x="127.246094" xlink:href="#DejaVuSans-48"/>
      </g>
     </g>
    </g>
    <g id="text_32">
     <!-- Cumulative Util. (%) -->
     <defs>
      <path d="M 64.40625 67.28125 
L 64.40625 56.890625 
Q 59.421875 61.53125 53.78125 63.8125 
Q 48.140625 66.109375 41.796875 66.109375 
Q 29.296875 66.109375 22.65625 58.46875 
Q 16.015625 50.828125 16.015625 36.375 
Q 16.015625 21.96875 22.65625 14.328125 
Q 29.296875 6.6875 41.796875 6.6875 
Q 48.140625 6.6875 53.78125 8.984375 
Q 59.421875 11.28125 64.40625 15.921875 
L 64.40625 5.609375 
Q 59.234375 2.09375 53.4375 0.328125 
Q 47.65625 -1.421875 41.21875 -1.421875 
Q 24.65625 -1.421875 15.125 8.703125 
Q 5.609375 18.84375 5.609375 36.375 
Q 5.609375 53.953125 15.125 64.078125 
Q 24.65625 74.21875 41.21875 74.21875 
Q 47.75 74.21875 53.53125 72.484375 
Q 59.328125 70.75 64.40625 67.28125 
z
" id="DejaVuSans-67"/>
      <path d="M 8.5 21.578125 
L 8.5 54.6875 
L 17.484375 54.6875 
L 17.484375 21.921875 
Q 17.484375 14.15625 20.5 10.265625 
Q 23.53125 6.390625 29.59375 6.390625 
Q 36.859375 6.390625 41.078125 11.03125 
Q 45.3125 15.671875 45.3125 23.6875 
L 45.3125 54.6875 
L 54.296875 54.6875 
L 54.296875 0 
L 45.3125 0 
L 45.3125 8.40625 
Q 42.046875 3.421875 37.71875 1 
Q 33.40625 -1.421875 27.6875 -1.421875 
Q 18.265625 -1.421875 13.375 4.4375 
Q 8.5 10.296875 8.5 21.578125 
z
M 31.109375 56 
z
" id="DejaVuSans-117"/>
      <path d="M 10.6875 12.40625 
L 21 12.40625 
L 21 0 
L 10.6875 0 
z
" id="DejaVuSans-46"/>
     </defs>
     <g transform="translate(419.391146 124.854688)rotate(-90)scale(0.1 -0.1)">
      <use xlink:href="#DejaVuSans-67"/>
      <use x="69.824219" xlink:href="#DejaVuSans-117"/>
      <use x="133.203125" xlink:href="#DejaVuSans-109"/>
      <use x="230.615234" xlink:href="#DejaVuSans-117"/>
      <use x="293.994141" xlink:href="#DejaVuSans-108"/>
      <use x="321.777344" xlink:href="#DejaVuSans-97"/>
      <use x="383.056641" xlink:href="#DejaVuSans-116"/>
      <use x="422.265625" xlink:href="#DejaVuSans-105"/>
      <use x="450.048828" xlink:href="#DejaVuSans-118"/>
      <use x="509.228516" xlink:href="#DejaVuSans-101"/>
      <use x="570.751953" xlink:href="#DejaVuSans-32"/>
      <use x="602.539062" xlink:href="#DejaVuSans-85"/>
      <use x="675.732422" xlink:href="#DejaVuSans-116"/>
      <use x="714.941406" xlink:href="#DejaVuSans-105"/>
      <use x="742.724609" xlink:href="#DejaVuSans-108"/>
      <use x="770.507812" xlink:href="#DejaVuSans-46"/>
      <use x="802.294922" xlink:href="#DejaVuSans-32"/>
      <use x="834.082031" xlink:href="#DejaVuSans-40"/>
      <use x="873.095703" xlink:href="#DejaVuSans-37"/>
      <use x="968.115234" xlink:href="#DejaVuSans-41"/>
     </g>
    </g>
   </g>
   <g id="line2d_29">
    <path clip-path="url(#p0451de0661)" d="M 458.360227 138.2 
L 458.396231 138.094212 
L 458.472651 137.63714 
L 465.681485 105.514032 
L 467.810782 99.204188 
L 469.922843 93.791433 
L 472.018611 89.198617 
L 473.965678 85.549996 
L 475.806615 82.525282 
L 477.943727 79.51936 
L 480.404842 76.501039 
L 483.272284 73.286184 
L 487.740201 68.83238 
L 491.326954 65.643541 
L 494.571952 63.053362 
L 498.88833 60.046445 
L 503.828678 57.027627 
L 508.19193 54.63321 
L 513.59815 51.971984 
L 517.27041 50.393869 
L 522.258102 48.548962 
L 527.168542 46.955384 
L 532.2879 45.54367 
L 537.551185 44.282349 
L 542.501265 43.447275 
L 548.681397 42.690095 
L 551.839564 42.319156 
L 557.74576 41.638307 
L 562.849062 41.251794 
L 569.38574 41.067599 
L 572.952928 41.211141 
L 575.091036 41.45015 
L 577.777289 41.938913 
L 581.465467 42.929108 
L 585.19826 44.137858 
L 588.833081 45.606452 
L 592.758654 47.498835 
L 594.398106 48.413159 
L 594.398106 48.413159 
" style="fill:none;stroke:#1f77b4;stroke-linecap:square;stroke-width:1.5;"/>
   </g>
   <g id="patch_13">
    <path d="M 451.558333 138.2 
L 451.558333 10.8 
" style="fill:none;stroke:#000000;stroke-linecap:square;stroke-linejoin:miter;stroke-width:0.8;"/>
   </g>
   <g id="patch_14">
    <path d="M 601.2 138.2 
L 601.2 10.8 
" style="fill:none;stroke:#000000;stroke-linecap:square;stroke-linejoin:miter;stroke-width:0.8;"/>
   </g>
   <g id="patch_15">
    <path d="M 451.558333 138.2 
L 601.2 138.2 
" style="fill:none;stroke:#000000;stroke-linecap:square;stroke-linejoin:miter;stroke-width:0.8;"/>
   </g>
   <g id="patch_16">
    <path d="M 451.558333 10.8 
L 601.2 10.8 
" style="fill:none;stroke:#000000;stroke-linecap:square;stroke-linejoin:miter;stroke-width:0.8;"/>
   </g>
  </g>
 </g>
 <defs>
  <clipPath id="p8244d6fd64">
   <rect height="127.4" width="149.641667" x="50.925" y="10.8"/>
  </clipPath>
  <clipPath id="p8099d9992c">
   <rect height="127.4" width="149.641667" x="251.241667" y="10.8"/>
  </clipPath>
  <clipPath id="p0451de0661">
   <rect height="127.4" width="149.641667" x="451.558333" y="10.8"/>
  </clipPath>
 </defs>
</svg>
